<?xml version="1.0" encoding="utf-8"?>
<!-- Generator: Adobe Illustrator 21.1.0, SVG Export Plug-In . SVG Version: 6.00 Build 0)  -->
<svg version="1.1" id="Calque_1" xmlns="http://www.w3.org/2000/svg" xmlns:xlink="http://www.w3.org/1999/xlink" x="0px" y="0px"
	 viewBox="0 0 432 432" style="enable-background:new 0 0 432 432;" xml:space="preserve">
<style type="text/css">
	.st0{fill:#EFC9AF;}
	.st1{fill:#C69C6C;}
	.st2{fill:#020203;}
	.st3{fill:#603914;}
	.st4{fill:#C1292E;}
	.st5{fill:#A67D52;}
	.st6{fill:#343434;}
	.st7{fill:#C7B29A;}
	.st8{fill:#754D24;}
	.st9{fill:#412413;}
	.st10{fill:#1B1B1B;}
	.st11{fill:#9E1460;}
	.st12{fill:#E7267A;}
	.st13{fill:#998675;}
	.st14{fill:#676767;}
	.st15{fill:#BEC1A5;}
	.st16{fill:#8D7968;}
	.st17{fill:#A6A184;}
	.st18{fill:#5B4841;}
	.st19{fill:#C1A07F;}
	.st20{fill:#72403F;}
	.st21{fill:#AA8767;}
	.st22{fill:#D6B394;}
	.st23{fill:#A34F4D;}
	.st24{fill:#B47B61;}
	.st25{fill:#E5C292;}
	.st26{fill:#B4AFA8;}
	.st27{fill:#9E9A98;}
	.st28{fill:#F39323;}
	.st29{fill:#F9B03D;}
	.st30{fill:#50B162;}
	.st31{fill:#106B40;}
	.st32{fill:#8C633A;}
	.st33{fill:#231F20;}
	.st34{fill:#2C2F32;}
	.st35{fill:#E52328;}
	.st36{fill:#C2C3C3;}
	.st37{fill:#2DABE3;}
	.st38{fill:#F9EA31;}
	.st39{fill:#E52629;}
	.st40{fill:#746458;}
	.st41{fill:#0D71B9;}
	.st42{fill:#E52521;}
	.st43{fill:#F6D9A7;}
	.st44{fill:#F4A5A6;}
	.st45{fill:#6E6F70;}
	.st46{fill:#929497;}
	.st47{fill:#F29A26;}
	.st48{fill:#E0C399;}
	.st49{fill:#F9CBCC;}
	.st50{fill:#EBDA8C;}
	.st51{fill:#30358C;}
	.st52{fill:#F6DEB8;}
	.st53{fill:#FFFFFF;}
	.st54{fill:#959FA1;}
	.st55{fill:#6A737A;}
	.st56{fill:#6CC0A9;}
	.st57{fill:#2C7179;}
	.st58{fill:#F2F2F2;}
	.st59{fill:#D83747;}
	.st60{fill:#C92C3F;}
	.st61{fill:#E67525;}
	.st62{fill:#FFD471;}
	.st63{fill:#F0832C;}
	.st64{fill:#90CDBC;}
	.st65{fill:#1E1B3C;}
	.st66{fill:#3C3C3B;}
	.st67{fill:#E94E1B;}
	.st68{fill:#BE1622;}
	.st69{fill:#665F4A;}
	.st70{fill:#3A3320;}
	.st71{fill:#13110C;}
	.st72{fill:#EDECED;}
	.st73{fill:#24211E;}
	.st74{fill:#DBD9DA;}
	.st75{fill:#D01419;}
	.st76{fill:#E1E0E0;}
	.st77{fill:#ECECEC;}
	.st78{fill:#F8F8F9;}
	.st79{fill:#6A6621;}
	.st80{fill:#89454C;}
	.st81{fill:#CBC135;}
	.st82{fill:#F8C8CB;}
	.st83{fill:#C45853;}
	.st84{fill:#729BA5;}
	.st85{fill:#F8AB00;}
	.st86{fill:#3B3835;}
	.st87{fill:#FAD3D7;}
	.st88{fill:#ECBABB;}
	.st89{fill:#F8CFB4;}
	.st90{fill:#844C16;}
	.st91{fill:#D49F61;}
	.st92{fill:#55514F;}
	.st93{fill:#B57D44;}
	.st94{fill:#FCE1E4;}
	.st95{fill:#D5D4D4;}
	.st96{fill:#B92932;}
	.st97{fill:#97C01E;}
	.st98{fill:#00AED3;}
	.st99{fill:#FFCE00;}
	.st100{fill:#E30613;}
	.st101{fill:#F28E36;}
	.st102{fill:#9B6228;}
	.st103{fill:#F6A753;}
	.st104{fill:#CB3749;}
	.st105{fill:#E4E1E1;}
	.st106{fill:#FDEA00;}
	.st107{fill:#53BFCC;}
	.st108{fill:#C2171F;}
	.st109{fill:#EA5139;}
	.st110{fill:#0098B0;}
	.st111{fill:#F28B00;}
	.st112{fill:#898584;}
	.st113{fill:#FAB84F;}
	.st114{fill:#E74310;}
	.st115{fill:#CC5E16;}
	.st116{fill:#00A33A;}
	.st117{fill:#F18600;}
	.st118{fill:#2C2523;}
	.st119{fill:#006633;}
	.st120{fill:#063141;}
	.st121{fill:#1488A9;}
	.st122{fill:#5CBCB8;}
	.st123{fill:#00472A;}
	.st124{fill:#ECC876;}
	.st125{fill:#EBA700;}
	.st126{fill:#F4E3BC;}
	.st127{fill:#BEBBBB;}
	.st128{fill:#A29F9D;}
	.st129{fill:#72C4BE;}
	.st130{fill:#DACCA3;}
	.st131{fill:#AAC5DD;}
	.st132{fill:#1B6DA2;}
	.st133{fill:#F9B233;}
	.st134{fill:#F39200;}
	.st135{fill:#5E5957;}
	.st136{fill:#BACFDD;}
	.st137{fill:#DBC6AF;}
	.st138{fill:#B17F4A;}
	.st139{fill:#467A97;}
	.st140{fill:#95C11F;}
	.st141{fill:#1D71B8;}
	.st142{fill:#2FAC66;}
	.st143{fill:#00A19A;}
	.st144{fill:#0B3958;}
	.st145{fill:#3AAA35;}
	.st146{fill:#1B4B64;}
	.st147{fill:none;}
	.st148{fill:#EBD53E;}
	.st149{fill:#EFF0F1;}
	.st150{fill:#F1BE00;}
	.st151{fill:#DFA600;}
	.st152{fill:#DAEEEE;}
	.st153{fill:#E9E7EA;}
	.st154{fill:#DE0B15;}
	.st155{fill:#AA1918;}
	.st156{fill:#76232F;}
	.st157{fill:#DC0C1F;}
	.st158{fill:#DC3015;}
	.st159{fill:#AA7F47;}
	.st160{fill:#DAAC71;}
	.st161{fill:#342D45;}
	.st162{fill:#F6F5F9;}
	.st163{fill:#1B1814;}
	.st164{fill:#E03D13;}
	.st165{fill:#BF2B17;}
	.st166{fill:#F5F0EF;}
	.st167{fill:#F19500;}
	.st168{fill:#D8870D;}
	.st169{fill:#31AD71;}
	.st170{fill:#2F7C55;}
	.st171{fill:#1A1814;}
	.st172{fill:#4B4845;}
	.st173{fill:#FAEEF0;}
	.st174{fill:#D19B09;}
	.st175{fill:#F1D7B5;}
	.st176{fill:#FCFCFD;}
	.st177{fill:#93BEC8;}
	.st178{fill:#D8D3D2;}
	.st179{fill:#4D4843;}
	.st180{fill:#4EABB8;}
	.st181{fill:#383835;}
	.st182{fill:#D5DADB;}
	.st183{fill:#9EBABB;}
	.st184{fill:#B4181C;}
	.st185{fill:#DD6A10;}
	.st186{fill:#F0F0F1;}
	.st187{fill:#753811;}
	.st188{fill:#DB0D1B;}
	.st189{fill:#DA213C;}
	.st190{fill:#BCDBB6;}
	.st191{fill:#9A9999;}
	.st192{fill:#4DA354;}
	.st193{fill:#DBBC9A;}
	.st194{fill:#A48A7B;}
	.st195{fill:#C5C2C2;}
	.st196{fill:#CC1417;}
	.st197{fill:#44403D;}
	.st198{fill:#F8D000;}
	.st199{fill:#974493;}
	.st200{fill:#F0811A;}
	.st201{fill:#58B034;}
	.st202{fill:#5BC4E9;}
	.st203{fill:#F8D71A;}
	.st204{fill:#E52921;}
	.st205{fill:#DDAE76;}
	.st206{fill:#F9DCBB;}
	.st207{fill:#CC6F22;}
	.st208{fill:#9CCDC5;}
	.st209{fill:#49998B;}
	.st210{fill:#9F3148;}
	.st211{fill:#DDA519;}
	.st212{fill:#EDC4A2;}
	.st213{fill:#5F3B17;}
	.st214{fill:#191517;}
	.st215{fill:#D9A67E;}
	.st216{fill:#C47713;}
	.st217{fill:#A91917;}
	.st218{fill:#DBC8CE;}
	.st219{fill:#9C6E80;}
	.st220{fill:#BC738E;}
	.st221{fill:#1E1E1C;}
	.st222{fill:#EAEAEA;}
	.st223{fill:#4E4D4D;}
	.st224{fill:#E7E6E6;}
	.st225{fill:#FED063;}
	.st226{fill:#FCBF0A;}
	.st227{fill:#AA5A9F;}
	.st228{fill:#833081;}
	.st229{fill:#882C87;}
	.st230{fill:#A4B639;}
	.st231{fill:#B9C95E;}
	.st232{fill:#D690BB;}
	.st233{fill:#AB6F97;}
</style>
<g>
	<g>
		<g>
			<path class="st205" d="M213.6,137.7c1.8-1.3,2.9-3.3,2.3-5.6c-0.8-3.1-2.9-4.9-5.4-6.5c-0.2-1.9-1.3-3.6-3.3-4.2
				c-5.1-12.4-5.5-17.9-10.2-18.1c-1.3-2-0.3-0.6-2.7-3.9c2.9-2.3,2.2-7.4-1.8-8.6c-19.3-5.8-15.7-4.8-16.2-4.9
				c-0.4-2.3-2.5-4.5-4.9-4.3c-2,0.2-4.1,0.5-6.1,0.7c-3.6-2.9-14.2-6-21.3-4.4c-2.1-0.9-4.4-0.4-5.9,1.7c-5.8-3-4.5,0.9-19.8,2.2
				c-3.5-3-6.7-0.3-21.1,6.9c-5.4-1.4-7.4,3.4-9.3,7.5c-2.6,0.1-3.8,1.8-5,3.2c-2.3-2.7-6.7-2.4-8.5,1.9c-1.4,3.3-5.5,2-8.7,11.4
				c-3.3,2.1-2,4.2-2.7,9.9c-2.8,1.3-4,4.8-1.8,7.6c-8.4,15.1,0.6,17.6-1.6,21.8c-2.2,4.1-3.2,8.2-0.4,15.9
				c13.1,35.5,7.8,41.5,17.9,42.1c1.3,1.9,4.3,2.8,6.3,2.7c0,0.1,3.8,3.4,6.7,3.7c1,1.9,2.4,3.2,11.2,6c0.2,1.8,1.3,3.5,3.5,3.8
				c3.1,0.4,5.6,0.8,7.6,1.2c-0.2,1-0.4,2.1-0.5,3.2c-1.5,12.9-0.9,24.3,11.4,28.1c-0.8,13,15,13.7,17.4,4.7c0.6-2.1,5.9-2,6.4-2.2
				c-0.5,10.5,10.6,8.5,13.1,5.6c2.2-2.7,1.7-9.4,1.4-10.5c8.4-4.3,9.8-11,8.3-18.8c3,2.4,2.2,9.8,2.6,12.8
				c0.7,4.5,2.7,9.5,6.4,12.4c3.1,2.5,7.9,3.8,11.8,3.1c1.4-0.2,2.6-0.8,3.5-1.4c0.2,0.2,0.5,0.4,0.8,0.5c1.3,0.5,2.6,1.1,3.9,1.6
				c1.5,0.6,2.9-0.5,3.3-1.8c0.9-0.4,1.5-1.3,1.6-2.5c0-0.6,0-1.1-0.2-1.7c0.1-0.6,0-1.3-0.3-1.9c1.3-1.8-0.5-4-2.6-4.1
				c-0.2-0.6-0.6-1.1-1-1.5c-0.3-0.6-0.9-1.1-1.7-1.3c-0.4-0.1-0.7-0.2-1.1-0.3c-0.9-0.3-1.7,0-2.3,0.4c-1.4-0.2-2.8,0.5-3.1,2
				c-0.3,1.6-0.4,3.6,0.2,5.2c-0.1,0.2-0.3,0.4-0.4,0.5c-1.4,1.3-3.7,0.8-5.3,0.4c-4.7-1.2-6.9-5.2-7.8-9.7c-0.9-4.3,0-8.9-2-13
				c-1.6-3.4-4.3-5.5-8-6c-0.8-2.6-1.8-5.2-2.8-7.9c1.5-0.6,1.8-0.8,2.8-1.7c2.4-1.1,5.3-2.9,8.9-6.3c4.3,2.4,5.6-0.4,20.9-15
				c2.9,0.9,6.2-1.9,6-4.8c-0.1-1-0.1-2-0.1-2.9c7.3,2.9,8.4-6.9,11.6-30.5C217.5,148.7,210.1,140.3,213.6,137.7z"/>
			<g>
				<g>
					<path class="st206" d="M178.1,123.4c-5.1-2.6-10.3,1.7-10.6,3.1c-1.1,1.2,1.1,8,5.8,10.5c3.2,1.8,7.8,0.7,9.1-3
						C183.7,130.1,181.8,125.3,178.1,123.4z"/>
					<path class="st206" d="M101.6,129.1c-0.4-2.4-6.7-4.6-11.4-1.5c-7.1,4.7-0.7,17.8,5.7,14.4C101,139.3,103.3,129.9,101.6,129.1z
						"/>
				</g>
			</g>
			<path class="st207" d="M213.6,137.7c1.8-1.3,2.9-3.3,2.3-5.6c-0.8-3.1-2.9-4.9-5.4-6.5c-0.2-1.9-1.3-3.6-3.3-4.2
				c-5.1-12.4-5.5-17.9-10.2-18.1c-1.3-2-0.3-0.6-2.7-3.9c2.9-2.3,2.2-7.4-1.8-8.6c-19.3-5.8-15.7-4.8-16.2-4.9
				c-0.4-2.3-2.5-4.5-4.9-4.3c-2,0.2-4.1,0.5-6.1,0.7c-3.6-2.9-14.2-6-21.3-4.4c-2.1-0.9-4.4-0.4-5.9,1.7c-5.8-3-4.5,0.9-19.8,2.2
				c-3.5-3-6.7-0.3-21.1,6.9c-5.4-1.4-7.4,3.4-9.3,7.5c-2.6,0.1-3.8,1.8-5,3.2c-2.3-2.7-6.7-2.4-8.5,1.9c-1.4,3.3-5.5,2-8.7,11.4
				c-3.3,2.1-2,4.2-2.7,9.9c-2.8,1.3-4,4.8-1.8,7.6c-8.4,15.1,0.6,17.6-1.6,21.8c-2.2,4.1-3.2,8.2-0.4,15.9
				c13.1,35.5,7.8,41.5,17.9,42.1c1.3,1.9,4.3,2.8,6.3,2.7c0,0.1,3.8,3.4,6.7,3.7c1,1.9,2.4,3.2,11.2,6c0.2,1.8,1.3,3.5,3.5,3.8
				c3.3,0.5,5.9,0.9,8.1,1.3c1.1,0.5,2.4,0.8,3.9,0.8c6.9,1.6,8.7,2.4,25.4,0.8c0.8,0.2,1.6,0.3,2.4,0.4c1.4,0,2.6-0.1,3.6-0.4
				c2.2,1.4,5.4,1.1,7.1-1.5c0.2-0.4,0.5-0.7,0.7-1c0.6,0,1.2-0.1,1.7-0.3c9.3-3.7,8.8-3.1,10.7-4.7c2.4-1.1,5.3-2.9,8.9-6.3
				c4.3,2.4,5.6-0.4,20.9-15c2.9,0.9,6.2-1.9,6-4.8c-0.1-1-0.1-2-0.1-2.9c7.3,2.9,8.4-6.9,11.6-30.5
				C217.5,148.7,210.1,140.3,213.6,137.7z M185.3,133.7c-1,4-4.6,7.3-8.6,7.6c1.7,4.7,2.7,9.8,2.7,15.1c0,55.6-87.7,56.6-87.7,0
				c0-3.9,0.5-7.6,1.5-11.2c-4.7,0.9-9.5-2.9-10.7-7.5c-1.1-4.7,0.9-9.7,4.2-13.2c0.8-0.8,1.6-1.5,2.6-1.9c1.1-0.5,2.4-0.5,3.6-0.5
				c2.2-0.1,4.4-0.1,6.5,0.7c1.8,0.7,3.5,2.1,4,3.9c8-8.6,19.5-14.1,32.2-14.1c11,0,21,4,28.7,10.7c0.4-2.1,2.2-3.7,4.2-4.5
				c2-0.8,4.3-0.8,6.5-0.7c1.2,0,2.5,0.1,3.6,0.5c1,0.4,1.8,1.1,2.6,1.9C184.4,124,186.5,129,185.3,133.7z"/>
		</g>
		<g>
			<g>
				<ellipse cx="111.4" cy="157.8" rx="2.8" ry="4.2"/>
				<ellipse cx="162" cy="157.8" rx="2.8" ry="4.2"/>
			</g>
			<path d="M144.6,166.5c-13.7-2-27.5,1.1-15.2,10.7c2.1,1.6,4.3,2.2,6.5,2.3c-0.1,2.8-0.1,5.7,0,8.5c0,0,0,0,0,0
				c-0.8-0.1-1.6-0.5-2.3-1c-0.8-0.7-2,0.5-1.2,1.2c2.3,1.9,5.4,2.2,7.9,0.5c0.9-0.6,0.1-2.1-0.9-1.5c-0.6,0.4-1.3,0.7-1.9,0.8
				c0,0,0,0,0,0c-0.1-2.9-0.1-5.7,0-8.6C146.5,178.4,153.7,167.8,144.6,166.5z"/>
		</g>
		<path class="st208" d="M197.4,79.4c-31.8,3.7-24.4,8-5.8,30.1c9,10.7,10.4,15,18.1,0.8C225.7,80.9,234.2,75.1,197.4,79.4z"/>
		<path class="st209" d="M237.6,76.6c-0.1-1.2-0.9-2.5-2.1-2.8c0.1-0.1,0.1-0.3,0.2-0.5c0.1-0.4,0.2-0.8,0.2-1.2
			c0.1-0.7-0.4-1.5-0.8-2c-0.5-0.5-1.3-0.9-2-0.8c-0.2,0-0.3,0-0.5,0.1c0-0.3,0-0.5-0.1-0.8c-0.2-0.7-0.7-1.4-1.3-1.7
			c-0.7-0.3-1.4-0.5-2.2-0.3c-0.1,0-0.1,0-0.1,0.1c-0.3-0.7-1-1.3-1.8-1.5c-0.5-0.1-1.1-0.1-1.5,0c0,0,0,0-0.1,0
			c-1.4-0.7-3-0.3-3.8,1c-0.4,0.6-0.7,1.3-0.9,2c-1.3-0.9-3.6-0.3-4.3,1.2c-0.7-0.2-1.4-0.1-2.1,0.3c-1.3,0.8-1.8,2.5-1,3.8
			c0,0,0,0,0,0c-0.3,0.1-0.6,0.2-0.8,0.3c-0.6,0.3-1.1,1-1.3,1.7c-0.3,1.4,0.4,3.2,2,3.5c0,0,0.1,0,0.1,0c-0.3,1.3,0.3,2.7,2,3
			c0.4,0.1,0.7,0.1,1.1,0.2c0.1,0.2,0.2,0.4,0.3,0.6c0,0,0,0,0,0c-0.7,2.3,2.1,4.4,4,3.3c0.4,2.5,3.3,3.2,5,1.4
			c1.4,0.9,3.6-0.1,4.2-1.7c0.1-0.1,0.1-0.3,0.1-0.4c0.1,0,0.2,0,0.3,0.1c1.4,0.2,3.1-0.4,3.5-2c0.1-0.2,0.1-0.5,0.1-0.8
			c1.3-0.2,2.3-1.5,2.3-2.8c0-0.3-0.1-0.6-0.2-0.9c0.3-0.1,0.5-0.3,0.8-0.5C237.3,78.1,237.6,77.3,237.6,76.6z"/>
	</g>
	<g>
		<g>
			<g>
				<path class="st205" d="M372.2,235.4c1.8-1.3,2.9-3.3,2.3-5.6c-0.8-3.1-2.9-4.9-5.4-6.5c-0.2-1.9-1.3-3.6-3.3-4.2
					c-5.1-12.4-5.5-17.9-10.2-18.1c-1.3-2-0.3-0.6-2.7-3.9c2.9-2.3,2.2-7.4-1.8-8.6c-19.3-5.8-15.7-4.8-16.2-4.9
					c-0.4-2.3-2.5-4.5-4.9-4.3c-2,0.2-4.1,0.5-6.1,0.7c-3.6-2.9-14.2-6-21.3-4.4c-2.1-0.9-4.4-0.4-5.9,1.7c-5.8-3-4.5,0.9-19.8,2.2
					c-3.5-3-6.7-0.3-21.1,6.9c-5.4-1.4-7.4,3.4-9.3,7.5c-2.6,0.1-3.8,1.8-5,3.2c-2.3-2.7-6.7-2.4-8.5,1.9c-1.4,3.3-5.5,2-8.7,11.4
					c-3.3,2.1-2,4.2-2.7,9.9c-2.8,1.3-4,4.8-1.8,7.6c-8.4,15.1,0.6,17.6-1.6,21.8c-2.2,4.1-3.2,8.2-0.4,15.9
					c13.1,35.5,7.8,41.5,17.9,42.1c1.3,1.9,4.3,2.8,6.3,2.7c0,0.1,3.8,3.4,6.7,3.7c1,1.9,2.4,3.2,11.2,6c0.2,1.8,1.3,3.5,3.5,3.8
					c3.1,0.4,5.6,0.8,7.6,1.2c-0.2,1-0.4,2.1-0.5,3.2c-1.5,12.9-0.9,24.3,11.4,28.1c-0.8,13,15,13.7,17.4,4.7c0.6-2.1,5.9-2,6.4-2.2
					c-0.5,10.5,10.6,8.5,13.1,5.6c2.2-2.7,1.7-9.4,1.4-10.5c8.4-4.3,9.8-11,8.3-18.8c3,2.4,2.2,9.8,2.6,12.8
					c0.7,4.5,2.7,9.5,6.4,12.4c3.1,2.5,7.9,3.8,11.8,3.1c1.4-0.2,2.6-0.8,3.5-1.4c0.2,0.2,0.5,0.4,0.8,0.5c1.3,0.5,2.6,1.1,3.9,1.6
					c1.5,0.6,2.9-0.5,3.3-1.8c0.9-0.4,1.5-1.3,1.6-2.5c0-0.6,0-1.1-0.2-1.7c0.1-0.6,0-1.3-0.3-1.9c1.3-1.8-0.5-4-2.6-4.1
					c-0.2-0.6-0.6-1.1-1-1.5c-0.3-0.6-0.9-1.1-1.7-1.3c-0.4-0.1-0.7-0.2-1.1-0.3c-0.9-0.3-1.7,0-2.3,0.4c-1.4-0.2-2.8,0.5-3.1,2
					c-0.3,1.6-0.4,3.6,0.2,5.2c-0.1,0.2-0.3,0.4-0.4,0.5c-1.4,1.3-3.7,0.8-5.3,0.4c-4.7-1.2-6.9-5.2-7.8-9.7c-0.9-4.3,0-8.9-2-13
					c-1.6-3.4-4.3-5.5-8-6c-0.8-2.6-1.8-5.2-2.8-7.9c1.5-0.6,1.8-0.8,2.8-1.7c2.4-1.1,5.3-2.9,8.9-6.3c4.3,2.4,5.6-0.4,20.9-15
					c2.9,0.9,6.2-1.9,6-4.8c-0.1-1-0.1-2-0.1-2.9c7.3,2.9,8.4-6.9,11.6-30.5C376.2,246.4,368.7,238,372.2,235.4z"/>
				<g>
					<g>
						<path class="st206" d="M336.7,221.1c-5.1-2.6-10.3,1.7-10.6,3.1c-1.1,1.2,1.1,8,5.8,10.5c3.2,1.8,7.8,0.7,9.1-3
							C342.3,227.8,340.4,223,336.7,221.1z"/>
						<path class="st206" d="M260.3,226.8c-0.4-2.4-6.7-4.6-11.4-1.5c-7.1,4.7-0.7,17.8,5.7,14.4
							C259.7,237.1,261.9,227.7,260.3,226.8z"/>
					</g>
				</g>
				<path class="st207" d="M372.2,235.4c1.8-1.3,2.9-3.3,2.3-5.6c-0.8-3.1-2.9-4.9-5.4-6.5c-0.2-1.9-1.3-3.6-3.3-4.2
					c-5.1-12.4-5.5-17.9-10.2-18.1c-1.3-2-0.3-0.6-2.7-3.9c2.9-2.3,2.2-7.4-1.8-8.6c-19.3-5.8-15.7-4.8-16.2-4.9
					c-0.4-2.3-2.5-4.5-4.9-4.3c-2,0.2-4.1,0.5-6.1,0.7c-3.6-2.9-14.2-6-21.3-4.4c-2.1-0.9-4.4-0.4-5.9,1.7c-5.8-3-4.5,0.9-19.8,2.2
					c-3.5-3-6.7-0.3-21.1,6.9c-5.4-1.4-7.4,3.4-9.3,7.5c-2.6,0.1-3.8,1.8-5,3.2c-2.3-2.7-6.7-2.4-8.5,1.9c-1.4,3.3-5.5,2-8.7,11.4
					c-3.3,2.1-2,4.2-2.7,9.9c-2.8,1.3-4,4.8-1.8,7.6c-8.4,15.1,0.6,17.6-1.6,21.8c-2.2,4.1-3.2,8.2-0.4,15.9
					c13.1,35.5,7.8,41.5,17.9,42.1c1.3,1.9,4.3,2.8,6.3,2.7c0,0.1,3.8,3.4,6.7,3.7c1,1.9,2.4,3.2,11.2,6c0.2,1.8,1.3,3.5,3.5,3.8
					c3.3,0.5,5.9,0.9,8.1,1.3c1.1,0.5,2.4,0.8,3.9,0.8c6.9,1.6,8.7,2.4,25.4,0.8c0.8,0.2,1.6,0.3,2.4,0.4c1.4,0,2.6-0.1,3.6-0.4
					c2.2,1.4,5.4,1.1,7.1-1.5c0.2-0.4,0.5-0.7,0.7-1c0.6,0,1.2-0.1,1.7-0.3c9.3-3.7,8.8-3.1,10.7-4.7c2.4-1.1,5.3-2.9,8.9-6.3
					c4.3,2.4,5.6-0.4,20.9-15c2.9,0.9,6.2-1.9,6-4.8c-0.1-1-0.1-2-0.1-2.9c7.3,2.9,8.4-6.9,11.6-30.5
					C376.2,246.4,368.7,238,372.2,235.4z M343.9,231.4c-1,4-4.6,7.3-8.6,7.6c1.7,4.7,2.7,9.8,2.7,15.1c0,55.6-87.7,56.6-87.7,0
					c0-3.9,0.5-7.6,1.5-11.2c-4.7,0.9-9.5-2.9-10.7-7.5c-1.1-4.7,0.9-9.7,4.2-13.2c0.8-0.8,1.6-1.5,2.6-1.9c1.1-0.5,2.4-0.5,3.6-0.5
					c2.2-0.1,4.4-0.1,6.5,0.7c1.8,0.7,3.5,2.1,4,3.9c8-8.6,19.5-14.1,32.2-14.1c11,0,21,4,28.7,10.7c0.4-2.1,2.2-3.7,4.2-4.5
					c2-0.8,4.3-0.8,6.5-0.7c1.2,0,2.5,0.1,3.6,0.5c1,0.4,1.8,1.1,2.6,1.9C343,221.7,345.1,226.8,343.9,231.4z"/>
			</g>
		</g>
		<g>
			<g>
				<path class="st210" d="M316.9,184.3c-17.1-39.7-16.3-53-41.3-12.1c-21.6,35.4-11.3,31.2,26.1,29.9
					C319.6,201.5,325.2,203.5,316.9,184.3z"/>
				<path class="st211" d="M307.9,143.8c0.1-0.1,0.2-0.2,0.3-0.3c1.4-1.3,2.1-3.5,0.8-5.1c-0.2-0.3-0.5-0.5-0.7-0.7
					c0.8-1.5,0.3-3.6-1-4.6c-0.4-0.3-0.7-0.4-1.1-0.6c0.1-0.4,0.1-0.8,0.1-1.2c-0.1-0.9-0.6-1.9-1.4-2.4c-1.2-0.9-3.3-1.1-4.5,0
					c-0.1-0.2-0.2-0.4-0.3-0.6c-0.3-0.5-0.7-0.8-1.1-1.2c-0.6-0.6-1.9-0.8-2.7-0.7c-0.9,0.1-1.9,0.6-2.4,1.4
					c-0.1,0.2-0.2,0.4-0.3,0.6c-0.3-0.2-0.6-0.4-0.9-0.5c-0.8-0.3-1.9-0.4-2.7,0c-0.9,0.4-1.7,1.1-2,2c0,0.1,0,0.1-0.1,0.2
					c-1-0.2-2.1,0-2.9,0.6c-0.6,0.4-1,1-1.2,1.6c0,0-0.1,0-0.1,0c-1.9,0.8-2.7,2.8-2,4.7c0.3,0.9,0.8,1.8,1.3,2.5
					c-2,0.6-3.2,3.4-2.2,5.4c-0.7,0.6-1.3,1.4-1.3,2.3c-0.2,2,1.1,3.8,3.1,4.1c0,0,0,0,0.1,0c-0.2,0.3-0.3,0.7-0.4,1.1
					c-0.1,0.9,0.1,2,0.7,2.7c1.2,1.4,3.6,2.1,5.1,0.8c0,0,0.1-0.1,0.1-0.1c1.1,1.3,3,1.9,4.6,0.4c0.4-0.3,0.7-0.6,1.1-1
					c0.3,0.1,0.6,0.2,0.9,0.2c0,0,0,0,0,0c1.8,2.6,6.1,1.4,6.5-1.5c2.9,1.6,5.9-0.8,5.3-4c2.1-0.7,2.8-3.7,1.6-5.7
					C308.1,144.1,308,144,307.9,143.8z"/>
			</g>
		</g>
		<g>
			<path d="M295.3,262.9c-6.2,0-11.1,3.4-11.1,7.6c0,3.8,4.2,7,9.6,7.5c0.1,1.6,0.4,3.8-0.3,4.8c-5.8,2-6.1,6.4,1.2,2.4
				c0,0,3.4,1.5,5.4,1.6c0.3,0,4.1-0.8-4-3.8c0-0.3,0-0.2,0-4.9C310.4,277.3,309.5,262.9,295.3,262.9z"/>
			<g>
				<ellipse cx="270" cy="255.5" rx="2.8" ry="4.2"/>
				<ellipse cx="320.6" cy="255.5" rx="2.8" ry="4.2"/>
			</g>
		</g>
	</g>
</g>
</svg>
