<?xml version="1.0" encoding="utf-8"?>
<!-- Generator: Adobe Illustrator 22.0.0, SVG Export Plug-In . SVG Version: 6.00 Build 0)  -->
<svg version="1.1" id="Calque_1" xmlns="http://www.w3.org/2000/svg" xmlns:xlink="http://www.w3.org/1999/xlink" x="0px" y="0px"
	 viewBox="0 0 432 432" style="enable-background:new 0 0 432 432;" xml:space="preserve">
<style type="text/css">
	.st0{fill:#E5DAC7;}
	.st1{fill:#FAF3E3;}
	.st2{fill:#C7B29A;}
	.st3{fill:#972021;}
	.st4{fill:#E9EAE4;}
	.st5{fill:#8C633A;}
	.st6{fill:#F39323;}
	.st7{fill:#ED6F71;}
	.st8{fill:#FFFFFF;}
	.st9{fill:#B6CE3F;}
	.st10{fill:#95AF23;}
	.st11{fill:#18B0C1;}
	.st12{fill:#C2E1D1;}
	.st13{fill:#9F1E29;}
	.st14{fill:#E6E9EA;}
	.st15{fill:#020203;}
	.st16{fill:#4D9564;}
	.st17{fill:#754D24;}
	.st18{fill:#A67D52;}
	.st19{fill:#F0D2B5;}
	.st20{fill:#E1BC9E;}
	.st21{fill:#97509A;}
	.st22{fill:#603914;}
	.st23{fill:#E83078;}
	.st24{fill:#E89125;}
	.st25{fill:#89BF4A;}
	.st26{fill:#82171C;}
	.st27{fill:#6CC2EE;}
	.st28{fill:#1861A9;}
	.st29{fill:#E00825;}
	.st30{fill:#109F3D;}
	.st31{fill:#808181;}
	.st32{fill:#D79A5D;}
	.st33{fill:#C68448;}
	.st34{fill:#D62416;}
	.st35{fill:#F9D61D;}
	.st36{fill:#A9191E;}
	.st37{fill:#F3E4E7;}
	.st38{fill:none;}
	.st39{fill:#E8CAA3;}
	.st40{fill:#64121D;}
	.st41{fill:#15A57E;}
	.st42{fill:#167157;}
	.st43{fill:#CF8916;}
	.st44{fill:#B26F14;}
	.st45{fill:#901D81;}
	.st46{fill:#612261;}
	.st47{fill:#B88E5C;}
	.st48{fill:#EBDCC8;}
	.st49{fill:#F3A0BE;}
	.st50{fill:#FAD7E3;}
	.st51{fill:#EAD797;}
	.st52{fill:#E18CAC;}
	.st53{fill:#A8D9DD;}
	.st54{fill:#67C2C6;}
	.st55{fill:#4EADAD;}
	.st56{fill:#CDCCCC;}
	.st57{fill:#D4C3B3;}
	.st58{fill:#CAB9A7;}
	.st59{fill:#C69C6C;}
	.st60{fill:#D7C5B3;}
	.st61{fill:#96877C;}
	.st62{fill:#EFE8E9;}
	.st63{fill:#B4B4B4;}
	.st64{fill:#F0CC53;}
	.st65{fill:#EE7D54;}
	.st66{fill:#F5D29D;}
	.st67{fill:#5D403F;}
	.st68{fill:#F9CBCC;}
	.st69{fill:#F6DEB8;}
	.st70{fill:#D6A14D;}
	.st71{fill:#B09878;}
	.st72{fill:#C1292E;}
	.st73{fill:#5B4841;}
	.st74{fill:#E0C399;}
	.st75{fill:#EBDA8C;}
	.st76{fill:#363A3D;}
	.st77{fill:#BFC1D7;}
	.st78{fill:#7188BA;}
	.st79{fill:#A34F4D;}
	.st80{fill:#D9CD7A;}
	.st81{fill:#D9AF66;}
	.st82{fill:#E6C776;}
	.st83{fill:#575756;}
	.st84{fill:#C3BF5B;}
	.st85{fill:#63622A;}
	.st86{fill:#E1AE9D;}
	.st87{fill:#D9C7AB;}
	.st88{fill:#B3625C;}
	.st89{fill:#D4BB78;}
	.st90{fill:#009245;}
	.st91{fill:#0B7B3A;}
	.st92{fill:#911A29;}
	.st93{fill:#571419;}
	.st94{fill:#9A9999;}
	.st95{fill:#A81922;}
	.st96{fill:#A3282E;}
	.st97{fill:#B3713B;}
	.st98{fill:#998675;}
	.st99{fill:#6189B1;}
	.st100{fill:#E0EDF3;}
	.st101{fill:#A5C0DF;}
	.st102{fill:#DBDBDB;}
	.st103{fill:#067838;}
	.st104{fill:#E5AEBF;}
	.st105{fill:#9982BC;}
	.st106{fill:#E7E6E6;}
	.st107{fill:#706F6F;}
	.st108{fill:#746458;}
	.st109{fill:#412413;}
	.st110{fill:#544842;}
	.st111{fill:#DAA405;}
	.st112{fill:#D06C5D;}
	.st113{fill:#8C694B;}
	.st114{fill:#C8C8CE;}
	.st115{fill:#D286A7;}
	.st116{fill:#C6CCCC;}
	.st117{fill:#A65F42;}
	.st118{fill:#343434;}
	.st119{fill:#A56E45;}
	.st120{fill:#F2F2F2;}
	.st121{fill:#8AC18A;}
	.st122{fill:#4B6678;}
	.st123{fill:#324C5B;}
	.st124{fill:#97AFBC;}
	.st125{fill:#B27D63;}
	.st126{fill:#6A737A;}
	.st127{fill:#72403F;}
	.st128{fill:#8D7968;}
	.st129{fill:#1B1B1B;}
	.st130{fill:#6B141A;}
	.st131{fill:#E4DCCC;}
	.st132{fill:#B33949;}
	.st133{fill:#6D141B;}
	.st134{fill:#911825;}
	.st135{fill:#821622;}
	.st136{fill:#1F1D1D;}
	.st137{fill:#CC1417;}
	.st138{fill:#69362D;}
	.st139{fill:#ECC9AE;}
	.st140{fill:#471E19;}
	.st141{fill:#2B1D1C;}
	.st142{fill:#BE1622;}
	.st143{fill:#E6332A;}
	.st144{fill:#D8EAF8;}
	.st145{fill:#D4AE8E;}
	.st146{fill:#883B4C;}
	.st147{fill:#C74A54;}
	.st148{fill:#F2959C;}
	.st149{fill:#3C3C3B;}
</style>
<g>
	<g>
		<path class="st99" d="M95.5,165.8c0.2-1.9,0.3-3.9,0.5-5.8c0.7-5.6,1.7-11,4.2-16.1c1.6-3.5,3.8-6.6,6.5-9.2
			c1.4-1.4,2.9-2.5,4.7-3.3c4-1.8,7.9-1,10.9,2.1c1.8,1.8,2.8,4,3.6,6.4c1,3,1.4,6,1.5,9.1c0.2,4.8-0.2,9.5-0.9,14.2
			c-1,7.2-2.3,14.5-3.3,21.7c-0.7,4.9-1.2,9.8-1.6,14.7c-0.3,3.2-0.3,6.4-0.5,9.6c-0.1,1.4,0.1,2.8,0.6,4.1c0.9,2.3,1.7,4.6,2.5,7
			c0.2,0.5,0.2,1.1,0.2,1.7c-0.1,0.9-1.1,1.4-2,1c-0.5-0.2-1-0.6-1.4-1c-2.8-2.4-5.6-4.8-8.4-7.1c-0.4-0.4-0.9-0.7-1.4-1
			c-4.8-3.3-9.7-6.6-14.5-10c-6.3-4.5-12.1-9.7-17.4-15.4c-7.4-8-12.7-17.1-15.9-27.5c-1-3.3-1.9-6.7-2.1-10.2c-0.1-2.5,0-5,0.8-7.3
			c1.6-4.9,5.6-7,10.6-5.6c1.9,0.5,3.5,1.5,5,2.6c3.1,2.3,5.7,5.1,7.9,8.2c2.8,3.9,5.1,8.1,7.3,12.4c0.8,1.6,1.6,3.3,2.4,4.9
			C95.4,165.8,95.4,165.8,95.5,165.8z"/>
		<path class="st100" d="M65.1,198.4c3.6,0.1,7,0.9,10.4,1.9c4,1.2,7.8,2.6,11.5,4.4c5.2,2.6,10.4,5.2,15.6,7.9
			c3.9,2.1,7.6,4.4,11.2,7c0.3,0.2,0.5,0.4,0.7,0.6c0.4,0.4,0.5,0.9,0.2,1.4c-0.3,0.5-0.7,0.7-1.3,0.7c-0.4,0-0.9-0.2-1.3-0.3
			c-1.8-0.7-3.7-1.4-5.5-2.2c-4.8-1.9-9.6-3.7-14.5-5c-4.8-1.2-9.6-2.1-14.5-2.3c-2.8-0.1-5.7-0.2-8.5-0.4c-3.4-0.2-6.7-0.6-9.9-1.9
			c-1.4-0.5-2.6-1.2-3.7-2.3c-2.1-2.1-1.9-5.1,0.4-7c1.4-1.2,3.1-1.7,4.9-2.1C62.2,198.7,63.6,198.6,65.1,198.4z"/>
		<path class="st101" d="M124,206.9c0-6.3,0.9-12.4,3.3-18.3c1.2-2.8,2.7-5.5,4.8-7.8c1-1.2,2.2-2.2,3.6-3c1.1-0.6,2.3-0.9,3.6-0.8
			c1.8,0.1,3.2,1.2,3.7,3c0.3,1.2,0.2,2.5-0.2,3.7c-0.6,1.7-1.3,3.3-2.1,4.9c-2.5,4.7-5.1,9.4-7.6,14.1c-1.3,2.5-2.5,5-3.5,7.6
			c-0.6,1.6-0.9,3.3-1.3,5c-0.1,0.3-0.1,0.6-0.2,0.9c-0.2,0.6-0.5,1-1.1,1.1c-0.6,0.1-1.2,0-1.6-0.5c-0.3-0.3-0.5-0.8-0.6-1.2
			c-0.2-0.8-0.4-1.6-0.4-2.5C124.1,211,124.1,208.9,124,206.9z"/>
	</g>
	<g>
		<g>
			<path class="st63" d="M292.5,95.2c18.9,0.1,36,3.9,52.2,11.7c7.7,3.7,14.7,8.5,20.7,14.6c4.6,4.6,8.5,9.7,11.1,15.7
				c0.6,1.3,1.1,2.7,1.3,4.1c0.8,4-2,7.3-6,7.5c-2.1,0.1-4.1-0.3-6.1-1c-3.1-1.1-6.1-2.3-9.2-3.5c-4.4-1.7-8.8-3.2-13.5-3.9
				c-2-0.3-3.9-0.3-5.9,0c-2.9,0.6-4.8,2.3-6,4.9c-0.8,1.8-1.1,3.8-1.3,5.7c-0.4,3.8-0.2,7.6,0.3,11.4c0.2,1.8,0.3,3.6,0.4,5.3
				c0.1,1.3-0.4,2.4-0.9,3.6c-0.9,1.8-2.7,2.2-4.2,0.8c-0.7-0.6-1.2-1.5-1.6-2.3c-5.6-12.1-11.9-23.8-18.9-35.1
				c-3.5-5.6-7.5-10.8-12.2-15.6c-3.8-3.8-8.1-6.9-12.7-9.6c-3.8-2.2-7.7-4.3-11.7-6.1c-0.5-0.2-1-0.5-1.4-0.8
				c-0.7-0.5-1.3-1.2-1.1-2.2c0.2-1,0.8-1.5,1.7-1.8c1.7-0.5,3.4-1,5.1-1.4c4.4-1,8.9-1.8,13.5-2C288.6,95.3,291,95.3,292.5,95.2z"
				/>
			<path class="st63" d="M200,342.5c-6.1,0-11.2-0.6-16.2-1.8c-1.6-0.4-3.1-1-4.6-1.5c-1.2-0.4-2.2-1.1-3.1-2
				c-1.4-1.5-1.6-3.2-0.6-5c0.6-1.1,1.6-2,2.7-2.5c1.4-0.7,2.9-1.4,4.4-1.9c3.4-1.1,6.7-2.5,10-4.1c1.9-0.9,3.8-1.7,5.7-2.5
				c2.1-1,4.2-1,6.4-0.5c3,0.7,6,1.4,9,2c3,0.6,6,1,9.1,1.2c1.7,0.1,3.5,0.5,5.2,0.6c2.4,0.1,4.8,0,7.2,0c0.5,0,1.1,0,1.6,0.2
				c1.8,0.5,2.2,2.1,0.9,3.4c-1,1-2,1.9-3.2,2.7c-6.8,4.5-14,8-22,10C208.1,341.9,203.6,342.6,200,342.5z"/>
			<path class="st63" d="M234.4,248.6c-7.2-0.3-14.2-1-21-3.5c-2.4-0.9-4.6-2-6.7-3.5c-1.4-1-2.6-2.2-3.4-3.7
				c-1.3-2.3-1.1-4.6,0.5-6.6c1.1-1.4,2.5-2.5,4.1-3.2c1.5-0.6,2.9-1.3,4.5-1.7c7.4-2.1,14.1-5.6,20.6-9.7c2.1-1.4,4.2-2.7,6.4-4
				c1.5-0.9,3.1-1.6,4.8-2c1.8-0.4,3.4,0.3,4.3,1.9c1.2,2.2,2.1,4.6,2.6,7c1.6,8,0.1,15.5-4.1,22.4c-1.2,1.9-2.7,3.6-4.5,4.8
				c-1.8,1.2-3.8,1.9-6,1.9C235.8,248.6,235.1,248.6,234.4,248.6z"/>
		</g>
		<g>
			<path class="st56" d="M336.5,217.5c-1.6,21.9-7.1,42.6-17.7,61.9c-3.7,6.7-7.8,13-12.9,18.7c-9.6,10.6-21.1,18.6-34.7,23.5
				c-8.4,3-17.1,5.2-26,6.2c-6.7,0.7-13.4,0.9-20.1,0.5c-14.4-0.8-28.6-3.4-42.1-8.7c-12.5-4.9-23.9-11.6-33.8-20.8
				c-6.2-5.8-11.1-12.6-15.1-20.1c-2.9-5.4-5.9-10.7-9.1-15.9c-0.6-0.9-1.2-1.8-1.8-2.6c-0.5-0.6-1.2-1.2-1.8-1.7
				c-0.7-0.6-1.6-0.8-2.6-0.8c-11.3,0.2-20.9-3.5-28.6-11.9c-1.6-1.7-3-3.7-4.4-5.6c-1.5-2.1-3-4.2-4.4-6.4
				c-1.2-1.7-2.1-3.6-2.5-5.6c0-0.2-0.1-0.4-0.1-0.5c-0.6-4,2.3-5.9,5.4-5.5c1.5,0.2,2.9,0.6,4.3,1.1c2.1,0.7,4.1,1.5,6.1,2.4
				c2.2,0.9,4.4,1,6.8,0.5c4.6-1,9.3-0.7,13.9,0.4c3.5,0.8,6.2,2.8,8.2,5.8c0.3,0.4,0.5,0.8,1,1.5c0.8-3.1,1.8-5.8,3.2-8.4
				c2.4-4.4,5.9-7.7,10.6-9.7c1.3-0.5,2.7-1,4-1.5c0.7-0.3,1.5-0.5,2.2-0.8c2.4-0.9,4.3-2.4,5.8-4.5c0.7-1,1.6-2,2.4-3
				c0.6-0.7,1.4-1.2,2.3-1.3c1.4-0.1,2.5,0.4,3.1,1.7c0.6,1.3,0.8,2.8,0.9,4.2c0.1,6.1-1,12-3.4,17.7c-1.4,3.2-3.1,6.2-5.1,9.2
				c-0.7,1-1.3,2.1-2,3.1c-1.1,1.8-1.4,3.8-1.1,5.7c0.1,0.5,0.3,1.1,0.4,1.6c0.9,2.4,2.2,4.4,4.4,6c6.2,4.5,12.7,8.5,20.1,11
				c4.3,1.4,8.6,2.7,13.1,3.3c10,1.4,19.7,0.3,29-3.7c3.8-1.6,7.6-3.1,11.2-5.2c8.1-4.8,14.9-11,19.7-19.3c1.9-3.3,3.2-6.7,3.7-10.5
				c0.3-2.7,0.2-5.3-0.1-8c-0.4-3.2-1.1-6.3-2.5-9.2c-0.8-1.6-1.9-2.8-3.3-3.9c-1-0.8-2.3-0.9-3.5-1c-0.6,0-1.2,0-1.9-0.1
				c-1.6-0.1-3-0.5-3.7-2.1c-1.1,0-2.2,0.1-3.2,0c-4.3-0.5-6.6-3-6.8-7.3c0-0.3,0-0.6-0.1-1.1c-0.4,0.3-0.6,0.4-0.9,0.6
				c-6.3,5.4-13.7,8.3-21.8,9.7c-2.1,0.4-4.3,0.6-6.5,0.6c-5.4-0.1-10.6-1.1-15.4-3.7c-1.5-0.8-2.9-1.8-4.1-3
				c-2.6-2.6-3.3-5.7-2.4-9.2c0.7-2.9,2.1-5.4,3.9-7.8c2.2-3,4.7-5.5,7.6-7.8c1.7-1.4,3.5-2.8,5.2-4.2c0.2-0.2,0.4-0.4,0.6-0.7
				c-0.4,0.2-0.9,0.3-1.3,0.5c-4,1.7-8.1,3-12.3,3.7c-6.3,1.1-12.6,0.7-18.5-1.8c-0.9-0.4-1.7-0.8-2.5-1.3
				c-4.6-2.8-6.5-7.2-5.3-12.4c1.2-5.3,4.2-9.5,8.6-12.6c1.3-0.9,2.8-1.7,4.2-2.5c0.3-0.2,0.6-0.3,0.8-0.4c0,0,0,0,0,0
				c-0.2-1.4-0.2-2.8-0.1-4.1c0,0,0,0,0,0c0.1-1.8,0.5-3.6,0.9-5.3c3.9-15.3,12.6-27.1,26-35.4c5.9-3.7,12.4-6,19.1-7.5
				c5.4-1.2,10.8-1.9,16.3-2.2c10.9-0.6,21.6,0.3,32.2,2.6c15.2,3.4,28.5,10.4,39.6,21.3c4.4,4.3,8.5,8.8,12.1,13.7
				c0.7,1,1.6,2,2.5,2.9c2.5,2.8,4.5,5.8,6.5,8.9c6.6,11,11.2,22.8,14.3,35.2c1.9,7.9,3.1,15.9,3.5,24.1
				C337,204.8,337,211.2,336.5,217.5z"/>
			<path class="st102" d="M241.6,283.6c-53,12.3-97.3-6.2-94.3-37.2c0.1,0.5,0.3,1.1,0.4,1.6c0.9,2.4,2.2,4.4,4.4,6
				c6.2,4.5,12.7,8.5,20.1,11c4.3,1.4,8.6,2.7,13.1,3.3c10,1.4,19.7,0.3,29-3.7c3.8-1.6,7.6-3.1,11.2-5.2c8.1-4.8,14.9-11,19.7-19.3
				c1.9-3.3,3.2-6.7,3.7-10.5c0.3-2.7,0.2-5.3-0.1-8c-0.4-3.2-1.1-6.3-2.5-9.2c-0.8-1.6-1.9-2.8-3.3-3.9c-1-0.8-2.3-0.9-3.5-1
				c-0.6,0-1.2,0-1.9-0.1c-1.6-0.1-3-0.5-3.7-2.1c-1.1,0-2.2,0.1-3.2,0c-4.3-0.5-6.6-3-6.8-7.3c0-0.3,0-0.6-0.1-1.1
				c-0.4,0.3-0.6,0.4-0.9,0.6c-6.3,5.4-13.7,8.3-21.8,9.7c-2.1,0.4-4.3,0.6-6.5,0.6c-5.4-0.1-10.6-1.1-15.4-3.7
				c-1.5-0.8-2.9-1.8-4.1-3c-2.6-2.6-3.3-5.7-2.4-9.2c0.7-2.9,2.1-5.4,3.9-7.8c2.2-3,4.7-5.5,7.6-7.8c1.7-1.4,3.5-2.8,5.2-4.2
				c0.2-0.2,0.4-0.4,0.6-0.7c-0.4,0.2-0.9,0.3-1.3,0.5c-4,1.7-8.1,3-12.3,3.7c-6.3,1.1-12.6,0.7-18.5-1.8c-0.9-0.4-1.7-0.8-2.5-1.3
				c-4.6-2.8-6.5-7.2-5.3-12.4c1.2-5.3,4.2-9.5,8.6-12.6c1.3-0.9,2.8-1.7,4.2-2.5c0.3-0.2,0.6-0.3,0.8-0.4
				c2.8,7.4,13.3,15.4,40.7,16.1c32.8,0.8,57.1-11.5,67.4,12.5C282.1,197,294.6,271.4,241.6,283.6z"/>
			<path class="st63" d="M297.3,227c-0.1,1.2-0.3,3.2-0.6,5.1c-0.4,2.1-1.3,4-2.8,5.6c-1.2,1.3-2.4,2.6-3.6,4
				c-4.3,4.9-7.3,10.6-9.8,16.7c-1.3,3.1-2.5,6.2-3.7,9.2c-0.4,0.9-0.8,1.7-1.3,2.5c-2.1,3.4-4.7,3.9-7.9,1.6
				c-1.7-1.2-3.1-2.7-4.1-4.5c-1-1.8-2-3.6-2.8-5.4c-1.6-3.7-3-7.6-3.7-11.6c-0.4-2.5-0.5-5-0.3-7.5c0.4-5.7,1.5-11.2,3.4-16.6
				c1.9-5.6,4.6-10.8,8-15.6c2.5-3.5,5.5-6.4,8.8-9c1.4-1.1,3-2.1,4.8-2.6c3.7-1.2,7.7,0,10.1,3.1c1.2,1.6,2.1,3.4,2.6,5.3
				C296,213.4,296.9,219.8,297.3,227z"/>
		</g>
		<g>
			<g>
				<g>
					<circle class="st15" cx="187" cy="139.2" r="8.8"/>
					<circle class="st8" cx="187" cy="139.2" r="3.6"/>
					<circle class="st8" cx="191.8" cy="143.1" r="1.5"/>
				</g>
			</g>
			<g>
				<path class="st63" d="M184.2,125.4c5.2-1.4,12.7-1,16.3,3.6c2.5,3.2,7-1.3,4.5-4.5c-5-6.4-15.3-7.1-22.5-5.2
					C178.6,120.3,180.2,126.4,184.2,125.4L184.2,125.4z"/>
			</g>
		</g>
	</g>
</g>
</svg>
