<?xml version="1.0" encoding="iso-8859-1"?>
<!-- Generator: Adobe Illustrator 16.0.4, SVG Export Plug-In . SVG Version: 6.00 Build 0)  -->
<!DOCTYPE svg PUBLIC "-//W3C//DTD SVG 1.1//EN" "http://www.w3.org/Graphics/SVG/1.1/DTD/svg11.dtd">
<svg version="1.1" id="Layer_1" xmlns="http://www.w3.org/2000/svg" xmlns:xlink="http://www.w3.org/1999/xlink" x="0px" y="0px"
 viewBox="0 0 612 300" style="enable-background:new 0 0 612 300;" xml:space="preserve">
<path style="fill-rule:evenodd;clip-rule:evenodd;" d="M124.112,108.319c-1.736-6.018-3.154-11.925-5.167-17.622
	c-2.003-5.671-4.604-11.129-7.121-17.106c1.025-0.663,2.212-1.694,3.59-2.236c1.104-0.436,1.446-0.932,1.005-1.891
	c-1.136-2.472-0.165-4.286,1.704-5.844c0.206-0.172,0.544-0.256,0.822-0.259c2.115-0.021,4.229,0.026,6.342-0.025
	c1.455-0.036,2.91-0.318,4.359-0.276c4.075,0.12,8.148,0.356,12.222,0.523c0.343,0.015,0.696-0.228,1.038-0.208
	c3.432,0.184,6.863,0.401,10.294,0.599c2.094,0.121,4.198,0.142,6.282,0.354c2.929,0.298,5.84,0.774,8.768,1.092
	c2.081,0.227,4.177,0.31,6.265,0.474c1.085,0.085,2.167,0.209,3.25,0.315c3.708,0.361,7.418,0.685,11.118,1.105
	c1.113,0.127,2.195,0.525,3.292,0.796c5.316,1.312,10.79,1.736,16.141,2.843c3.018,0.625,5.985,1.501,9.007,2.108
	c3.188,0.64,6.441,0.969,9.614,1.668c2.883,0.635,5.69,1.611,8.544,2.385c3.729,1.012,7.479,1.949,11.208,2.964
	c1.733,0.473,3.426,1.093,5.161,1.56c0.45,0.121,0.988-0.083,1.486-0.138c-0.112-0.578-0.042-1.312-0.376-1.698
	c-0.517-0.596-1.305-0.96-1.986-1.409c-1.125-0.741-2.29-1.424-3.38-2.212c-3.893-2.813-6.678-6.44-7.952-11.126
	c-1.112-4.085-1.415-8.233-0.682-12.413c0.21-1.201,0.646-2.378,1.1-3.518c0.846-2.127,1.65-4.29,2.721-6.304
	c0.771-1.45,1.904-2.719,2.952-4.008c2.009-2.472,3.636-5.323,6.739-6.727c0.763-0.345,0.636-1.03-0.006-1.433
	c-2.356-1.476-4.729-2.926-7.125-4.336c-1.31-0.771-2.624-1.575-4.03-2.129c-2.043-0.806-4.005-2.078-6.424-1.34
	c-0.99,0.302-1.924-0.78-1.939-1.824c-0.011-0.811-0.129-1.668-0.426-2.416c-0.472-1.188-0.065-2.322,1.11-2.56
	c2.668-0.539,5.32-1.253,8.017-1.542c3.059-0.327,6.158-0.333,9.24-0.359c5.904-0.05,11.691,0.995,17.177,3.014
	c3.455,1.271,6.97,2.734,9.875,5.21c0.748,0.637,1.613,0.776,2.692,0.642c4.167-0.518,8.265-1.498,12.533-1.383
	c2.762,0.073,5.548-0.861,8.312-0.807c7.007,0.136,14.019,0.444,21.009,0.946c3.491,0.25,6.931,1.151,10.415,1.58
	c0.796,0.098,1.854-0.332,2.494-0.871c2.656-2.24,6.014-2.593,9.121-3.615c1.747-0.574,3.494-1.184,5.284-1.591
	c1.502-0.341,3.063-0.461,4.604-0.591c2.958-0.248,5.935-0.723,8.877-0.574c3.868,0.196,7.792-0.576,11.629,0.79
	c1.865,0.664,3.968,0.639,5.924,1.09c0.493,0.114,1.219,0.889,1.186,1.308c-0.105,1.303-0.523,2.581-0.814,3.846
	c-3.603-0.419-6.52,0.841-9.278,2.594c-2.496,1.585-4.729,3.467-6.511,5.861c-0.955,1.282-0.703,1.616,0.619,2.491
	c1.774,1.174,3.367,2.652,4.925,4.118c2.611,2.457,3.175,5.978,4.517,9.091c0.332,0.77,0.915,1.546,0.922,2.323
	c0.029,4.017,0.482,8.06-0.655,12.029c-0.507,1.771-0.521,3.717-1.217,5.394c-1.607,3.872-3.324,7.734-6.514,10.662
	c-0.364,0.333-0.736,0.656-1.104,0.983c0.046,0.129,0.094,0.257,0.14,0.386c0.478-0.022,0.979,0.043,1.429-0.082
	c3.159-0.88,6.308-1.796,9.457-2.709c1.036-0.3,2.053-0.674,3.1-0.931c3.75-0.921,7.494-1.879,11.27-2.68
	c2.367-0.502,4.794-0.718,7.185-1.118c2.343-0.391,4.671-0.861,7.009-1.279c2.377-0.424,4.91-0.449,7.105-1.324
	c3.487-1.391,7.252-0.33,10.688-1.688c0.889-0.352,1.939-0.291,2.915-0.425c6.093-0.838,12.178-1.729,18.278-2.491
	c2.222-0.276,4.482-0.229,6.723-0.362c1.035-0.062,2.063-0.238,3.098-0.299c2.202-0.13,4.407-0.211,6.61-0.329
	c1.719-0.091,3.434-0.286,5.151-0.298c5.61-0.039,11.224-0.046,16.834,0c2.78,0.024,5.564,0.135,8.337,0.327
	c1.062,0.073,1.916-0.8,3.187-0.133c1.7,0.894,2.178,1.271,1.746,3.148c-0.334,1.458-0.671,2.918-0.879,4.396
	c-0.045,0.319,0.419,0.983,0.724,1.034c3.044,0.507,3.856,1.706,2.996,4.688c-1.115,3.859-2.314,7.695-3.376,11.568
	c-0.529,1.93-0.794,3.931-1.253,5.882c-0.341,1.447-0.79,2.868-1.215,4.294c-0.499,1.671-1.029,3.334-1.534,5.004
	c-0.404,1.34,0.113,2.208,1.643,2.319c2.026,0.147,3.319,1.497,4.758,2.606c0.673,0.52,1.091,1.362,1.754,1.902
	c1.666,1.359,1.52,3.433,2.161,5.186c1.162,3.171-0.094,6.037-1.365,8.836c-1.475,3.24-3.846,5.736-7.013,7.339
	c-1.988,1.006-4.138,1.696-6.211,2.536c-0.994,0.402-1.981,0.82-2.97,1.234c-0.143,0.059-0.285,0.199-0.42,0.189
	c-3.827-0.271-3.148,3.089-4.063,5.109c-0.742,1.634-1.311,3.351-1.888,5.055c-0.887,2.624-1.708,5.271-2.571,7.905
	c-0.559,1.706-1.2,3.388-1.697,5.111c-1.009,3.491-1.993,6.994-2.901,10.516c-1.641,6.372-3.245,12.751-4.812,19.141
	c-0.942,3.848-1.808,7.715-2.655,11.584c-0.449,2.056-0.717,4.152-1.194,6.2c-0.531,2.277-1.291,4.503-1.799,6.784
	c-0.537,2.415-0.914,4.867-1.323,7.309c-0.164,0.975-0.166,1.979-0.359,2.946c-0.243,1.199-1.208,1.473-2.262,1.453
	c-3.256-0.062-6.512-0.267-9.766-0.211c-5.373,0.091-10.742,0.332-16.112,0.528c-2.321,0.085-4.65,0.133-6.961,0.346
	c-3.505,0.322-6.998,0.774-10.497,1.171c-0.208,0.022-0.414,0.043-0.622,0.062c-4.76,0.424-9.526,0.763-14.271,1.302
	c-2.558,0.289-5.07,0.956-7.614,1.382c-2.494,0.415-5.009,0.696-7.501,1.123c-1.25,0.214-2.453,0.716-3.705,0.919
	c-4.183,0.677-8.378,1.266-12.566,1.908c-2.656,0.407-5.314,0.805-7.956,1.291c-1.359,0.251-1.731,2.21-1.04,3.981
	c1.439,3.688,1.655,7.511,0.859,11.374c-0.146,0.704-0.593,1.347-0.988,2.208c0.624,0.046,1.112,0.114,1.604,0.114
	c41.855,0.007,83.713,0.008,125.57,0.009c7.585,0,15.17-0.014,22.755,0.019c1.119,0.005,1.541-0.291,2.074-1.443
	c0.846-1.83,2.155-3.618,3.71-4.879c0.885-0.718,2.647-0.349,4.015-0.477c0.962-0.09,1.922-0.192,2.882-0.29
	c0.026-0.186,0.052-0.373,0.077-0.561c-0.829-0.612-1.677-1.203-2.486-1.841c-3.613-2.841-4.635-6.653-4.619-11.107
	c0.01-2.972,1.07-5.149,2.99-7.235c0.384-0.417,0.022-1.803-0.345-2.573c-0.95-1.985-1.723-3.942-1.642-6.22
	c0.066-1.868-0.234-3.746-0.259-5.622c-0.014-1.007,0.211-2.016,0.366-3.349c-1.778,1.22-3.262,2.248-5.291,2.02
	c-3.396-0.383-5.774-2.984-5.112-6.417c0.153-0.786,0.599-1.516,0.777-2.302c0.171-0.761,0.287-1.467-0.899-1.764
	c-2.09-0.522-3.009-3.321-2.196-5.341c0.914-2.277,2.544-3.981,4.601-4.791c2.497-0.983,5.29-1.216,7.959-1.756
	c0.304-0.06,0.63-0.006,0.944-0.009c1.76-0.016,3.534,0.425,4.345-2.085c0.453-1.401,1.908-2.478,2.918-3.706
	c-2.42-0.312-4.829-0.186-6.882-0.979c-3.99-1.542-7.537-4.651-6.295-9.967c0.686-2.928,1.496-5.812,3.243-8.229
	c2.25-3.111,4.456-6.332,7.973-8.279c0.761-0.42,1.247-1.358,2.018-1.732c2.57-1.25,5.221-2.333,7.819-3.528
	c0.464-0.212,1.016-0.568,1.2-0.999c1.132-2.634,1.943-5.43,3.298-7.936c1.463-2.707,3.314-5.222,5.166-7.696
	c1.297-1.734,2.729-3.427,4.363-4.835c2.554-2.2,5.295-4.231,8.56-5.289c1.196-0.387,2.229,0.1,2.778,1.389
	c1.196,2.805,1.101,5.599,0.305,8.503c-1.032,3.771-3.303,6.897-5.227,10.345c0.331,0.092,0.561,0.242,0.682,0.179
	c2.733-1.419,5.638-2.177,8.688-2.575c2.007-0.262,3.96-0.918,5.954-1.316c0.961-0.192,1.967-0.292,2.94-0.234
	c0.354,0.021,0.851,0.567,0.979,0.971c0.588,1.844,0.392,3.721-0.438,5.413c-1.069,2.181-2.246,4.334-3.626,6.327
	c-0.721,1.038-1.889,1.854-3.007,2.509c-2.735,1.602-5.479,3.238-8.374,4.508c-2.753,1.207-5.702,1.966-8.461,2.888
	c-0.57,4.345-2.463,8.081-5.339,11.376c-0.74,0.851-0.576,1.934,0.156,2.486c3.252,2.452,4.854,6.086,6.979,9.348
	c3.448,5.294,5.636,11.165,7.323,17.18c1.121,3.996,1.658,8.17,2.257,12.293c0.482,3.335,0.994,6.723,0.889,10.067
	c-0.106,3.375-0.931,6.73-1.498,10.086c-0.179,1.057-0.63,2.07-0.759,3.129c-0.028,0.231,0.826,0.87,1.188,0.809
	c3.154-0.531,5.654,0.708,7.095,3.294c0.772,1.387,0.623,3.396,0.563,5.112c-0.104,2.982-2.562,4.431-4.472,6.198
	c-0.37,0.342-0.811,0.606-1.597,1.189c1.521,0,2.633,0.033,3.743-0.008c1.665-0.062,3.328-0.209,4.993-0.235
	c0.345-0.005,0.841,0.277,1.02,0.577c1.095,1.837,2.111,3.719,3.168,5.579c1.581,2.785,1.844,5.758,1.048,8.788
	c-0.579,2.203-1.266,4.407-2.228,6.46c-0.253,0.542-1.7,0.744-2.596,0.737c-15.126-0.115-30.252-0.277-45.378-0.46
	c-2.885-0.034-5.767-0.253-8.651-0.29c-3.929-0.053-7.859,0.004-11.789-0.025c-0.716-0.005-1.434-0.299-2.146-0.282
	c-2.355,0.055-4.712,0.293-7.066,0.274c-5.203-0.04-10.405-0.188-15.608-0.303c-4.241-0.094-8.482-0.317-12.721-0.269
	c-3.072,0.036-6.098,0.164-9.138-0.578c-1.054-0.258-2.311,0.491-3.479,0.506c-4.942,0.066-9.886-0.008-14.829,0.043
	c-3.316,0.034-6.634,0.302-9.948,0.269c-5.599-0.059-11.195-0.306-16.794-0.406c-2.671-0.046-5.344,0.078-8.016,0.099
	c-2.852,0.022-5.702,0.016-8.556,0.018c-13.58,0.005-27.161,0.019-40.741-0.007c-1.086-0.003-1.508,0.332-1.741,1.432
	c-0.816,3.829-3.465,6.15-6.814,7.813c-0.268,0.132-0.586,0.2-0.886,0.222c-0.875,0.064-1.592,0.379-2.399,0.747
	c-1.179,0.537-2.879,0.188-4.282-0.121c-0.838-0.187-1.297-0.31-2.143,0.205c-0.887,0.54-2.198,0.383-3.408,0.539
	c-0.134-0.646-0.23-1.119-0.435-2.105c-1.381,1.522-2.479,2.739-3.586,3.95c-1.143,1.251-2.564,1.938-4.011,2.178
	c-0.201-0.647-0.259-1.218-0.553-1.612c-0.146-0.197-1.037-0.156-1.058-0.08c-0.157,0.586-0.184,1.207-0.283,2.109
	c-2.241,0.158-4.778,0.339-7.315,0.515c-0.854,0.06-1.57-0.013-1.605-1.176c-0.01-0.274-0.594-0.795-0.812-0.747
	c-0.521,0.113-0.98,0.501-1.565,0.834c0.555,0.665,0.947,1.137,1.45,1.738c-2.618,1.115-5.22,0.35-7.684,0.655
	c-0.409-0.936,1.04-1.904-0.335-2.44c-0.349-0.137-1.106,0.002-1.236,0.248c-0.245,0.462-0.171,1.094-0.265,1.994
	c-1.307-0.521-2.769-1.099-4.227-1.686c-1.759-0.707-3.516-1.424-5.348-2.166c-0.001,0.003,0.18-0.291,0.527-0.852
	c-2.885,1.308-5.118,0.072-7.32-1.074c-1.115-0.578-2.481-1.185-3.061-2.173c-1.053-1.799-2.111-2.611-4.169-1.736
	c-0.544,0.231-1.273-0.004-1.912,0.044c-2.047,0.151-4.046,0.235-6.068-0.465c-1.64-0.566-3.422-0.709-5.127-1.099
	c-2.075-0.474-3.608-1.819-4.883-3.41c-0.395-0.49-0.306-1.367-0.477-2.271c-0.541,0-1.156,0-1.771,0
	c-19.457,0.003-38.913,0.007-58.369,0.01c-6.69,0.001-13.38,0-20.071,0c-5.527,0-11.055-0.034-16.583,0.014
	c-2.749,0.023-5.496,0.247-8.246,0.282c-4.09,0.056-8.18-0.01-12.27,0.041c-2.569,0.033-5.137,0.257-7.706,0.268
	c-2.158,0.008-4.317-0.249-6.475-0.244c-3.011,0.009-6.02,0.195-9.031,0.223c-1.451,0.014-2.908-0.281-4.353-0.22
	c-1.833,0.079-3.655,0.547-5.483,0.551c-3.936,0.007-7.878-0.358-11.807-0.229c-4.101,0.135-7.993-1.052-12.004-1.427
	c-2.784-0.26-5.55-0.714-8.314-1.152c-2.958-0.471-5.897-1.055-8.854-1.529c-1.229-0.198-2.481-0.264-3.725-0.355
	c-4.39-0.326-8.788-0.572-13.17-0.975c-3.185-0.293-6.353-0.777-9.525-1.197c-1.49-0.197-3.004-0.335-4.444-0.729
	c-0.617-0.17-1.072-0.927-1.6-1.418c0.57-0.333,1.136-0.673,1.709-1c0.916-0.522,2.332,0.229,2.929-1.147
	c0.035-0.082,0.287-0.069,0.438-0.104c2.442-0.556,4.908-1.022,7.319-1.691c3.273-0.909,6.471-2.104,9.762-2.936
	c3.294-0.83,6.677-1.307,9.997-2.045c4.104-0.913,8.185-1.934,12.276-2.908c0.124-0.213,0.248-0.425,0.372-0.637
	c-0.287-0.075-0.602-0.1-0.857-0.236c-1.359-0.721-3.006-1.205-3.959-2.293c-0.83-0.945-1.258-2.241-2.458-2.989
	c-0.2-0.125,0.138-1.112,0.278-2.033c-0.265-0.209-0.926-0.662-1.493-1.213c-0.279-0.272-0.384-0.723-0.566-1.093
	c0.508-0.063,1.112-0.334,1.507-0.151c0.917,0.423,1.684,1.172,2.603,1.586c0.916,0.412,1.943,0.577,3.079,0.896
	c-1.176,1.982-3.018-0.011-4.381,0.879c1.957,1.952,4.312,1.857,6.669,1.591c-0.81-1.831-1.73-3.565-2.346-5.401
	c-0.585-1.742-1.198-3.594-1.191-5.396c0.02-5.072,0.526-10.146,0.503-15.218c-0.016-3.421-0.229-6.853-1.713-10.136
	c-1.069-2.364-1.836-4.796-3.731-6.728c-2.407-2.453-5.354-3.604-8.646-4.053c-4.355-0.595-8.105,0.849-11.744,3.186
	c-2.324,1.494-3.869,3.429-4.961,5.823c-0.352,0.771-0.337,1.705-0.525,2.558c-1.128,5.134,0.596,10.267,5.061,13.113
	c2.701,1.722,6.216,1.086,8.042-1.504c0.88-1.249,0.504-3.877-1.056-4.684c-0.511-0.263-1.449,0.215-2.158,0.455
	c-0.325,0.109-0.569,0.462-0.85,0.705c-0.19-0.102-0.38-0.203-0.57-0.305c0.305-0.829,0.377-1.923,0.962-2.431
	c1.161-1.009,2.593-0.491,3.763,0.184c1.594,0.921,2.209,2.507,2.374,4.286c0.037,0.392,0.109,0.779,0.165,1.168
	c0.186,0.069,0.371,0.139,0.557,0.208c0.296-0.562,0.797-1.105,0.849-1.689c0.124-1.408,0.163-2.851,0.006-4.252
	c-0.236-2.119-1.632-3.513-3.341-4.627c-0.34-0.221-0.683-0.439-1.043-0.672c0.664-1.7,1.519-0.762,2.44-0.354
	c4.255,1.881,4.892,8.025,3.312,11.269c-0.473,0.972-1.079,2.157-2.529,0.979c-0.089-0.071-0.602,0.331-0.885,0.552
	c-1.564,1.223-2.941,2.933-4.712,3.593c-4.039,1.505-8.339-0.321-10.865-3.889c-2.505-3.538-3.644-7.657-3.13-11.749
	c0.363-2.897,1.576-6.002,4.062-8.172c0.719-0.627,1.312-1.396,1.978-2.087c1.702-1.77,3.931-2.459,6.234-2.881
	c2.687-0.493,5.401-1.143,8.107-1.161c4.327-0.028,8.057,1.612,11.024,4.956c3.217,3.624,4.753,7.852,5.142,12.595
	c0.182,2.225,0.63,4.452,0.567,6.668c-0.088,3.158-0.596,6.304-0.801,9.462c-0.109,1.67,0.029,3.358,0.086,5.038
	c0.029,0.848,0.051,1.706,0.208,2.534c0.316,1.669,0.433,1.705,1.692,1.305c-0.26-0.402-0.804-0.867-0.855-1.381
	c-0.414-4.211-0.192-8.389,0.786-12.524c0.475-2.006,0.657-4.086,1.22-6.062c0.598-2.098,1.315-4.198,2.289-6.144
	c1.959-3.917,4.032-7.785,6.24-11.565c1.823-3.123,4.121-5.93,6.912-8.253c0.739-0.615,1.817-0.929,2.792-1.134
	c1.536-0.322,2.164-1.236,1.272-2.541c-3.039-4.44-1.307-11.534,2.592-15.062c1.501-1.358,2.715-3.066,5.062-3.055
	c0.172,0,0.441-1.018,0.504-1.582c0.098-0.894-0.134-1.861,0.117-2.694c0.665-2.214,2.274-2.671,4.408-1.722
	c2.484,1.103,3.221,3.313,4,5.562c0.165,0.476,0.285,0.966,0.455,1.549c1.506-1.164,2.861-2.312,4.318-3.311
	c1.508-1.032,2.779-0.678,3.813,0.886c1.741,2.639,1.665,5.452-0.232,8.05c-0.607,0.832-0.875,1.659-0.396,2.687
	c1.943,4.162,1.439,8.407,0.196,12.605c-0.237,0.8-1.033,1.544-1.749,2.07c-1.892,1.392-3.972,2.338-6.719,1.963
	c0.142,0.486,0.267,0.963,0.419,1.43c0.492,1.509,1.23,2.982,1.434,4.527c0.264,2.005,0.407,2.396,2.409,2.146
	c1.723-0.215,3.057,0.408,3.902,1.775c0.632,1.023,1.229,2.281,1.224,3.432c-0.008,1.496-0.92,2.884-2.295,3.61
	c-1.116,0.589-2.392,0.831-3.576-0.138c-1.281-1.047-2.211,0.183-3.185,0.671c-0.983,0.491-0.734,1.44-0.306,2.188
	c1.163,2.027,1.161,4.194,0.925,6.407c-0.307,2.887-0.638,5.77-0.911,8.658c-0.314,3.319-1.771,6.168-3.506,8.926
	c-0.364,0.578-0.91,1.726-0.792,1.811c0.72,0.521,1.585,1.059,2.441,1.134c2.786,0.242,5.181,2.229,5.615,4.995
	c0.185,1.177,0.667,1.734,1.94,1.686c3.511-0.134,7.026-0.229,10.541-0.237c2.839-0.005,5.679,0.209,8.518,0.2
	c2.676-0.009,5.349-0.225,8.025-0.272c2.877-0.051,5.756-0.012,8.634-0.012c3.071,0,6.144,0,9.216,0.002
	c3.586,0,7.174,0.043,10.76-0.008c3.685-0.054,7.37-0.261,11.055-0.284c2.408-0.014,4.817,0.26,7.226,0.261
	c2.671,0.003,5.343-0.229,8.015-0.228c2.831,0.002,5.662,0.206,8.494,0.23c1.75,0.017,3.502-0.165,5.253-0.207
	c2.005-0.048,4.013-0.049,6.019-0.058c2.098-0.009,4.195-0.004,6.293-0.004c1.271,0.001,2.544-0.02,3.815,0.012
	c1.677,0.04,3.354,0.15,5.031,0.177c3.513,0.056,7.026,0.098,10.54,0.089c0.636-0.001,1.27-0.271,1.952-0.428
	c-0.451-1.188-0.919-2.211-1.23-3.278c-1.031-3.53-1.517-7.082,0.158-10.562c0.506-1.052-0.959-3.696-2.261-4.32
	c-1.119-0.535-2.407-0.854-3.649-0.974c-4.005-0.384-7.996-0.775-11.903-1.834c-1.236-0.335-2.592-0.202-3.867-0.431
	c-1.602-0.285-3.176-0.725-4.765-1.087c-0.3-0.069-0.609-0.108-0.917-0.125c-2.678-0.144-5.362-0.216-8.035-0.437
	c-2.471-0.204-4.923-0.643-7.394-0.839c-4.671-0.374-9.351-0.63-14.025-0.969c-3.015-0.218-6.023-0.56-9.041-0.724
	c-1.776-0.098-3.566,0.091-5.349,0.062c-2.674-0.045-5.348-0.259-8.02-0.232c-2.986,0.029-5.978,0.157-8.953,0.415
	c-2.035,0.176-4.131,0.119-5.999,1.343c-0.715,0.469-2.596-0.918-2.895-2.088c-0.501-1.964-0.854-3.966-1.292-5.946
	c-0.444-2.007-0.976-3.995-1.362-6.013c-0.737-3.848-1.381-7.713-2.104-11.564c-0.252-1.347-0.588-2.681-0.947-4.005
	c-0.708-2.604-1.444-5.2-2.193-7.794c-0.83-2.863-1.653-5.729-2.546-8.572c-0.5-1.594-1.175-3.131-1.695-4.721
	c-0.318-0.97-0.454-1.996-0.734-2.979c-1-3.516-2.073-7.012-3.03-10.537c-0.98-3.611-1.772-7.274-2.803-10.869
	c-0.841-2.931-2.004-5.769-2.858-8.697c-0.817-2.802-1.507-5.649-2.086-8.51c-0.365-1.807-1.336-2.897-3.451-2.853
	c-2.567,0.053-4.82-0.986-7.217-1.555c-3.02-0.717-5.279-2.546-7.574-4.229c-3.59-2.633-6.46-6.058-5.363-10.963
	c0.585-2.618,1.535-5.053,4.84-6.138c2.9-0.952,5.66-0.666,8.497-0.791C123.186,108.452,123.386,108.411,124.112,108.319z
	 M303.014,88.62c0.594,0.077,1.345-0.05,1.759,0.265c2.172,1.657,4.552,1.725,6.692,0.273c0.517-0.351,1.6-0.391,2.144-0.083
	c1.668,0.941,3.316,1.622,5.288,1.431c1.959-0.189,3.934-0.232,5.9-0.341c0.104-0.006,0.216,0,0.311-0.037
	c2.484-0.951,4.825-2.132,6.613-4.181c0.399-0.457,0.922-0.879,1.12-1.416c0.148-0.403-0.043-1.011-0.264-1.432
	c-0.093-0.176-0.897-0.246-0.968-0.125c-0.89,1.521-2.558,1.337-3.894,1.856c-1.889,0.733-3.614,1.743-5.743,2.026
	c-3.031,0.404-5.929-0.004-8.854-0.505c-0.899-0.154-1.881-1.004-2.587-0.782c-0.678,0.214-0.982,1.464-1.582,2.142
	c-0.351,0.395-1.047,0.862-1.429,0.75c-0.446-0.132-0.821-0.812-1.04-1.334c-0.184-0.437-0.097-0.987-0.131-1.498
	c-1.271,0.17-3.035,1.877-3.299,3.025c-0.573-0.012-1.181-0.159-1.709-0.011c-1.977,0.553-3.931,1.188-5.882,1.827
	c-0.349,0.114-0.643,0.394-0.962,0.596c0.297,0.23,0.564,0.524,0.896,0.681C297.677,92.818,301.735,91.98,303.014,88.62z
	 M495.697,74.861c-1.184-0.23-1.889-0.433-2.605-0.495c-3.874-0.338-7.748-0.83-11.629-0.908c-4.745-0.097-9.5,0.113-14.247,0.286
	c-3.172,0.116-6.338,0.401-9.507,0.604c-0.471,0.03-0.951-0.021-1.417,0.039c-3.096,0.398-6.186,0.836-9.283,1.223
	c-2.671,0.334-5.353,0.591-8.023,0.926c-4.104,0.515-8.204,1.062-12.304,1.609c-1.948,0.26-3.898,0.513-5.836,0.841
	c-1.754,0.297-3.482,0.92-5.239,0.981c-2.02,0.071-3.929,0.225-5.688,1.306c-0.334,0.206-0.774,0.28-1.177,0.329
	c-1.645,0.197-3.297,0.332-4.939,0.543c-4.208,0.542-8.414,1.101-12.619,1.678c-2.763,0.379-5.539,0.7-8.274,1.232
	c-3.274,0.637-6.509,1.485-9.766,2.217c-4.259,0.956-8.542,1.804-12.777,2.85c-4.318,1.068-8.629,2.207-12.874,3.532
	c-2.985,0.931-5.833,2.296-8.788,3.336c-2.319,0.817-4.729,1.372-7.061,2.156c-3.315,1.116-6.57,2.416-9.899,3.488
	c-3.713,1.196-7.25,2.714-10.646,4.646c-1.337,0.759-2.919,1.308-4.599,0.427c-1.638-0.859-3.366-1.556-5.084-2.254
	c-3.034-1.234-6.066-2.479-9.143-3.598c-2.878-1.046-5.819-1.922-8.724-2.899c-1.938-0.651-3.863-1.341-5.789-2.026
	c-2.503-0.89-4.967-1.915-7.514-2.655c-2.466-0.717-5.024-1.113-7.528-1.71c-2.803-0.669-5.575-1.477-8.388-2.097
	c-3.017-0.664-6.062-1.198-9.101-1.755c-2.183-0.399-4.375-0.75-6.565-1.11c-2.493-0.41-4.994-0.773-7.482-1.215
	c-2.839-0.504-5.659-1.115-8.501-1.602c-3.105-0.532-6.225-0.991-9.342-1.451c-3.322-0.489-6.653-0.918-9.974-1.418
	c-3.006-0.453-6.009-0.936-9.002-1.463c-1.67-0.293-3.314-0.721-4.976-1.056c-3.174-0.643-6.351-1.277-9.532-1.89
	c-4.455-0.857-8.911-1.708-13.373-2.53c-2.993-0.551-5.987-1.115-8.999-1.551c-2.971-0.429-5.965-0.693-8.946-1.052
	c-0.818-0.098-1.624-0.348-2.442-0.4c-2.976-0.186-5.954-0.339-8.933-0.462c-1.449-0.06-2.901-0.047-4.352-0.027
	c-2.057,0.027-4.141-0.104-6.162,0.19c-2.792,0.407-5.525,1.212-8.306,1.725c-2.28,0.419-2.847,1.43-1.897,3.459
	c1.198,2.561,2.463,5.114,3.377,7.78c1.981,5.785,3.786,11.632,5.599,17.473c0.5,1.612,0.831,3.284,1.141,4.947
	c0.278,1.483,0.712,2.752,2.322,3.306c2.594,0.891,3.935,3.018,4.914,5.371c0.282,0.681,0.043,1.571,0.072,2.365
	c0.018,0.474-0.034,1.009,0.166,1.405c0.364,0.721,0.886,1.364,1.353,2.033c0.965,1.384,0.796,3.21-0.638,3.843
	c-1.153,0.508-1.013,1.163-0.777,1.979c0.899,3.113,1.822,6.219,2.75,9.323c0.484,1.618,1.017,3.221,1.493,4.841
	c0.553,1.875,1.094,3.755,1.591,5.646c0.809,3.074,1.566,6.163,2.367,9.239c0.453,1.739,0.964,3.465,1.428,5.202
	c0.98,3.673,1.878,7.369,2.941,11.017c0.789,2.7,1.846,5.319,2.676,8.008c1.074,3.477,2.057,6.982,3.049,10.485
	c0.911,3.213,1.881,6.415,2.646,9.664c0.847,3.599,1.526,7.238,2.21,10.873c0.591,3.14,1.116,6.291,1.609,9.448
	c0.271,1.727,0.75,2.285,2.524,2.191c2.132-0.11,4.252-0.423,6.384-0.558c1.034-0.065,2.085,0.035,3.121,0.135
	c0.975,0.094,1.979,0.538,2.904,0.395c5.932-0.918,11.88,0.085,17.811-0.256c0.314-0.018,0.632-0.01,0.945,0.022
	c4.078,0.41,8.154,0.844,12.234,1.233c1.763,0.17,3.543,0.175,5.298,0.391c4.62,0.567,9.214,1.488,13.847,1.747
	c4.882,0.272,9.7,0.685,14.438,1.921c1.19,0.311,2.417,0.518,3.639,0.657c2.321,0.266,4.667,0.35,6.976,0.688
	c5.261,0.775,10.522,1.563,15.751,2.525c4.86,0.894,9.688,1.971,14.51,3.057c3.467,0.779,6.905,1.687,10.348,2.57
	c4.736,1.216,9.458,2.488,14.2,3.682c1.724,0.435,3.477,0.836,5.24,1.015c0.868,0.087,1.797-0.354,2.69-0.584
	c3.878-1.006,7.759-2.006,11.629-3.042c1.938-0.519,3.837-1.204,5.789-1.654c3.91-0.903,7.846-1.69,11.768-2.537
	c2.419-0.521,4.822-1.11,7.25-1.586c2.225-0.435,4.478-0.726,6.708-1.136c2.937-0.543,5.855-1.174,8.794-1.706
	c2.484-0.45,4.992-0.781,7.478-1.228c2.166-0.388,4.308-0.908,6.474-1.293c3.605-0.641,7.219-1.245,10.837-1.819
	c3.044-0.484,6.089-0.995,9.151-1.325c3.874-0.417,7.775-0.589,11.651-1.003c5.196-0.553,10.363-1.47,15.571-1.802
	c6.963-0.444,13.951-0.476,20.929-0.692c0.708-0.021,1.418-0.184,2.119-0.147c2.495,0.124,4.988,0.306,7.483,0.469
	c0.842,0.055,1.275-0.158,1.454-1.161c0.635-3.539,1.399-7.057,2.163-10.573c0.48-2.211,1.053-4.401,1.573-6.604
	c1.408-5.956,2.8-11.917,4.226-17.87c0.442-1.85,1.013-3.67,1.449-5.521c0.706-3.002,1.232-6.052,2.048-9.023
	c1.167-4.257,2.495-8.471,3.812-12.686c0.828-2.651,1.812-5.254,2.635-7.906c0.895-2.884,1.633-5.816,2.538-8.696
	c0.641-2.039,1.475-4.016,2.148-6.045c0.128-0.382,0.071-1.071-0.185-1.291c-1.217-1.054-0.827-2.299-0.358-3.392
	c0.555-1.295,1.419-2.458,2.152-3.677c-1.117-1.707-1.015-3.266,0.141-4.941c0.709-1.026,2.096-1.884,1.2-3.508
	c-0.08-0.147,0.085-0.517,0.239-0.692c0.971-1.103,2.006-2.15,2.948-3.276c0.569-0.682,1.271-1.41,1.466-2.224
	c1.115-4.69,2.063-9.42,3.143-14.119c0.448-1.949,1.147-3.838,1.618-5.783c0.842-3.483,1.59-6.989,2.392-10.483
	C494.564,79.625,495.126,77.29,495.697,74.861z M95.303,268.434c0.684,0,1.199,0,1.715,0c3.988,0.002,7.978-0.028,11.966,0.019
	c1.926,0.022,3.852,0.285,5.777,0.27c3.621-0.028,7.241-0.264,10.861-0.258c3.964,0.006,7.928,0.193,11.892,0.284
	c1.221,0.03,2.442,0.019,3.664,0.004c7.946-0.096,15.893-0.232,23.84-0.278c2.828-0.016,5.656,0.222,8.485,0.265
	c1.188,0.018,2.38-0.261,3.568-0.246c2.78,0.034,5.558,0.229,8.337,0.235c2.115,0.006,4.23-0.276,6.344-0.261
	c4.022,0.034,8.043,0.259,12.065,0.271c3.043,0.009,6.085-0.257,9.128-0.271c2.294-0.01,4.59,0.273,6.884,0.269
	c2.631-0.008,5.263-0.267,7.895-0.279c7.668-0.04,15.337,0.021,23.005-0.023c3.318-0.02,6.635-0.269,9.952-0.289
	c7.688-0.047,15.377-0.019,23.066-0.019c5.666,0,11.332,0.005,16.998,0.005c9.267,0,18.535-0.022,27.802,0.013
	c2.138,0.008,4.275,0.302,6.412,0.289c3.258-0.021,6.515-0.252,9.773-0.289c4.598-0.054,9.196-0.029,13.795-0.008
	c9.114,0.045,18.229,0.118,27.341,0.158c1.308,0.006,2.617-0.17,3.923-0.149c4.742,0.075,9.484,0.236,14.228,0.288
	c4.757,0.053,9.513-0.023,14.27,0.02c9.023,0.078,18.047,0.235,27.071,0.287c3.185,0.018,6.369-0.249,9.555-0.26
	c2.513-0.006,5.023,0.239,7.536,0.272c9.768,0.13,19.536,0.228,29.304,0.318c3.198,0.029,6.396-0.005,9.595,0.004
	c13.746,0.037,27.492,0.029,41.238,0.139c7.365,0.06,14.729,0.338,22.093,0.482c2.745,0.055,4.314-1.062,4.169-3.77
	c-0.159-2.936-1.119-5.831-1.776-8.732c-0.062-0.278-0.45-0.685-0.695-0.69c-2.589-0.069-5.179-0.09-7.769-0.08
	c-0.954,0.004-1.91,0.204-2.86,0.173c-3.595-0.125-7.185-0.377-10.779-0.45c-4.137-0.084-8.276-0.026-12.415-0.037
	c-2.547-0.006-5.095,0.004-7.642-0.041c-4.316-0.074-8.633-0.201-12.949-0.273c-1.479-0.024-2.959,0.043-4.439,0.081
	c-1.465,0.038-2.93,0.146-4.394,0.131c-2.481-0.025-4.963-0.181-7.444-0.176c-2.315,0.007-4.629,0.212-6.942,0.217
	c-1.985,0.003-3.972-0.213-5.959-0.22c-1.516-0.005-3.031,0.259-4.547,0.24c-2.727-0.032-5.451-0.229-8.179-0.274
	c-3.187-0.053-6.375-0.016-9.562-0.016c-3.085-0.001-6.17,0.003-9.254,0.003c-39.281,0.001-78.563,0.01-117.846-0.024
	c-1.732-0.002-3.455,1.286-5.217,0.062c-0.087-0.061-0.532,0.328-0.766,0.556c-1.725,1.67-2.696,1.768-4.741,0.378
	c-0.718-0.488-1.376-1.064-2.117-1.646c-0.171,0.272-0.308,0.479-0.432,0.691c-0.95,1.612-2.861,2.13-4.409,1.14
	c-0.673-0.432-1.246-1.359-1.91-1.404c-3.453-0.229-6.921-0.298-10.384-0.306c-0.882-0.001-1.951,0.185-2.605,0.702
	c-1.047,0.827-1.953,0.802-3.102,0.429c-0.442-0.143-1.152,0.031-1.543,0.324c-1.79,1.335-3.032,1.421-5.057,0.062
	c-0.678-0.454-1.186-0.48-1.865-0.003c-1.944,1.37-2.53,1.231-4.339-0.468c-0.475-0.447-1.261-0.703-1.932-0.77
	c-1.23-0.123-2.48-0.029-3.722-0.045c-8.606-0.103-17.211-0.218-25.816-0.303c-0.767-0.008-1.538,0.267-2.302,0.245
	c-4.371-0.123-8.742-0.423-13.112-0.417c-5.12,0.005-10.238,0.314-15.358,0.388c-2.674,0.038-5.351-0.195-8.027-0.207
	c-1.513-0.007-3.028,0.284-4.541,0.27c-2.676-0.027-5.351-0.218-8.027-0.267c-0.977-0.019-1.958,0.258-2.936,0.247
	c-1.358-0.013-2.716-0.259-4.072-0.243c-2.202,0.026-4.403,0.26-6.604,0.271c-2.821,0.014-5.644-0.155-8.465-0.16
	c-8.246-0.015-16.492,0.018-24.739,0.018c-1.01,0-2.022-0.147-3.03-0.121c-1.991,0.052-3.979,0.265-5.968,0.255
	c-3.199-0.017-6.399-0.277-9.594-0.22c-4.377,0.078-8.75,0.438-13.127,0.525c-2.764,0.054-5.532-0.23-8.3-0.256
	c-5.28-0.05-10.56-0.025-15.84-0.025c-2.02-0.002-4.041-0.032-6.058,0.051c-0.49,0.02-1.394,0.478-1.375,0.656
	c0.122,1.147-1.341,2.26-0.221,3.337c0.975,0.938,1.247,1.868,0.818,3.15c-0.241,0.721-0.266,1.549,0.683,1.972
	C94.815,265.326,95.665,266.49,95.303,268.434z M512.209,251.152c1.086,0.447,1.589,0.814,2.114,0.847
	c2.741,0.165,5.487,0.343,8.23,0.33c4.483-0.021,8.967-0.164,13.447-0.304c1.979-0.062,3.953-0.281,5.932-0.359
	c3.48-0.138,6.964-0.296,10.446-0.3c2.146-0.002,4.435,0.606,6.354-0.45c2.228-1.227,3.895-3.181,4.497-5.797
	c0.645-2.803-0.406-5.374-2.712-6.743c-1.714-1.018-2.838-0.704-3.952,1.018c-0.611,0.944-1.386,1.659-2.73,1.028
	c0-0.519-0.106-1.065,0.02-1.553c0.424-1.64,0.976-3.247,1.394-4.889c0.417-1.647,0.953-3.308,1.046-4.984
	c0.235-4.284,0.258-8.579,0.352-12.871c0.012-0.521-0.01-1.052-0.103-1.562c-0.579-3.242-1.299-6.463-1.752-9.722
	c-0.665-4.787-2.562-9.172-4.229-13.628c-0.678-1.818-1.795-3.465-2.615-5.235c-1.995-4.307-4.89-8.009-7.771-11.722
	c-0.239-0.309-1.145-0.555-1.312-0.392c-1.366,1.334-2.745,2.518-4.697,2.998c-1.344,0.331-2.615,0.998-3.87,1.618
	c-1.645,0.813-3.542,0.644-5.071,2.256c-2.023,2.133-3.239,4.617-4.536,7.112c-0.646,1.239-1.051,2.604-1.702,4.261
	c1,0,1.536-0.039,2.063,0.006c1.547,0.135,3.141,0.115,4.622,0.509c1.445,0.384,2.258,0.302,2.547-1.068
	c0.192-0.914,0.672-1.314,1.346-0.909c0.341,0.207,0.514,1.253,0.306,1.716c-0.92,2.054-2.465,2.592-4.716,1.926
	c-1.102-0.326-2.244-0.74-3.365-0.729c-3.476,0.03-6.814,0.482-9.972,2.326c-2.979,1.741-4.396,4.102-4.419,7.418
	c-0.014,2.043,1.206,3.178,3.232,3.312c2.656,0.173,4.077-1.652,5.648-3.303c0.793-0.833,1.621-2.159,2.536-2.252
	c2.965-0.303,6.005-0.503,8.689,1.458c2.03,1.481,4.219,2.681,6.908,2.527c2.438-0.139,2.879-0.474,3.344-2.876
	c0.054-0.277,0.396-0.498,0.604-0.744c0.293,0.299,0.757,0.553,0.848,0.905c0.496,1.951-1.63,3.976-3.12,4.188
	c-2.899,0.416-5.651,0.117-8.315-1.408c-2.12-1.213-4.164-2.617-6.944-2.527c-2.292,0.072-3.576,0.809-3.565,2.772
	c0.025,4.622,0.452,9.252,0.945,13.853c0.12,1.122,1.065,2.193,1.785,3.173c0.099,0.135,1.081-0.461,1.683-0.6
	c4.256-0.977,8.5-1.874,12.712,0.277c1.497,0.766,3.36,0.894,4.328,2.518c0.183,0.306,0.077,0.782,0.105,1.179
	c-0.408,0.024-0.857,0.166-1.212,0.038c-0.347-0.124-0.555-0.59-0.894-0.785c-1.406-0.812-2.767-2.04-4.274-2.269
	c-3.26-0.496-6.641-0.55-9.811,0.591c-2.39,0.859-4.747,2.049-5.381,4.88c-0.768,3.42-0.649,6.785,1.183,9.915
	c1.188,2.031,2.601,3.816,4.848,4.82c1.032,0.463,1.952,1.174,2.923,1.772c-0.062,0.277-0.123,0.554-0.185,0.831
	c-0.976,0.148-1.947,0.336-2.929,0.437c-1.988,0.206-3.982,0.358-5.973,0.553c-0.193,0.018-0.418,0.124-0.557,0.262
	C515.207,248.138,513.866,249.489,512.209,251.152z M126.242,194.721c0.204-0.057,0.407-0.113,0.611-0.171
	c0.125-3.064,0.531-6.151,0.31-9.191c-0.3-4.13-2.935-7.018-6.099-9.43c-0.228-0.174-0.583-0.292-0.863-0.266
	c-0.997,0.088-1.3-0.402-1.532-1.312c-0.402-1.576-0.796-3.233-1.625-4.592c-0.495-0.814-1.812-1.125-2.759-1.661
	c-0.213,0.892-0.792,1.886-0.574,2.656c0.745,2.64,0.132,2.833-2.559,3.842c-3.345,1.254-5.189,3.951-6.211,6.846
	c-1.143,3.239-0.69,6.764,1.386,9.829c0.821,1.214,0.519,1.892-0.921,2.365c-3.097,1.018-5.526,2.976-7.507,5.484
	c-1.343,1.7-2.607,3.479-3.753,5.316c-1.877,3.01-3.938,5.96-5.359,9.183c-1.923,4.362-3.454,8.921-4.258,13.66
	c-0.371,2.19-0.817,4.408-0.793,6.61c0.026,2.249,0.467,4.52,0.948,6.731c0.419,1.931,0.745,4.071,1.824,5.626
	c2.01,2.897,5.39,4.033,8.664,4.753c3.556,0.781,7.09-0.304,10.161-2.002c3.432-1.897,6.505-4.353,8.33-8.112
	c1.5-3.091,2.256-6.098,0.622-9.298c-1.342-2.626-3.025-4.957-6.288-5.284c-1.057-0.105-2.156-0.015-3.212,0.143
	c-2.812,0.415-6.426,2.22-6.913,5.241c-0.176,1.09-0.429,2.167-0.686,3.443c-0.432-0.312-0.611-0.372-0.663-0.487
	c-1.164-2.651-0.049-6.137,2.513-7.481c1.621-0.851,3.307-1.64,5.049-2.181c2.663-0.827,5.396-0.871,7.644,1.063
	c3.279,2.823,5.109,6.343,4.487,10.839c-0.048,0.352,0.144,0.735,0.224,1.105c0.583-0.59,0.853-1.19,0.981-1.819
	c0.544-2.676,1.243-5.341,1.508-8.048c0.26-2.653,0.157-5.355,0.026-8.027c-0.064-1.317-1.078-1.868-1.967-1.129
	c-1.198,0.998-2.485,1.087-3.913,1.166c-4.174,0.236-5.312-1.25-6.638-4.087c-0.521-1.114,0.068-1.867,0.88-2.448
	c0.306-0.219,0.84-0.122,1.27-0.168c-0.02,0.469,0.15,1.154-0.093,1.369c-1.138,1.004-0.41,1.797,0.235,2.495
	c1.545,1.676,3.55,1.444,5.541,1.162c2.07-0.294,3.145-2.08,4.706-3.134c1.65-1.115,3.128-2.59,5.402-1.04
	c1.161,0.792,2.538-0.298,2.523-1.823c-0.005-0.506-0.222-1.005-0.288-1.515c-0.231-1.796-1.029-2.702-2.788-2.447
	c-2.326,0.337-4.608,1.004-6.89,1.603c-1.478,0.388-3.043-0.347-3.581-1.604c-0.505-1.18-1.233-2.265-1.858-3.395
	c-0.286-0.518-0.558-1.044-0.835-1.565c0.665,0.082,1.336,0.135,1.991,0.268c0.223,0.045,0.461,0.254,0.596,0.454
	c0.901,1.325,1.775,2.669,2.812,4.241c0.005,0,0.373,0.033,0.73-0.007c2.088-0.231,3.144-1.498,2.851-3.502
	c-0.118-0.807-0.418-1.583-0.603-2.382c-0.523-2.261-1.647-4.06-3.454-5.612c-1.349-1.159-2.641-2.671-1.982-5.375
	c0.589,0.701,1.106,1.058,1.245,1.526c0.513,1.737,1.465,3.15,3.167,3.728c1.042,0.354,2.259,0.241,3.399,0.25
	c3.062,0.028,3.044,0.014,2.276-2.759c-0.101-0.365,0.094-0.811,0.151-1.219c0.403,0.138,0.86,0.199,1.198,0.432
	C125.488,193.89,125.846,194.334,126.242,194.721z M364.188,76.302c0-0.933-0.007-1.562,0.001-2.19
	c0.018-1.598,0.493-1.933,2.069-1.695c0.538,0.081,1.477-0.013,1.618-0.314c0.287-0.616,0.929-1.098,0.356-2.197
	c-1.184-2.277-0.864-2.841,1.416-3.405c0.706-0.175,1.938-0.389,1.979-0.707c0.151-1.192,0.918-2.467-0.239-3.672
	c-1.264-1.32-0.981-2.068,0.645-2.884c0.52-0.26,1.216-1.076,1.122-1.465c-0.21-0.873-0.725-1.783-1.371-2.416
	c-1.32-1.295-1.444-2.035,0.117-2.917c1.18-0.666,0.833-1.633,0.715-2.456c-0.05-0.353-0.932-0.657-1.481-0.854
	c-0.913-0.327-2.121-0.618-1.705-1.802c0.478-1.36,0.184-2.326-0.247-3.637c-0.562-1.702-1.566-1.728-2.883-1.921
	c-1.399-0.206-1.856-1.63-0.995-2.638c0.297-0.346,0.761-1.034,0.663-1.147c-0.412-0.478-0.965-1.009-1.545-1.126
	c-0.853-0.172-1.775-0.034-2.665,0.02c-1.763,0.106-2.28-0.332-2.306-2.015c-0.028-1.755-0.457-2.216-2.244-2.121
	c-0.64,0.035-1.279,0.355-1.891,0.611c-1.152,0.481-2.073,0.13-2.475-0.998c-0.854-2.394-1.9-2.753-3.96-1.361
	c-1.716,1.161-2.485,1.046-3.147-0.476c-0.682-1.564-2.876-2.238-3.995-0.998c-0.993,1.102-1.697,0.859-2.743,0.284
	c-2.006-1.104-3.213-0.473-3.579,1.701c-0.173,1.034-0.591,1.54-1.906,1.313c-0.894-0.153-2.064,0.325-2.834,0.896
	c-0.315,0.235-0.021,1.49,0.208,2.214c0.347,1.099-0.251,1.996-1.445,2.156c-1.265,0.17-2.526,0.442-3.757,0.786
	c-1.176,0.329-1.285,1.232-0.618,2.059c0.539,0.668,1.555,1.274,0.806,2.097c-0.487,0.537-1.602,0.512-2.441,0.717
	c-0.199,0.049-0.427-0.023-0.628,0.02c-1.269,0.271-1.913,1.191-2.155,2.346c-0.207,0.983,0.002,1.783,1.218,2.168
	c1.019,0.323,0.861,1.324,0.283,1.898c-0.548,0.542-1.366,0.881-2.125,1.125c-1.269,0.408-2.116,0.905-1.986,2.515
	c0.093,1.145,0.585,1.732,1.423,2.389c0.634,0.496,0.955,1.391,1.414,2.108c-0.731,0.406-1.479,0.787-2.191,1.226
	c-0.429,0.266-1.02,0.548-1.162,0.955c-0.77,2.199-0.263,2.99,2.058,3.861c0.516,0.194,1.041,0.747,1.238,1.26
	c0.104,0.273-0.397,0.937-0.78,1.204c-0.565,0.394-1.268,0.592-1.91,0.876c-0.002,1.844,1.004,2.965,2.752,3.26
	c1.003,0.169,1.881,0.399,1.989,1.855c0.188,2.566,2.285,4.069,4.641,3.462c1.628-0.42,2.477-0.033,2.95,1.666
	c0.485,1.736,4.237,3.218,5.367,1.981c1.426-1.562,2.188-0.371,2.909,0.301c1.413,1.317,3.282,1.614,4.656,0.248
	c1.06-1.054,1.763-0.763,2.578,0.196c1.151,1.358,3.709,1.023,4.473-0.558c0.988-2.05,1.533-2.164,3.292-0.661
	c0.975,0.833,1.84,0.668,3.037,0.209c1.695-0.651,1.186-2.26,2.071-3.428c0.759,0.115,1.616,0.336,2.478,0.351
	C362.229,76.592,363.145,76.411,364.188,76.302z M255.729,75.146c0.387,0.94,0.775,1.697,1.013,2.5
	c0.451,1.516,1.427,2.343,2.919,2.074c0.774-0.139,1.5-0.631,2.209-1.031c1.133-0.64,2.222-0.206,2.203,1.101
	c-0.021,1.416,0.934,1.656,1.849,1.819c1.184,0.212,2.227-0.137,3.064-1.187c0.309-0.388,1.194-0.535,1.751-0.433
	c0.378,0.069,0.934,0.782,0.907,1.173c-0.121,1.78,1.375,1.99,2.367,2.156c0.84,0.14,2.124-0.34,2.692-0.995
	c1.55-1.789,1.401-1.827,3.434-0.368c0.521,0.374,1.647,0.612,2.033,0.314c0.763-0.592,1.603-1.562,1.688-2.444
	c0.15-1.559,0.812-2.299,2.254-1.657c1.075,0.479,1.853,0.21,2.805-0.425c1.063-0.709,0.873-1.603,0.745-2.482
	c-0.24-1.646,0.396-2.384,2.047-2.119c0.9,0.145,1.817,0.299,2.116-0.838c0.296-1.126,0.901-2.475,0.542-3.407
	c-0.734-1.907-0.991-1.863,0.916-3.072c0.92-0.584,1.416-1.386,1.002-2.301c-0.367-0.813-1.071-1.611-1.834-2.073
	c-0.921-0.559-1.329-0.981-0.496-1.864c0.594-0.63,1.236-1.216,1.829-1.847c0.832-0.885,0.897-2.667-0.062-3.334
	c-1.655-1.153-1.858-2.303-0.461-3.765c0.146-0.153,0.11-0.496,0.129-0.752c0.128-1.72-0.54-2.792-2.4-3.603
	c-0.913-0.398-1.216-0.88-0.663-1.759c0.221-0.351,0.623-0.692,0.633-1.047c0.03-0.934,0.029-1.917-0.255-2.786
	c-0.097-0.294-1.191-0.574-1.626-0.388c-1.177,0.504-2.076,0.089-2.479-0.829c-0.203-0.462,0.473-1.312,0.754-1.984
	c0.203-0.486,0.648-1.006,0.581-1.448c-0.345-2.242-3.392-3.422-4.9-1.793c-1.147,1.238-1.756,0.57-2.325-0.264
	c-0.376-0.551-0.503-1.347-0.539-2.044c-0.098-1.892-0.884-2.799-2.802-2.665c-1.355,0.096-2.676,0.63-4.033,0.773
	c-0.688,0.072-1.601-0.076-2.104-0.494c-1.94-1.616-3.362-1.428-4.644,0.804c-0.98,1.707-1.793,1.777-3.257,0.569
	c-0.623-0.514-1.562-0.646-2.356-0.952c-0.249,0.657-0.453,1.334-0.757,1.963c-0.265,0.549-0.534,1.228-1.004,1.5
	c-0.332,0.192-1.232-0.026-1.479-0.358c-0.94-1.263-1.909-0.669-2.867-0.195c-1.039,0.513-1.002,1.317-0.726,2.364
	c0.154,0.582-0.172,1.484-0.599,1.952c-0.25,0.274-1.125-0.004-1.716-0.062c-0.339-0.034-0.704-0.249-1.003-0.172
	c-2.174,0.562-2.938,1.965-2.53,4.182c0.107,0.583-0.076,1.501-0.481,1.834c-0.761,0.625-1.753,1.007-2.698,1.365
	c-2.207,0.838-2.746,2.766-1.219,4.444c0.257,0.283,0.586,0.811,0.481,1.053c-0.275,0.638-0.655,1.429-1.213,1.691
	c-0.562,0.265-1.388-0.034-2.273-0.099c-0.066,0.36-1.495,0.809-0.279,1.814c-0.696,2.128,0.614,3.091,2.195,4.025
	c0.396,0.233,0.61,1.062,0.59,1.606c-0.011,0.32-0.647,0.618-1.017,0.938c0-0.565,0.144-1.097-0.036-1.25
	c-0.227-0.194-0.891-0.25-1.065-0.071c-0.815,0.84-2.406,1.251-1.583,3.07c0.337,0.749,0.387,1.439,1.369,1.7
	c0.825,0.22,1.592,0.711,2.335,1.165c0.707,0.433,0.851,0.975,0.481,1.852c-1.054,2.503-0.333,4.812,3.05,4.555
	c0.9-0.069,1.811,0.379,1.525,1.169c-0.509,1.408,0.203,2.248,0.828,3.24c0.688,1.089,1.774,1.386,2.905,0.75
	C254.631,75.755,255.073,75.511,255.729,75.146z M340.032,90.067c-0.046-0.093-0.091-0.186-0.137-0.279
	c-0.674,0.191-1.363,0.34-2.02,0.58c-2.604,0.951-5.184,1.972-7.8,2.887c-3.027,1.057-6.162,1.846-9.104,3.094
	c-2.774,1.177-5.363,2.796-8.029,4.226c-0.747,0.4-1.469,1.122-2.231,1.164c-1.951,0.108-3.935,0.312-5.832-0.653
	c-1.632-0.83-3.379-1.442-5.101-2.082c-3.693-1.371-7.375-2.783-11.114-4.019c-3.941-1.302-7.943-2.424-11.922-3.614
	c-1.218-0.364-2.459-0.653-3.67-1.038c-1.75-0.557-3.459-1.256-5.229-1.736c-2.773-0.753-5.599-1.312-8.372-2.065
	c-3.905-1.059-7.773-2.26-11.677-3.324c-3.174-0.865-6.394-1.56-9.563-2.438c-2.869-0.795-5.669-1.843-8.55-2.583
	c-3.235-0.832-6.528-1.434-9.792-2.153c-2.464-0.542-4.91-1.18-7.386-1.655c-4.658-0.896-9.321-1.783-14.005-2.529
	c-4.593-0.731-9.254-1.079-13.812-1.967c-5.159-1.005-10.424-0.587-15.598-1.715c-4.127-0.9-8.485-0.742-12.739-1.068
	c-3.936-0.302-7.865-0.744-11.806-0.907c-5.361-0.222-10.73-0.282-16.096-0.321c-2.346-0.018-4.698,0.129-7.036,0.327
	c-0.7,0.06-1.795,0.404-1.944,0.865c-0.236,0.734-0.043,1.811,0.384,2.476c0.257,0.398,1.409,0.573,1.979,0.363
	c3.895-1.436,7.99-1.158,11.998-1.441c2.852-0.202,5.745,0.11,8.614,0.271c1.914,0.107,3.829,0.292,5.729,0.547
	c2.97,0.398,5.929,0.883,8.892,1.333c4.283,0.651,8.6,1.135,12.838,2.001c5.178,1.06,10.277,2.497,15.436,3.659
	c2.211,0.499,4.483,0.746,6.734,1.058c4.452,0.618,8.911,1.181,13.362,1.808c2.914,0.411,5.824,0.865,8.727,1.354
	c2.693,0.455,5.37,1.014,8.063,1.467c2.696,0.453,5.412,0.783,8.105,1.253c2.723,0.477,5.424,1.082,8.142,1.589
	c4.2,0.785,8.415,1.498,12.608,2.316c2.063,0.402,4.089,1.004,6.143,1.462c3.5,0.781,7.03,1.437,10.507,2.304
	c2.688,0.671,5.332,1.536,7.967,2.403c3.418,1.124,6.809,2.33,10.208,3.509c3.045,1.056,6.094,2.104,9.129,3.188
	c3.131,1.117,6.255,2.257,9.367,3.424c0.702,0.263,1.614,0.511,1.959,1.061c0.734,1.166,1.524,0.957,2.502,0.564
	c1.967-0.788,3.947-1.54,5.92-2.311c1.77-0.691,3.564-1.326,5.299-2.096c1.768-0.787,3.407-1.911,5.224-2.534
	c4.161-1.425,8.424-2.554,12.594-3.953c4.257-1.43,8.426-3.125,12.688-4.535c2.479-0.82,5.056-1.357,7.606-1.938
	c3.26-0.742,6.545-1.374,9.809-2.1c3.361-0.749,6.71-1.548,10.062-2.334c3.606-0.845,7.198-1.747,10.816-2.538
	c2.718-0.593,5.459-1.086,8.201-1.553c2.646-0.45,5.312-0.797,7.964-1.21c2.757-0.429,5.507-0.894,8.263-1.322
	c3.418-0.531,6.842-1.016,10.257-1.566c2.378-0.384,4.729-0.976,7.119-1.242c3.815-0.426,7.655-0.645,11.484-0.977
	c4.656-0.404,9.304-0.963,13.968-1.224c6.119-0.342,12.248-0.604,18.375-0.625c5.009-0.017,10.024,0.312,15.028,0.616
	c1.68,0.102,2.685-0.368,3.079-2.038c0.104-0.442,0.349-0.857,0.572-1.261c0.541-0.973,0.158-1.767-0.931-1.812
	c-3.008-0.124-6.015-0.289-9.024-0.315c-5.679-0.049-11.356-0.015-17.036-0.012c-0.473,0-0.948-0.001-1.419,0.032
	c-2.697,0.192-5.394,0.412-8.093,0.586c-2.262,0.147-4.537,0.146-6.787,0.388c-4.062,0.436-8.11,0.99-12.161,1.523
	c-1.995,0.264-3.979,0.595-5.97,0.89c-2.142,0.317-4.279,0.66-6.426,0.934c-3.25,0.414-6.529,0.649-9.756,1.194
	c-3.855,0.65-7.658,1.597-11.502,2.321c-2.837,0.533-5.708,0.882-8.553,1.372c-2.639,0.455-5.275,0.924-7.89,1.5
	c-3.713,0.817-7.405,1.728-11.103,2.617c-1.95,0.469-3.892,0.979-5.839,1.465c-1.83,0.457-3.684,0.83-5.484,1.377
	c-3.541,1.074-7.053,2.248-10.579,3.372c-2.187,0.697-4.446,1.215-6.551,2.107c-3.198,1.355-6.283,2.977-9.436,4.44
	c-0.224,0.104-0.615-0.157-0.929-0.248c0.166-0.204,0.302-0.445,0.502-0.604C338.812,90.951,339.428,90.515,340.032,90.067z
	 M538.47,147.325c0.027,0.171,0.053,0.343,0.08,0.514c-0.957,0.933-2.197,0.556-3.351,0.766c-4.319,0.784-8.412,2.371-11.92,5.055
	c-3.527,2.698-6.731,5.786-8.651,9.905c-0.697,1.494-1.664,2.948-0.386,4.818c1.104,1.609,0.407,3.348-0.527,4.995
	c-0.307,0.542-0.166,1.696,0.232,2.219c1.931,2.535,4.61,2.658,6.905,0.343c1.121-1.133,2.035-2.471,3.124-3.816
	c1.522,2.536-1.653,3.427-1.786,5.626c1.21-0.237,2.244-0.323,3.188-0.659c0.948-0.341,1.776-0.922,2.56,0.274
	c0.104,0.156,0.783,0.083,1.105-0.072c2.354-1.135,4.791-2.144,6.996-3.525c3.44-2.156,5.946-5.261,7.64-8.938
	c0.648-1.405,0.729-3.071,1.379-4.475c0.473-1.022,1.283-2.166,2.243-2.624c1.829-0.872,3.865-1.321,5.831-1.892
	c5.112-1.484,9.485-4.22,13.167-8.004c2.287-2.349,4.187-4.984,3.5-8.748c-0.603-0.107-1.284-0.417-1.884-0.303
	c-2.36,0.452-4.696,1.04-7.041,1.574c-1.902,0.432-3.878,0.662-5.695,1.325c-5.257,1.919-9.447,5.371-13.101,9.542
	c-0.313,0.358-1.125,0.657-1.504,0.5c-0.728-0.304-0.862-0.959-0.177-1.624c1.552-1.503,3.052-3.06,4.609-4.556
	c0.731-0.703,1.556-1.31,2.327-1.973c0.563-0.484,1.213-0.913,1.637-1.502c0.59-0.818,1.004-1.76,1.487-2.653
	c1.779-3.293,3.96-6.392,4.534-10.239c0.333-2.222,0.597-4.391-0.658-6.898c-1.849,1.294-3.58,2.681-5.472,3.793
	c-3.211,1.887-5.405,4.768-7.357,7.733c-2.418,3.676-4.37,7.663-6.47,11.544c-0.218,0.402-0.284,1.178-0.044,1.457
	c0.258,0.3,0.958,0.236,1.469,0.302C537.128,147.196,537.8,147.255,538.47,147.325z M317.318,73.993
	c-2.784-3.953-3.303-8.283-3.623-12.677c-0.3-4.126,0.27-8.131,1.598-12.036c1.183-3.484,2.517-6.904,4.806-9.841
	c1.381-1.771,2.754-3.566,4.297-5.192c2.175-2.291,4.33-4.614,7.304-6c1.037-0.484,1.82-1.514,2.719-2.293
	c-0.106-0.185-0.212-0.368-0.318-0.552c-0.689,0.112-1.376,0.238-2.068,0.328c-0.482,0.062-0.976,0.131-1.457,0.097
	c-1.396-0.1-2.786-0.292-4.183-0.373c-5.789-0.334-11.578-0.708-17.373-0.938c-6.953-0.276-13.893,0.053-20.794,0.955
	c-1.424,0.186-2.815,0.621-4.222,0.941c-0.034,0.202-0.068,0.404-0.102,0.606c1.548,0.779,3.323,1.297,4.596,2.395
	c2.222,1.917,4.461,3.969,6.087,6.375c1.693,2.505,2.74,5.465,3.927,8.286c0.551,1.311,0.853,2.747,1.114,4.156
	c0.431,2.332,0.91,4.677,1.04,7.035c0.092,1.679-0.489,3.383-0.539,5.082c-0.126,4.31-1.452,8.258-3.242,12.115
	c-0.2,0.432,0.054,1.335,0.418,1.706c0.512,0.522,1.312,0.775,2.008,1.102c3.628,1.707,6.63,4.126,8.958,8.017
	C310.696,79.553,313.241,76.1,317.318,73.993z M132.542,123.443c0.016-1.852-0.802-2.485-2.641-2.773
	c-0.842-0.132-1.988-0.84-2.254-1.562c-0.432-1.169,0.88-1.044,1.622-1.251c0.247-0.069,0.497-0.145,0.725-0.258
	c0.85-0.42,1.38-0.853,0.589-1.896c-2.045-2.694-4.753-4.14-8.069-4.403c-1.723-0.137-3.468-0.077-5.199,0.001
	c-0.635,0.028-1.331,0.242-1.873,0.575c-2.83,1.738-2.918,3.886-2.236,7.245c0.652,3.207,3.389,5.135,6.095,6.632
	c2.254,1.247,4.764,2.07,7.226,2.884c1.48,0.49,3.085,0.604,5.012,0.958c-0.496-1.619-0.781-2.757-1.196-3.848
	c-0.395-1.036-0.353-1.706,0.945-1.853C131.684,123.849,132.059,123.623,132.542,123.443z M89.908,256.328
	c-0.114-0.174-0.228-0.349-0.342-0.523c-10.865,2.372-21.73,4.746-33.092,7.229c0.718,0.963,1.145,2.11,1.678,2.16
	c4.705,0.453,9.434,0.656,14.146,1.049c2.935,0.244,5.866,0.603,8.773,1.064c3.042,0.484,6.051,1.178,9.082,1.732
	c1.188,0.218,2.073-0.279,2.34-1.496c0.276-1.256-0.543-1.723-1.604-1.988c-0.627-0.158-1.228-0.423-1.87-0.648
	c0.469-1.208,1.333-2.349,1.151-3.283c-0.165-0.846-1.474-1.468-2.21-2.129C88.586,258.478,89.248,257.403,89.908,256.328z
	 M500.299,117.789c-0.362-2.644-0.838-5.163-2.919-6.981c-0.989-0.867-2.041-1.771-3.229-2.268
	c-0.778-0.325-2.316-0.309-2.693,0.184c-0.847,1.103-1.196,2.593-1.714,3.938c-0.164,0.427-0.439,1.002-0.285,1.331
	c0.758,1.602-0.596,2.085-1.404,2.835c-0.438,0.405-0.942,0.778-1.481,1.021c-1.128,0.507-0.787,1.067-0.184,1.729
	c0.711,0.778,0.843,1.482-0.207,2.154c-0.836,0.536-1.624,1.164-2.356,1.835c-0.309,0.285-0.418,0.79-0.618,1.195
	c0.495,0.24,0.972,0.576,1.494,0.688c0.362,0.077,0.898-0.357,1.167-0.212c0.706,0.383,1.779,0.908,1.84,1.469
	c0.089,0.832-0.629,1.693-1.78,1.601c-1.813-0.145-2.72,1.228-3.753,2.307c-0.272,0.284-0.32,1.024-0.146,1.409
	c0.122,0.271,0.809,0.446,1.213,0.399c1.068-0.123,2.19-0.223,3.166-0.633c2.443-1.025,4.92-2.042,7.197-3.38
	C497.624,126.049,499.703,122.35,500.299,117.789z M297.135,251.142c0.062,0.264,0.049,0.51,0.166,0.646
	c0.52,0.604,1.075,1.175,1.618,1.758c0.145-0.819,0.498-1.669,0.385-2.451c-0.157-1.083-0.791-2.092-1-3.176
	c-0.657-3.401-2.906-5.13-6.037-5.997c-1.562-0.433-3.125-0.871-4.708-1.216c-0.241-0.053-0.683,0.331-0.872,0.618
	c-0.669,1.021-0.546,2.145-0.523,3.327c0.054,2.758-0.206,5.521-0.229,8.282c-0.005,0.537,0.485,1.078,0.746,1.618
	c0.723-0.382,1.607-0.614,2.128-1.182c0.589-0.642,0.852-1.582,1.327-2.534c0.542,0.498,0.872,0.699,1.057,0.992
	c0.413,0.652,0.683,1.404,1.147,2.011c0.332,0.432,0.886,0.69,1.341,1.027c0.263-0.435,0.662-0.839,0.766-1.308
	C294.836,251.793,295.507,251.1,297.135,251.142z M330.046,253.474c0.182-0.644,0.394-0.99,0.349-1.3
	c-0.181-1.273-0.377-2.551-0.683-3.799c-0.681-2.779-1.253-5.42-4.909-6.173c-1.426-0.293-2.419,0.139-3.488,0.413
	c-0.865,0.222-1.572,1.206-2.256,1.939c-0.325,0.348-0.437,0.895-0.641,1.353c-0.5,1.122-1.187,2.201-1.451,3.374
	c-0.396,1.754-1.117,3.64,0.788,5.548c0.761-0.816,1.755-1.487,2.164-2.415c0.637-1.451,1.33-2.019,2.87-1.086
	c-0.274,1.825,0.661,2.931,2.555,3.567c0.347-0.686,0.66-1.439,1.093-2.115c0.386-0.605,0.902-1.124,1.362-1.681
	c0.555,0.518,1.114,1.028,1.66,1.555C329.599,252.789,329.691,252.973,330.046,253.474z M274.978,23.811
	c0.1-0.093,0.2-0.186,0.3-0.279c-0.265-0.272-0.498-0.59-0.801-0.809c-2.834-2.034-6.093-3.081-9.387-4.074
	c-5.793-1.746-11.679-2.603-17.749-2.391c-3.431,0.12-6.807,0.314-10.136,1.256c-2.292,0.647-2.325,0.531-1.947,2.896
	c0.284,0,0.598,0.057,0.884-0.008c3.092-0.709,6.074-1.968,9.376-1.573c1.109,0.132,2.286-0.339,3.4-0.228
	c3.181,0.318,6.349,0.768,9.515,1.217c2.344,0.332,4.718,0.584,7.006,1.158C268.654,21.781,271.802,22.853,274.978,23.811z
	 M348.794,274.521c-1.121,0.161-2.12,0.13-2.977,0.465c-1.58,0.616-3.04,1.975-4.615,2.088c-4.081,0.29-8.202,0.152-12.299-0.013
	c-0.887-0.036-1.284,0.019-1.671,0.776c-1.121,2.195-2.942,3.579-5.294,4.218c-0.787,0.213-1.672,0.063-2.458,0.279
	c-0.471,0.129-0.838,0.64-1.253,0.979c0.37,0.309,0.704,0.681,1.117,0.914c1.799,1.021,3.616,0.133,5.424-0.011
	c1.966-0.158,2.875-1.113,2.799-3.111c-0.046-1.209,0.285-1.983,1.651-2.276c0.868,1.435,2.247,1.689,3.844,1.623
	c2.187-0.094,4.379-0.023,6.617-0.023c0,0.698,0,1.105,0,1.789c0.591-0.745,0.919-1.603,1.416-1.714
	C344.405,279.752,347.237,278.433,348.794,274.521z M264.146,272.797c0.47,0.851,0.616,1.547,1.02,1.768
	c1.415,0.774,2.86,1.607,4.401,2.016c4.458,1.183,8.954,1.641,13.479,0.123c1.458-0.489,2.529,0.534,2.607,2.064
	c0.027,0.52,0.267,1.248,0.655,1.494c2.085,1.325,4.316,2.389,6.804,2.688c1.344,0.162,3.023-0.803,3.707-1.975
	c-4.603-1.322-9.26-2.55-12.111-6.896c-0.547,0.11-1.045,0.243-1.551,0.308c-2.677,0.339-5.374,0.56-8.031,1.019
	c-2.704,0.465-5.148-0.259-7.296-1.659C266.722,273.023,265.722,273.011,264.146,272.797z M518.266,187.766
	c-0.482-0.064-0.797-0.175-1.091-0.135c-2.093,0.293-4.173,0.698-6.272,0.905c-2.075,0.203-3.576,1.313-4.805,2.814
	c-0.829,1.013-1.665,2.213-1.19,3.619c0.247,0.729,0.865,1.43,1.501,1.886c0.277,0.199,1.073-0.159,1.541-0.427
	c1.377-0.788,2.641-1.81,4.076-2.457c1.658-0.748,3.453-1.196,4.902-1.681C517.417,190.635,517.829,189.242,518.266,187.766z
	 M336.168,24.134c0.013,0.23,0.026,0.461,0.039,0.691c0.5,0,1.046,0.132,1.493-0.022c3.035-1.044,6.073-2.085,9.065-3.247
	c4.686-1.821,9.591-2.425,14.544-2.685c5.52-0.289,10.985,0.107,16.302,1.799c0.503,0.161,1.1,0.021,1.654,0.021
	c-0.155-0.628-0.438-1.026-0.824-1.209c-2.673-1.269-5.598-1.572-8.454-1.53c-5.561,0.083-11.164-0.729-16.681,0.851
	c-2.703,0.773-5.58,0.926-8.299,1.656c-2.15,0.576-4.187,1.587-6.259,2.441C337.869,23.264,337.027,23.72,336.168,24.134z
	 M343.898,272.711c-7.176,0-14.036,0-20.817,0c-1.125,2.837-3.526,3.824-5.936,4.928c0.421,0.3,0.821,0.521,1.125,0.426
	c1.767-0.553,3.538-1.112,5.245-1.817c0.532-0.218,1.026-0.83,1.271-1.381c0.581-1.302,1.457-1.284,2.55-0.823
	c0.369,0.155,0.757,0.354,1.144,0.368c3.235,0.138,6.476,0.381,9.705,0.285c1.652-0.049,3.291-0.703,4.923-1.139
	C343.357,273.49,343.527,273.123,343.898,272.711z M320.278,93.87c-0.259-0.091-0.464-0.198-0.682-0.235
	c-2.173-0.372-4.429-0.21-6.505-1.256c-0.531-0.268-1.392,0.091-2.095,0.201c-0.656,0.102-1.3,0.329-1.958,0.374
	c-2.711,0.185-5.628-1.114-8.047,1.246c-0.378,0.368-1.188,0.272-1.785,0.439c-0.315,0.088-0.601,0.282-0.9,0.427
	c0.004,0.132,0.007,0.263,0.01,0.395c0.431,0.078,0.864,0.228,1.292,0.217c0.875-0.021,1.75-0.207,2.621-0.183
	c1.823,0.05,3.613,0.192,5.302-0.833c0.478-0.29,1.325-0.144,1.945,0.019c1.134,0.297,2.233,1.105,3.33,1.076
	C315.355,95.687,318.035,95.813,320.278,93.87z M283.494,85.117c-0.241,0.18-0.481,0.359-0.722,0.539
	c0.529,0.192,1.071,0.355,1.585,0.582c3.974,1.749,8.081,2.336,12.35,1.392c1.563-0.346,3.178-0.649,4.542-1.906
	c-2.138,0-3.95-0.004-5.76,0.001c-2.342,0.006-4.489-0.461-6.165-2.293c-0.191-0.209-0.792-0.208-1.128-0.091
	C286.614,83.893,285.059,84.518,283.494,85.117z M373.205,22.698c-1.526-0.24-2.95-0.942-3.848-0.522
	c-3.851,1.8-7.299,4.245-9.949,7.676c0.392,0.318,0.701,0.619,1.056,0.852c1.239,0.811,2.35,0.663,3.234-0.49
	c1.594-2.08,3.398-3.898,5.742-5.156C370.636,24.416,371.749,23.618,373.205,22.698z M103.23,251.546
	c0.04,0.116,0.08,0.231,0.121,0.347c5.076,0,10.153,0,15.229,0c0.093-0.171,0.185-0.341,0.277-0.511
	c-1.039-0.737-1.983-1.713-3.134-2.165c-3.558-1.397-6.962-0.813-10.17,1.218C104.833,250.89,104.007,251.181,103.23,251.546z
	 M351.181,250.975c1.355,0.172,2.38-0.199,2.546-1.171c0.396-2.333,0.776-4.676,0.976-7.031c0.154-1.826,0.066-3.677-0.009-5.513
	c-0.022-0.551-0.222-1.313-0.609-1.565c-0.341-0.224-1.268-0.052-1.555,0.277c-0.323,0.371-0.287,1.114-0.282,1.694
	c0.008,0.773,0.268,1.558,0.188,2.315C352.063,243.614,351.614,247.241,351.181,250.975z M268.769,235.082
	c-1.483-0.396-2.172,0.083-2.476,1.56c-0.391,1.894-0.91,3.788-1.627,5.581c-0.9,2.249-0.722,4.517-0.478,6.798
	c0.032,0.3,0.939,0.835,1.208,0.72c0.812-0.353,1.56-0.797,1.592-2.001c0.065-2.403-0.162-4.809,0.79-7.189
	C268.444,238.885,268.455,236.958,268.769,235.082z M363.344,22.178c-4.295-1.042-7.65,0.411-10.542,3.158
	c-0.412,0.392-0.609,1.009-0.906,1.522c0.51,0.182,1.017,0.369,1.527,0.544c0.343,0.117,0.693,0.209,1.036,0.329
	c1.257,0.439,2.271,0.539,3.262-0.793c0.857-1.157,2.195-1.961,3.331-2.909C361.807,23.4,362.58,22.794,363.344,22.178z
	 M323.805,79.571c0.329,1.618-0.555,2.274-1.464,2.292c-2.899,0.056-5.899,1.116-8.694-0.67c-0.262-0.167-0.952,0.335-1.444,0.527
	c0.206,0.499,0.277,1.252,0.645,1.444c0.836,0.438,1.802,0.673,2.74,0.866c3.974,0.815,7.79,0.492,11.289-1.755
	c0.334-0.214,0.548-0.613,0.905-1.029C326.295,80.621,325.05,80.095,323.805,79.571z M347.097,248.357
	c0,0.474-0.061,0.67,0.01,0.781c0.354,0.551,0.741,1.08,1.116,1.615c0.271-0.474,0.567-0.938,0.806-1.429
	c0.11-0.224,0.072-0.517,0.161-0.755c1.428-3.815,1.114-7.699,0.463-11.596c-0.145-0.876-0.697-1.322-1.542-1.023
	c-0.708,0.25-1.062,0.677-0.85,1.672c0.359,1.69,0.513,3.464,0.464,5.194C347.669,244.772,347.294,246.72,347.097,248.357z
	 M314.503,283.098c-4.881-0.42-9.607-0.826-14.336-1.233c-0.311,1.297,0.742,1.877,1.539,2.135c2.97,0.958,6.064,1.624,9.169,1.056
	c1.212-0.223,1.558,0.028,1.71,1.126c0.646-0.203,1.17-0.367,1.653-0.519C314.338,284.701,314.428,283.843,314.503,283.098z
	 M262.691,234.947c-1.825,2.417-2.646,4.901-2.483,7.675c0.014,0.235-0.183,0.474-0.215,0.719c-0.208,1.605-0.561,3.218-0.511,4.816
	c0.02,0.655,0.924,1.283,1.425,1.926c0.343-0.691,1.106-1.493,0.959-2.056c-0.731-2.787,0.343-5.322,0.876-7.918
	c0.345-1.678,0.975-3.299,1.516-5.071C263.54,234.997,263.03,234.967,262.691,234.947z M241.832,21.404
	c-0.094,0.224-0.188,0.448-0.28,0.673c0.924,0.493,1.813,1.072,2.779,1.464c3.658,1.484,7.186,3.13,9.838,6.231
	c0.327,0.383,1.25,0.451,1.845,0.351c0.536-0.09,1-0.61,1.495-0.939c-0.386-0.438-0.69-1.022-1.171-1.289
	c-2.971-1.653-5.927-3.352-9.001-4.792C245.616,22.295,243.674,21.955,241.832,21.404z M248.713,20.474
	c0.742,0.509,1.135,0.83,1.572,1.068c2.787,1.521,5.542,3.11,8.396,4.494c1.433,0.695,2.886,2.311,4.853,0.488
	c-0.422-0.402-0.773-0.917-1.261-1.171c-1.848-0.962-3.713-1.896-5.623-2.727c-1.009-0.439-2.13-0.619-3.183-0.97
	c-0.46-0.153-0.989-0.339-1.289-0.683C251.333,20.005,250.377,19.922,248.713,20.474z M257.292,248.017
	c0.104-4.886,0.891-9.59,3.033-14.009c-2.454-0.664-2.756-0.453-2.827,1.643c-0.015,0.447-0.11,0.92-0.29,1.326
	C255.587,240.66,255.287,244.337,257.292,248.017z M287.9,272.51c-0.109,0.13-0.218,0.259-0.327,0.388
	c0.45,0.6,0.784,1.366,1.369,1.773c2.575,1.795,5.536,2.723,8.544,3.479c0.283,0.07,0.795-0.225,0.981-0.5
	c0.139-0.205,0.043-0.783-0.157-0.963c-0.444-0.398-0.984-0.77-1.549-0.946c-1.826-0.565-3.763-0.872-4.767-2.845
	c-0.12-0.233-0.637-0.354-0.977-0.369C289.98,272.48,288.94,272.51,287.9,272.51z M316.466,272.581c-6.424,0-12.456,0-18.81,0
	C299.981,274.761,314.342,274.811,316.466,272.581z M127.442,171.968c-2.149-0.625-3.215,1.024-4.55,1.957
	c-0.2,0.141-0.073,1.242,0.243,1.543c1.211,1.15,2.561,2.158,3.939,3.284C129.208,176.697,127.723,174.321,127.442,171.968z
	 M302.575,80.995c-0.746,0-1.292-0.112-1.771,0.019c-2.812,0.769-5.344,0.24-7.701-1.438c-0.209-0.148-0.887,0.006-1.051,0.234
	c-0.288,0.396-0.625,1.177-0.444,1.412c0.442,0.573,1.128,1.218,1.79,1.31c1.895,0.264,3.828,0.23,5.74,0.386
	C300.596,83.035,301.64,82.471,302.575,80.995z M314.305,277.729c-2.291,0-4.474-0.034-6.653,0.011
	c-2.063,0.044-4.124,0.171-6.186,0.262C303.323,280.105,313.351,279.641,314.305,277.729z M314.738,247.17
	c-4.601,0.752-8.968,2.03-13.562-0.712c0.168,0.808,0.144,1.484,0.354,1.567c1.144,0.456,2.35,0.757,3.528,1.129
	c2.25,0.71,4.515,0.315,6.734-0.059C312.806,248.926,314.278,249.135,314.738,247.17z M283.032,242.47
	c-2.654,0.282-4.777-0.645-6.822-1.907c-0.392-0.242-0.985-0.157-1.485-0.225c0.16,0.587,0.13,1.396,0.513,1.725
	c2.207,1.895,4.733,2.901,7.794,2.261C283.032,243.769,283.032,243.223,283.032,242.47z M272.657,244.222
	c0.042,0.587-0.017,0.84,0.082,0.987c1.463,2.166,3.653,3.361,6.097,3.754c0.97,0.155,2.914,0.539,3.043-1.121
	c-2.501-0.987-4.853-1.915-7.204-2.841C274.065,244.761,273.452,244.528,272.657,244.222z M319.285,79.548
	c0.006-0.035,0.011-0.07,0.016-0.106c0.367,0,0.745,0.056,1.098-0.013c0.48-0.095,0.942-0.284,1.412-0.432
	c-0.192-0.418-0.315-0.891-0.593-1.242c-0.403-0.513-0.848-1.07-1.403-1.368c-0.613-0.328-1.44-0.647-2.053-0.492
	c-0.746,0.19-1.419,0.82-2.016,1.376c-0.286,0.265-0.474,0.82-0.42,1.202c0.036,0.253,0.556,0.555,0.902,0.625
	C317.236,79.305,318.265,79.406,319.285,79.548z M336.123,251.368c0.074,0.182,0.147,0.363,0.221,0.545c2.728,0,5.454,0,8.603,0
	c-0.94-1.495-1.733-2.76-2.593-4.129C340.52,249.618,338.863,251.377,336.123,251.368z M344.405,237.091
	c-1.858,2.061-1.079,8.66,1.081,9.808C345.686,243.571,345.718,240.322,344.405,237.091z M281.805,88.153
	c-0.179,0.181-0.357,0.363-0.536,0.543c0.438,0.489,0.785,1.228,1.328,1.425c2.395,0.864,4.837,1.605,7.287,2.302
	c0.391,0.111,1.273-0.175,1.306-0.377c0.112-0.694-0.169-1.22-1.089-1.304c-1.223-0.112-2.468-0.306-3.63-0.688
	C284.878,89.53,283.356,88.796,281.805,88.153z M79.035,248.601c1.243,2.007,3.354,1.668,5.139,2.104
	c0.64,0.156,1.422-0.119,2.1-0.329c0.328-0.102,0.564-0.503,0.842-0.768c-0.332-0.259-0.629-0.599-1.002-0.765
	C83.806,247.805,81.407,249.307,79.035,248.601z M332.356,245.887c1.539-0.51,3.014-0.903,4.409-1.484
	c1.365-0.568,1.725-1.951,1.054-2.58c-1.857,0.702-3.602,1.363-5.463,2.067C332.356,244.357,332.356,245.026,332.356,245.887z
	 M277.35,252.169c-0.149-0.511-0.146-0.73-0.239-0.786c-1.863-1.095-3.708-2.233-5.639-3.195c-0.35-0.175-1.068,0.391-1.617,0.613
	c0.265,0.424,0.44,1.099,0.81,1.23C272.781,250.789,274.943,251.416,277.35,252.169z M299.352,78.79
	c0.104-0.074,0.566-0.239,0.677-0.537c0.075-0.202-0.275-0.691-0.554-0.873c-0.986-0.646-2.001-1.262-3.056-1.785
	c-0.318-0.157-0.925-0.122-1.177,0.091c-0.229,0.192-0.3,0.793-0.188,1.129C295.411,77.876,297.464,78.848,299.352,78.79z
	 M269.698,244.281c0.206,0.031,0.411,0.062,0.617,0.095c1.942-2.65,2.297-5.751,0.573-6.886
	C270.48,239.819,270.089,242.051,269.698,244.281z M276.594,236.799c0.947,2.079,3.583,3.648,5.521,2.632
	c-0.126-1.032-0.494-1.725-1.755-1.659c-0.536,0.028-1.087-0.258-1.631-0.403C278.018,237.18,277.306,236.988,276.594,236.799z
	 M339.433,245.995c-1.952,0.834-3.935,1.681-5.999,2.562c0.669,0.957,1.188,1.653,2.24,0.697c0.273-0.249,0.756-0.272,1.146-0.387
	C338.286,248.441,339.41,247.172,339.433,245.995z M280.708,87.561c-0.955-2.872-2.249-3.519-3.925-2.045
	C277.516,87.503,278.008,87.767,280.708,87.561z M333.107,89.06c1.745-0.477,3.491-0.953,5.574-1.521
	C336.192,85.744,334.665,86.158,333.107,89.06z M316.603,243.32c-1.876,0.598-3.411,1.069-4.929,1.594
	c-0.153,0.053-0.317,0.457-0.261,0.622c0.062,0.182,0.403,0.41,0.579,0.378c0.494-0.089,0.96-0.325,1.45-0.457
	c0.822-0.223,1.652-0.41,2.479-0.611c0.086,0.131,0.171,0.262,0.256,0.395C316.29,244.73,316.403,244.221,316.603,243.32z
	 M117.421,247.277c1.526,1.662,2.785,3.035,4.044,4.407c0.113-0.099,0.226-0.197,0.338-0.296c-0.541-1.709-1.524-3.142-3.062-4.148
	C118.453,247.052,117.912,247.253,117.421,247.277z M309.458,99.049c0.102-0.142,0.202-0.284,0.304-0.426
	c-0.353-0.445-0.736-1.286-1.053-1.26c-0.898,0.072-1.769,0.496-2.651,0.782c0.039,0.205,0.077,0.41,0.117,0.614
	C307.269,98.855,308.362,98.953,309.458,99.049z M305.477,245.639c-0.584-1.643-1.777-2.083-3.153-1.174
	C303.572,244.931,304.524,245.285,305.477,245.639z M355.527,249.897c0.229,0.067,0.461,0.135,0.69,0.203
	c1.115-0.89,1.232-2.026,0.473-3.396C356.303,247.769,355.915,248.833,355.527,249.897z M332.798,241.067
	c0.937-0.551,1.63-0.96,2.323-1.368c-0.279-0.207-0.55-0.577-0.836-0.589C333.393,239.072,332.461,239.131,332.798,241.067z"/>
<path style="fill-rule:evenodd;clip-rule:evenodd;" d="M65.278,226.008c0.524-0.478,0.974-1.196,1.585-1.382
	c1.527-0.463,2.027-1.514,2.542-2.901c0.791-2.132,0.949-4.096-0.223-6.084c-0.199-0.335-0.527-0.621-0.628-0.979
	c-0.109-0.386-0.022-0.828-0.02-1.245c0.468,0.057,1.111-0.065,1.378,0.195c2.4,2.352,2.975,7.446,0.82,9.998
	C69.478,225.097,67.908,226.725,65.278,226.008z"/>
<path style="fill-rule:evenodd;clip-rule:evenodd;" d="M75.745,221.503c0.038,2.962-2.598,6.492-5.388,7.284
	c-0.318,0.092-0.758-0.246-1.141-0.387c0.199-0.318,0.327-0.732,0.609-0.936c0.694-0.501,1.566-0.791,2.173-1.368
	c1.433-1.365,1.539-3.223,1.662-5.07c0.034-0.499,0.412-0.976,0.632-1.462c0.458,0.442,0.948,0.861,1.356,1.347
	C75.789,221.078,75.733,221.413,75.745,221.503z"/>
<path style="fill-rule:evenodd;clip-rule:evenodd;" d="M70.27,231.015c-0.53-1.262,0.458-1.823,1.218-1.547
	c1.443,0.525,1.889-0.498,2.588-1.18c0.325-0.317,0.443-0.875,0.794-1.131c0.293-0.215,0.79-0.15,1.196-0.21
	c0.042,0.37,0.258,0.855,0.101,1.092C74.807,230.08,73.164,231.762,70.27,231.015z"/>
<path style="fill-rule:evenodd;clip-rule:evenodd;" d="M77.689,240.546c-0.785,1.575-2.218,1.19-3.204,0.941
	c-1.06-0.269-1.979-1.182-2.879-1.912c-0.188-0.152-0.139-0.794,0.018-1.099c0.091-0.177,0.826-0.284,0.909-0.167
	c1.178,1.672,2.912,1.816,4.714,1.843C77.363,240.154,77.478,240.351,77.689,240.546z"/>
<path style="fill-rule:evenodd;clip-rule:evenodd;" d="M70.019,233.025c2.768,0.401,5.019,0.045,6.267-2.652
	c1.199,1.167,0.551,2.094-0.123,2.615C73.69,234.909,71.293,234.984,70.019,233.025z"/>
<path style="fill-rule:evenodd;clip-rule:evenodd;" d="M76.651,236.134c-0.5,1.62-3.12,2.397-4.224,1.265
	c-0.193-0.198-0.388-0.565-0.331-0.791c0.054-0.216,0.584-0.545,0.651-0.493c1.225,0.941,2.344,0.016,3.501-0.138
	C76.375,235.96,76.518,236.078,76.651,236.134z"/>
<path style="fill-rule:evenodd;clip-rule:evenodd;" d="M120.659,180.402c2.201,0.019,3.751,1.713,3.697,4.045
	c-0.048,2.064-1.639,3.515-3.833,3.497c-2.153-0.02-3.739-1.599-3.698-3.685C116.873,181.805,118.282,180.386,120.659,180.402z"/>
<path style="fill-rule:evenodd;clip-rule:evenodd;" d="M115.724,174.995c-0.302-1.783-0.551-3.247-0.808-4.766
	c1.291-0.782,1.572,0.58,1.786,1.065C117.195,172.412,117.691,173.75,115.724,174.995z"/>
<path style="fill-rule:evenodd;clip-rule:evenodd;" d="M355.262,56.523c0.368,3.372-0.906,6.359-3.564,8.47
	c-2.42,1.922-5.253,2.884-8.579,2.364c-5.364-0.838-7.216-4.829-8.453-9.174c-0.49-1.726,0.38-3.642,1.241-5.473
	c1.125-2.387,2.885-3.831,5.055-4.707c3.487-1.408,7.189-2.171,10.584,0.249C354.271,50.194,355.566,52.973,355.262,56.523z
	 M352.495,57.144c-0.29-3.561-1.358-5.851-4.396-6.838c-2.701-0.879-5.09,0.322-7.177,2.059c-0.653,0.544-1.148,1.305-1.85,1.766
	c-1.527,1.005-1.583,2.72-1.245,3.947c0.502,1.822,1.605,3.549,2.739,5.108c1.101,1.513,5.394,2.091,7.27,1.013
	C350.518,62.658,352.513,60.531,352.495,57.144z"/>
<path style="fill-rule:evenodd;clip-rule:evenodd;" d="M282.375,55.666c-0.298,6.345-4.571,10.241-10.202,11.364
	c-5.412,1.08-11.26-2.819-12.525-8.121c-0.387-1.624-0.37-3.38-0.289-5.063c0.038-0.792,0.542-1.648,1.048-2.312
	c1.36-1.786,2.617-3.749,4.316-5.154c2.515-2.08,5.621-1.987,8.684-1.261c3.243,0.767,5.659,2.889,7.521,5.406
	C281.918,51.862,281.924,53.929,282.375,55.666z M274.495,50.954l0.048,0.051c-0.303-0.563-0.523-1.194-0.923-1.676
	c-1.146-1.378-2.764-1.136-4.319-1.177c-3.488-0.091-7.291,3.277-7.038,7.069c0.074,1.104,0.374,2.197,0.61,3.287
	c0.745,3.443,4.973,6.389,8.375,5.694c3.665-0.75,6.588-2.352,7.596-6.452C279.587,54.729,277.516,51.183,274.495,50.954z"/>
<path style="fill-rule:evenodd;clip-rule:evenodd;" d="M527.935,163.541c-0.919-0.273-1.907-0.415-2.746-0.847
	c-1.939-0.999-2.185-2.82-0.976-4.641c1.492-2.247,3.521-3.41,6.162-3.5c2.94-0.099,4.557,2.502,3.234,5.181
	C532.471,162.041,530.783,163.556,527.935,163.541z M529.484,161.765c1.783-0.512,3.004-1.93,2.804-3.621
	c-0.081-0.685-0.716-1.403-1.291-1.871c-0.18-0.145-1.211,0.352-1.471,0.785C528.64,158.533,527.829,160.108,529.484,161.765z
	 M526.485,161.453c0.086-1.139,0.171-2.277,0.269-3.574C525.123,159.319,525.01,160.008,526.485,161.453z"/>
<path style="fill-rule:evenodd;clip-rule:evenodd;" d="M307.797,26.418c3.873,0.602,7.746,1.211,11.623,1.798
	c0.615,0.093,1.255,0.041,1.868,0.144c0.861,0.146,1.854,0.498,1.435,1.542c-0.258,0.643-1.276,1.483-1.852,1.413
	c-3.518-0.434-6.99-1.266-10.514-1.636c-2.306-0.242-4.696-0.122-7,0.189c-2.784,0.375-5.503,1.226-8.285,1.631
	c-0.643,0.094-1.427-0.785-2.147-1.216c0.401-0.55,0.715-1.47,1.219-1.589c2.744-0.649,5.523-1.167,8.31-1.598
	c1.742-0.269,3.521-0.306,5.282-0.447C307.757,26.572,307.775,26.495,307.797,26.418z"/>
<path style="fill-rule:evenodd;clip-rule:evenodd;" d="M307.362,32.075c3.523,0.544,7.053,1.052,10.565,1.658
	c0.846,0.146,2.025,0.254,1.694,1.679c-0.28,1.201-1.321,1.488-2.676,1.125c-4.349-1.166-8.725-2.155-13.269-1.057
	c-1.6,0.387-3.226,0.66-4.839,0.992c-1.061,0.218-1.893-0.332-2.057-1.208c-0.092-0.488,0.625-1.521,1.151-1.662
	c1.982-0.531,4.028-0.862,6.066-1.137c1.083-0.146,2.203-0.026,3.306-0.026C307.325,32.318,307.343,32.197,307.362,32.075z"/>
<path style="fill-rule:evenodd;clip-rule:evenodd;" d="M315.243,38.884c-0.004,1.76-0.936,1.783-1.848,1.665
	c-0.968-0.125-1.918-0.556-2.875-0.55c-2.409,0.014-4.819,0.184-7.228,0.32c-1.033,0.058-2.065,0.161-3.093,0.292
	c-0.902,0.114-1.377-0.434-1.267-1.136c0.095-0.598,0.622-1.541,1.059-1.602c2.796-0.387,5.618-0.734,8.436-0.769
	c1.961-0.025,3.941,0.402,5.884,0.781C314.754,37.97,315.073,38.69,315.243,38.884z"/>
<path style="fill-rule:evenodd;clip-rule:evenodd;" d="M314.945,42.432c-0.256,2.253-1.13,2.328-2.75,2.081
	c-2.981-0.455-6.036-0.659-8.954,0.663c-0.964,0.437-2.075,0.406-2.356-0.916c-0.229-1.074,0.425-1.416,1.5-1.817
	c2.998-1.121,6.05-0.881,9.095-0.818C312.643,41.648,313.796,42.15,314.945,42.432z"/>
<path style="fill-rule:evenodd;clip-rule:evenodd;" d="M312.232,46.283c0.306,0.626,0.531,1.091,0.769,1.579
	c-0.935,1.931-2.698,1.133-4.151,1.222c-1.948,0.119-3.911,0.019-5.852,0.186c-1.05,0.09-1.764-0.022-2.094-1.118
	c-0.392-1.303,0.697-1.665,1.437-1.762c1.564-0.206,3.17-0.097,4.76-0.105C308.79,46.277,310.482,46.283,312.232,46.283z"/>
<path style="fill-rule:evenodd;clip-rule:evenodd;" d="M306.774,51.058c0.996-0.001,2.009-0.113,2.979,0.046
	c0.494,0.081,1.216,0.603,1.274,1.006c0.061,0.414-0.464,1.107-0.912,1.352c-0.553,0.302-1.285,0.311-1.948,0.37
	c-1.442,0.128-2.891,0.207-4.336,0.309c-0.914,0.065-1.938,0.133-2.073-1.064c-0.13-1.138,0.596-1.884,1.719-1.994
	C304.566,50.975,305.674,51.059,306.774,51.058z"/>
<path style="fill-rule:evenodd;clip-rule:evenodd;" d="M303.407,59.59c-0.277-0.261-1.096-0.689-1.239-1.28
	c-0.098-0.404,0.659-1.359,1.189-1.506c1.722-0.477,3.511-0.712,5.281-1.007c1.05-0.176,1.561,0.639,1.442,1.363
	c-0.086,0.536-0.874,1.187-1.475,1.364C307.092,58.971,305.509,59.179,303.407,59.59z"/>
<path style="fill-rule:evenodd;clip-rule:evenodd;" d="M304.824,68.578c-0.009,0.967-1.232,2.327-2.053,2.283
	c-0.903-0.049-2.015-1.289-1.999-2.226c0.017-0.922,1.516-2.631,2.217-2.345C303.936,66.675,304.986,67.202,304.824,68.578z"/>
<path style="fill-rule:evenodd;clip-rule:evenodd;" d="M312.976,70.257c-0.853,0.563-1.32,1.064-1.865,1.172
	c-0.469,0.093-1.133-0.136-1.52-0.453c-0.59-0.483-1.102-1.118-1.481-1.781c-0.254-0.444-0.475-1.218-0.258-1.542
	c0.285-0.427,1.292-0.92,1.507-0.755C310.509,67.777,311.51,68.853,312.976,70.257z"/>
<path style="fill-rule:evenodd;clip-rule:evenodd;" d="M346.041,52.044c0.87,0.287,1.666,0.491,2.414,0.808
	c1.885,0.8,3.4,4.099,1.824,6.629c-1.129,1.811-2.506,2.766-4.52,3.301c-1.882,0.5-3.241,0.003-4.349-1.392
	c-1.182-1.489-2.561-3.046-1.466-5.117c0.297-0.561,1.254-0.975,1.95-1.045c0.434-0.044,0.991,0.637,1.409,1.074
	c0.378,0.396,0.57,1.186,0.974,1.287c0.485,0.121,1.473-0.174,1.592-0.516c0.237-0.677,0.258-1.621-0.046-2.256
	C345.172,53.45,345.069,53.408,346.041,52.044z"/>
<path style="fill-rule:evenodd;clip-rule:evenodd;" d="M274.495,50.954c0.372,0.523,0.716,1.07,1.122,1.566
	c2.132,2.619,1.084,6.589-1.934,8.123c-2.064,1.048-3.986,1.387-6.289,0.854c-2.193-0.508-4.091-5.005-2.701-6.688
	c0.343-0.414,1.018-0.944,1.398-0.85c0.659,0.163,1.503,0.648,1.743,1.22c0.585,1.392,1.514,1.871,2.82,1.417
	c0.873-0.303,1.416-0.907,0.735-2.044c-0.404-0.675-0.706-1.793-0.409-2.395c0.287-0.582,1.379-0.817,2.157-1.087
	c0.426-0.147,0.936-0.049,1.405-0.063C274.542,51.004,274.495,50.954,274.495,50.954z"/>
</svg>
