<?xml version="1.0" encoding="UTF-8" standalone="no"?>
<!-- Created with Inkscape (http://www.inkscape.org/) -->
<svg
   xmlns:dc="http://purl.org/dc/elements/1.1/"
   xmlns:cc="http://creativecommons.org/ns#"
   xmlns:rdf="http://www.w3.org/1999/02/22-rdf-syntax-ns#"
   xmlns:svg="http://www.w3.org/2000/svg"
   xmlns="http://www.w3.org/2000/svg"
   xmlns:sodipodi="http://sodipodi.sourceforge.net/DTD/sodipodi-0.dtd"
   xmlns:inkscape="http://www.inkscape.org/namespaces/inkscape"
   width="744.09448819"
   height="1052.3622047"
   id="svg2"
   sodipodi:version="0.32"
   inkscape:version="0.46"
   sodipodi:docname="Baloo.svg"
   inkscape:output_extension="org.inkscape.output.svg.inkscape">
  <defs
     id="defs4">
    <inkscape:perspective
       sodipodi:type="inkscape:persp3d"
       inkscape:vp_x="0 : 526.18109 : 1"
       inkscape:vp_y="0 : 1000 : 0"
       inkscape:vp_z="744.09448 : 526.18109 : 1"
       inkscape:persp3d-origin="372.04724 : 350.78739 : 1"
       id="perspective10" />
    <inkscape:perspective
       id="perspective2390"
       inkscape:persp3d-origin="372.04724 : 350.78739 : 1"
       inkscape:vp_z="744.09448 : 526.18109 : 1"
       inkscape:vp_y="0 : 1000 : 0"
       inkscape:vp_x="0 : 526.18109 : 1"
       sodipodi:type="inkscape:persp3d" />
    <inkscape:perspective
       id="perspective3345"
       inkscape:persp3d-origin="372.04724 : 350.78739 : 1"
       inkscape:vp_z="744.09448 : 526.18109 : 1"
       inkscape:vp_y="0 : 1000 : 0"
       inkscape:vp_x="0 : 526.18109 : 1"
       sodipodi:type="inkscape:persp3d" />
    <inkscape:perspective
       id="perspective3358"
       inkscape:persp3d-origin="372.04724 : 350.78739 : 1"
       inkscape:vp_z="744.09448 : 526.18109 : 1"
       inkscape:vp_y="0 : 1000 : 0"
       inkscape:vp_x="0 : 526.18109 : 1"
       sodipodi:type="inkscape:persp3d" />
    <inkscape:perspective
       id="perspective6773"
       inkscape:persp3d-origin="372.04724 : 350.78739 : 1"
       inkscape:vp_z="744.09448 : 526.18109 : 1"
       inkscape:vp_y="0 : 1000 : 0"
       inkscape:vp_x="0 : 526.18109 : 1"
       sodipodi:type="inkscape:persp3d" />
  </defs>
  <sodipodi:namedview
     id="base"
     pagecolor="#ffffff"
     bordercolor="#666666"
     borderopacity="1.0"
     gridtolerance="10000"
     guidetolerance="10"
     objecttolerance="10"
     inkscape:pageopacity="0.0"
     inkscape:pageshadow="2"
     inkscape:zoom="0.29086882"
     inkscape:cx="303.76397"
     inkscape:cy="304.45763"
     inkscape:document-units="px"
     inkscape:current-layer="layer1"
     showgrid="false"
     inkscape:window-width="1280"
     inkscape:window-height="1002"
     inkscape:window-x="1148"
     inkscape:window-y="-4" />
  <metadata
     id="metadata7">
    <rdf:RDF>
      <cc:Work
         rdf:about="">
        <dc:format>image/svg+xml</dc:format>
        <dc:type
           rdf:resource="http://purl.org/dc/dcmitype/StillImage" />
      </cc:Work>
    </rdf:RDF>
  </metadata>
  <g
     inkscape:label="Layer 1"
     inkscape:groupmode="layer"
     id="layer1">
    <path
       style="fill:#000000"
       d="M 339.40625,169.9375 C 338.21983,169.92398 335.62635,171.0447 332.46875,173.1875 C 329.88024,174.94409 327.2111,176.05711 326.5625,175.65625 C 325.91389,175.25541 323.82725,175.77991 321.90625,176.8125 C 319.98524,177.84509 317.39156,179.01911 316.15625,179.40625 C 314.92104,179.79337 312.71399,182.14363 311.25,184.625 C 309.04409,188.36368 308.34776,188.79989 307.15625,187.28125 C 304.51024,183.90876 296.88746,180.16103 292.65625,180.15625 C 281.45854,180.14356 275.27704,188.93187 275.28125,204.90625 C 275.28354,213.69118 275.7432,215.9005 278.75,221.03125 C 280.66299,224.29557 283.38755,227.30762 284.78125,227.75 C 287.52844,228.62191 288.08006,230.29628 286.03125,231.5625 C 283.23224,233.29235 279.30304,243.41576 275.15625,259.59375 C 266.67084,292.69884 261.71881,298.3471 232.0625,308.75 C 225.10689,311.18988 215.69335,314.92491 211.15625,317.0625 C 199.53034,322.53979 187.98513,324.63848 157.3125,326.78125 C 124.45441,329.0767 113.08476,330.62486 100.46875,334.5625 C 87.96138,338.46624 73.95408,347.78014 63.96875,358.84375 C 55.38598,368.35335 46.01664,385.77277 43,397.78125 C 40.74529,406.75665 40.47686,427.45374 42.5625,432.03125 C 44.32393,435.89715 46.1875,436.24529 46.1875,432.71875 C 46.1875,429.72646 47.17824,429.58891 50.53125,432.125 C 53.95178,434.71217 57.21902,434.69223 55.0625,432.09375 C 52.90639,429.4958 54.23581,429.67484 63.21875,433.25 C 75.94238,438.31395 88.815218,440.34375 108.375,440.34375 C 132.31308,440.34375 146.52235,437.1697 168.65625,426.9375 C 169.35424,426.61481 172.04845,430.89055 174.65625,436.4375 C 180.09904,448.01504 189.76344,458.72107 198.09375,462.40625 C 203.39284,464.75051 203.42335,464.80583 201.59375,468.34375 C 196.97194,477.28146 187.89155,501.30882 183.96875,514.9375 C 159.43728,600.16652 175.44561,688.24584 224.5,737.96875 C 230.08419,743.62909 238.06179,750.8501 242.25,754 C 249.44979,759.41502 249.83665,760.00151 249.46875,764.53125 C 249.25474,767.16625 247.9066,772.25346 246.4375,775.84375 C 244.96839,779.43406 243.0701,785.5046 242.25,789.34375 C 240.06906,795.9476 241.78756,802.13195 244.21875,808.5 C 245.67854,811.36152 249.2179,816.22653 252.0625,819.3125 C 257.64175,823.79828 263.27986,828.40185 267.34375,830.75 L 272.15625,833.21875 L 262.28125,837.8125 C 256.85204,840.334 248.96945,843.36619 244.78125,844.5625 C 235.53174,847.20455 234.47919,848.03635 231.25,854.90625 C 228.64939,860.43884 228.94849,862.96873 232.1875,862.96875 C 233.19329,862.96878 234,863.77539 234,864.78125 C 233.99999,867.70827 235.68605,868.03144 244.03125,866.6875 C 250.75764,865.60427 253.18264,865.81216 260.84375,868.09375 C 265.76634,869.5598 273.29874,871.22148 277.59375,871.78125 C 288.75114,873.23551 325.78766,873.26775 335.53125,871.84375 C 349.23374,869.84115 361.77876,863.28371 366.59375,858.46875 L 359.59375,820.71875 C 359.122,812.15713 370.54135,802.58652 371.71875,795.6875 C 383.92357,781.85258 399.14633,772.40756 415.40625,764.03125 C 455.22577,744.19164 484.4541,712.10269 498.5,672.78125 C 505.28232,653.7944 507.77435,625.11548 504.40625,604.6875 C 498.06237,566.21075 472.23684,525.02393 437.46875,497.875 C 431.74477,493.40543 425.82019,487.75189 424.3125,485.3125 C 413.54492,467.89005 401.53126,434.2604 401.53125,421.5625 L 401.53125,416.5 L 410.34375,413.25 C 432.85627,404.90539 464.5524,401.02589 485.9375,404 C 493.40802,405.03897 493.4898,404.99962 491.3125,402.59375 C 488.66042,399.66317 488.50725,398.4375 490.78125,398.4375 C 491.70667,398.4375 493.79809,397.02632 495.4375,395.28125 C 497.50342,393.08217 497.87789,392.09705 496.625,392.09375 C 495.63082,392.09115 496.66901,390.97692 498.9375,389.59375 C 501.20612,388.21057 503.06251,386.72637 503.0625,386.3125 C 503.06252,385.89865 501.20611,385.6877 498.9375,385.84375 C 490.09582,386.45198 489.62585,385.94112 495.53125,382.15625 C 501.20207,378.5218 516.90932,362.72915 532.25,345.28125 C 542.77382,333.31185 555.70121,322.4034 564.375,318.15625 L 571.1875,314.8125 L 578.6875,317.84375 C 582.81612,319.50726 594.90094,322.57896 605.53125,324.6875 C 616.16168,326.79606 626.03478,329.18464 627.5,329.96875 C 628.96513,330.75285 631.06544,331.04358 632.15625,330.625 C 635.44378,329.36348 638.58292,331.06865 641.4375,335.6875 C 645.18743,341.75505 648.99998,341.02974 649,334.25 C 649.00003,333.26006 650.02837,331.38526 651.25,330.0625 C 659.10703,321.55439 659.16128,321.34217 659.15625,309.8125 C 659.15258,301.08906 658.65117,297.95939 656.65625,294.6875 C 655.27308,292.41892 653.61842,290.5625 653,290.5625 C 652.38173,290.5625 650.53553,288.54701 648.875,286.0625 C 642.65123,276.75033 621.52476,263.65966 602.53125,257.34375 C 595.69467,255.07036 591.05382,254.46276 581.125,254.5 C 565.10742,254.56006 556.09976,256.94243 537.59375,266 C 527.08017,271.14577 519.9739,273.65503 510.9375,275.46875 C 490.11072,279.64898 474.82714,286.83127 461.71875,298.5625 C 454.39947,305.11277 445.92346,308.53451 427.90625,312.21875 C 413.70337,315.12302 384.19029,316.84814 381.4375,314.9375 C 380.02559,313.9575 380.07976,313.07159 381.78125,309.78125 C 384.13684,305.22605 383.9961,305.27308 390.75,307.625 C 397.02629,309.81059 402.38455,307.98791 409.15625,301.40625 C 415.97107,293.79714 429.55218,287.38311 428.90625,275.8125 C 425.10112,265.67508 416.02398,262.58244 407.75,257.375 C 403.27912,254.47509 397.21659,251.03964 394.25,249.71875 C 389.26539,247.4993 388.84374,246.9471 388.84375,242.46875 C 388.84374,239.52327 389.84285,236.33119 391.40625,234.34375 C 395.36084,229.31623 397.97774,222.04282 397.15625,218.375 C 396.48144,215.36227 396.8358,215.50418 400.875,220.125 C 403.31562,222.91709 405.3021,225.63273 405.3125,226.15625 C 405.32292,226.67976 405.84494,227.12499 406.46875,227.125 C 408.12557,227.125 405.6232,217.07499 402.75,212.1875 C 400.34692,208.09967 400.35759,208.0321 402.75,209.3125 C 404.08802,210.02855 406.7855,212.8796 408.75,215.65625 C 413.09522,221.79802 414.72685,222.15363 413.53125,216.65625 C 411.97297,209.49174 410.6339,206.97882 405.0625,200.875 C 401.55692,197.03436 400.51724,195.28823 402.15625,195.9375 C 408.56337,198.47552 409.50461,198.44453 408.0625,195.75 C 405.09582,190.20668 392.00496,184.4998 378.28125,182.78125 C 373.27054,182.15378 366.41709,180.67242 363.0625,179.46875 L 356.96875,177.28125 L 360.46875,173.65625 L 363.9375,170 L 360.84375,170.03125 C 359.14264,170.03807 354.64465,171.48074 350.84375,173.25 C 344.55084,176.17927 344.14295,176.23772 346.28125,173.875 C 348.57944,171.33555 348.57091,171.28124 345.8125,171.28125 C 344.26239,171.28125 341.74334,171.93769 340.21875,172.75 C 337.71284,174.08509 337.6129,174.03373 339.1875,172.125 C 340.39692,170.65888 340.32901,169.94801 339.40625,169.9375 z M 422.6875,273.4375 C 420.22408,271.77591 401.984,268.63857 398.0625,272.1875 C 388.93725,280.50422 397.90849,298.93365 395.03125,293.125 C 391.65624,286.50932 392.94099,277.32159 395.875,272.84375 C 401.22363,266.37415 417.50328,270.24149 422.6875,273.4375 z"
       id="path7051"
       sodipodi:nodetypes="csssssssssssssssssssssssssssssssssccccccssssssssccccsssscccsssssssssscccssssssssssssssssssscccssssssssssssssscccccssssscccccc" />
    <path
       style="fill:#ffaaaa"
       d="M 1072.2884,1520.4829 C 1072.2881,1520.3091 1074.6664,1522.4778 1077.5696,1525.2954 C 1080.4729,1528.1129 1084.4509,1531.3548 1086.4134,1532.5141 C 1088.3759,1533.6734 1090.8516,1536.798 1091.9134,1539.4516 C 1095.0509,1547.2931 1095.9519,1545.0678 1092.9134,1536.9829 C 1091.9737,1534.4822 1097.4246,1535.0909 1098.7884,1537.6391 C 1101.0282,1541.8243 1101.5652,1548.6468 1099.9134,1551.7954 C 1096.0383,1558.1333 1087.5025,1557.3263 1081.2884,1541.9829 C 1078.1374,1535.7407 1072.291,1521.7687 1072.2884,1520.4829 z"
       id="path7029"
       sodipodi:nodetypes="csssssccc" />
    <path
       style="fill:#b3b3b3"
       d="M 359.92699,1082.9766 C 352.30066,1082.9509 345.5273,1084.8312 342.45824,1090.0391 C 342.45823,1091.4121 341.62794,1091.6931 339.39574,1091.1329 C 338.92734,1091.0153 338.52958,1090.9483 338.17699,1090.9141 C 337.16774,1090.1843 333.91251,1090.6016 331.95824,1090.6016 C 313.48922,1097.5076 317.97477,1126.289 325.67699,1139.0391 C 334.05318,1151.2479 351.74447,1176.1453 368.52074,1169.9766 C 373.24305,1168.0035 373.66764,1166.7373 371.58324,1160.7579 C 370.52475,1157.7216 370.77039,1155.4369 372.67699,1149.7891 C 374.0802,1145.6328 375.1501,1141.9192 374.98949,1140.4766 C 377.92514,1140.5357 380.08478,1141.1335 383.11449,1142.4766 C 390.1244,1145.5843 390.03364,1145.5751 394.33324,1143.3516 C 396.26895,1142.3506 398.61364,1140.6322 399.52074,1139.5391 C 400.95254,1137.8139 400.68534,1137.5745 397.52074,1137.5704 C 391.54033,1137.5626 386.21059,1133.335 382.42699,1125.6016 C 379.48149,1119.5813 379.04194,1117.346 379.52074,1110.7266 C 380.26113,1100.49 383.82889,1096.9755 393.61449,1096.8829 L 400.20824,1096.8204 L 391.83324,1092.5079 C 387.70324,1088.3676 372.63755,1083.0195 359.92699,1082.9766 z M 334.48949,1097.1641 C 333.08659,1104.3013 333.41804,1115.7181 335.30199,1120.1641 C 337.71149,1125.8506 351.01639,1138.1091 356.86449,1140.0391 C 360.0189,1141.0802 364.48584,1141.335 369.58324,1140.7891 C 371.04299,1140.6328 372.29503,1140.5178 373.42699,1140.4766 C 371.22315,1142.8942 368.94015,1151.7549 369.33324,1158.1641 L 369.77074,1164.8516 L 364.83324,1165.2579 C 362.12584,1165.4799 358.20429,1164.936 356.11449,1164.0704 C 349.4137,1161.2948 341.35774,1146.2254 334.20824,1123.1016 C 331.33684,1113.8146 330.83794,1110.4002 331.45824,1103.7579 C 331.65353,1101.6663 333.02006,1099.2651 334.48949,1097.1641 z M 298.42699,1170.7579 C 281.82127,1170.6403 244.43631,1202.1997 227.70824,1232.8829 C 223.17014,1241.207 223.16854,1241.2686 225.08324,1246.6954 C 226.14285,1249.6984 227.35569,1255.3499 227.80199,1259.2579 C 228.4011,1264.5039 229.56749,1267.4612 232.23949,1270.5391 C 234.22998,1272.832 235.86884,1275.6856 235.89574,1276.8829 C 235.92264,1278.0802 237.77904,1280.2056 240.02074,1281.6016 C 242.26245,1282.9977 245.19154,1286.3789 246.52074,1289.1016 C 248.75683,1293.6819 248.77574,1294.15 246.83324,1295.5704 C 245.67844,1296.4147 244.73949,1298.0295 244.73949,1299.1329 C 244.73949,1302.9416 242.17049,1302.6926 236.80199,1298.3829 C 228.6135,1291.8095 228.08804,1291.6834 230.20824,1296.7579 C 232.61165,1302.5099 232.57144,1311.5563 230.14574,1314.6954 C 228.26124,1317.1341 228.21774,1317.134 226.33324,1314.6954 C 225.28624,1313.3404 224.42699,1311.4493 224.42699,1310.5079 C 224.42699,1308.1477 219.74399,1299.1309 217.92699,1298.0079 C 216.8608,1297.349 216.65464,1298.1774 217.20824,1300.9454 C 218.65174,1308.1632 213.07634,1320.3204 208.33324,1320.3204 C 206.73374,1320.3204 206.53709,1319.2861 207.23949,1314.6016 C 208.4213,1306.721 207.29089,1303.8204 203.05199,1303.8204 C 199.91729,1303.8204 199.15994,1304.9088 194.27074,1316.1954 C 149.59142,1419.3353 168.08459,1535.9443 237.42699,1588.1954 C 248.89389,1596.836 271.55304,1608.1768 284.08324,1611.5704 C 305.54685,1617.3835 334.32299,1618.8894 356.42699,1615.3516 C 372.5388,1612.7729 378.75849,1610.5746 385.86449,1604.9141 C 405.46359,1589.3018 422.30589,1556.0377 426.23949,1525.1954 C 427.54829,1514.9337 426.64079,1495.7471 424.92699,1497.6016 C 424.4065,1498.1649 422.51449,1507.5387 420.73949,1518.4141 C 415.92089,1547.939 410.97049,1559.463 401.36449,1563.4766 C 395.3451,1565.9917 390.05954,1565.6555 379.89574,1562.0704 C 361.70525,1555.654 334.37889,1532.9653 324.80199,1516.3204 C 322.41918,1512.1789 319.70209,1507.4744 318.73949,1505.8829 C 317.77689,1504.2914 314.29824,1501.7202 311.02074,1500.1641 C 304.51604,1497.0759 302.48949,1493.1669 306.80199,1492.0391 C 309.2167,1491.4077 309.10534,1491.1479 305.33324,1488.6016 C 303.07733,1487.0788 301.21714,1484.8998 301.20824,1483.7579 C 301.19923,1482.616 300.75409,1481.2413 300.23949,1480.7266 C 298.57389,1479.0611 299.27349,1476.3472 301.55199,1475.5391 C 302.77358,1475.106 304.81599,1473.8421 306.11449,1472.7266 C 307.94858,1471.1512 311.11349,1470.7412 320.23949,1470.8829 C 326.70088,1470.9832 333.17149,1471.7044 334.61449,1472.4766 C 336.05739,1473.2489 340.95029,1473.8829 345.48949,1473.8829 L 353.73949,1473.8829 L 350.14574,1465.9454 C 345.16663,1454.9574 339.02089,1434.4684 337.30199,1423.1641 C 334.6364,1405.6333 338.36524,1395.0704 349.45824,1388.7266 L 355.80199,1385.1016 L 348.92699,1385.9141 C 343.86239,1386.5122 342.31499,1386.3179 342.98949,1385.2266 C 344.57519,1382.6609 351.15749,1379.9326 356.42699,1379.6329 C 359.2198,1379.4741 361.48579,1379.1804 361.48949,1379.0079 C 361.49309,1378.8354 359.66434,1377.9404 357.39574,1377.0079 L 353.27074,1375.3204 L 357.92699,1374.4141 C 363.62119,1373.3323 377.46844,1376.0701 388.14574,1380.3829 C 392.42004,1382.1094 395.73754,1383.1523 395.52074,1382.6954 C 395.30405,1382.2385 392.74409,1377.3108 389.86449,1371.7266 C 376.93579,1346.6554 368.56444,1311.1562 364.08324,1262.5704 C 361.44524,1233.9694 358.72184,1215.615 355.70824,1206.0704 C 351.85625,1193.8702 343.64379,1181.5586 335.67699,1176.0704 C 330.2847,1172.3557 328.52274,1171.8328 321.70824,1171.8829 C 317.42183,1171.9144 312.23449,1172.6614 310.17699,1173.5391 C 306.93158,1174.9237 306.13054,1174.8364 304.14574,1172.8516 C 302.74183,1171.4477 300.79924,1170.7747 298.42699,1170.7579 z M 301.20824,1200.1329 C 301.31509,1200.128 301.41867,1200.1558 301.48949,1200.2266 C 301.83849,1200.5757 300.62769,1202.8017 298.80199,1205.1954 C 292.39079,1213.6009 286.20824,1232.3764 284.20824,1249.5704 L 283.14574,1258.7579 L 282.98949,1249.8829 C 282.81209,1239.0832 285.29769,1227.9766 290.42699,1216.6641 C 294.12459,1208.5093 299.60545,1200.2067 301.20824,1200.1329 z"
       id="path7035" />
    <path
       id="path7087"
       style="fill:#00ff00"
       d="M 1438.5538,1600.7419 C 1438.9451,1600.7107 1439.4603,1600.7823 1440.1163,1600.9294 C 1441.7348,1601.2924 1441.7723,1601.821 1440.3975,1604.3669 L 1438.7725,1607.3669 L 1437.9913,1604.4294 C 1437.3159,1601.847 1437.3799,1600.8356 1438.5538,1600.7419 z M 1440.6475,1621.4648 C 1440.3348,1622.404 1439.079,1621.8445 1437.835,1622.0857 C 1436.3881,1622.3661 1435.7838,1621.9279 1436.1475,1620.8357 C 1436.4602,1619.8965 1437.5011,1616.9867 1438.7452,1616.7456 C 1440.4646,1616.5914 1440.6768,1620.1016 1440.6475,1621.4648 z M 1429.0225,1514.9294 C 1429.1931,1514.9189 1429.3454,1514.9523 1429.46,1515.0232 C 1430.1833,1515.4702 1430.7725,1518.1315 1430.7725,1520.9294 C 1430.7725,1525.5875 1430.5384,1525.9253 1427.9913,1525.1169 C 1425.8766,1524.4457 1424.5641,1525.0566 1422.5225,1527.6169 C 1419.6867,1531.1734 1418.085,1530.8506 1418.085,1526.7419 C 1418.085,1523.9082 1426.4635,1515.0873 1429.0225,1514.9294 z M 1446.8038,1526.2419 C 1448.2895,1526.0517 1449.1788,1527.4367 1449.1788,1530.2732 C 1449.1788,1533.4408 1449.1825,1534.9125 1445.5373,1532.2954 C 1440.0853,1533.2969 1439.7263,1532.1319 1443.5538,1528.3044 C 1444.8151,1527.0431 1445.9124,1526.356 1446.8038,1526.2419 z"
       sodipodi:nodetypes="cscccccsscccsssssccscsc" />
    <path
       id="path7138"
       style="fill:#6c5353"
       d="M 1163.2579,1153.181 C 1162.3435,1153.2343 1161.3384,1153.7842 1160.4141,1154.5872 C 1158.1097,1154.3413 1154.9424,1154.0079 1153.1641,1157.0247 C 1150.6128,1157.6964 1147.0087,1160.4194 1147.6641,1165.3372 C 1146.13,1167.1738 1146.8672,1170.5248 1146.1329,1170.931 C 1141.1391,1173.6935 1140.0577,1179.3786 1142.4766,1181.2435 C 1143.644,1182.1435 1146.9117,1185.2392 1149.7579,1188.1497 C 1154.7764,1193.2817 1154.9606,1193.3627 1155.3516,1190.3685 C 1155.5734,1188.6703 1155.4748,1183.9672 1153.8516,1181.0247 C 1152.5403,1178.6476 1148.4065,1174.9905 1147.8516,1171.181 C 1148.2119,1171.6489 1151.1815,1172.1225 1151.6016,1172.556 C 1154.0542,1175.0864 1155.9852,1178.5954 1156.4454,1181.431 C 1157.5309,1188.1199 1159.9597,1186.4163 1160.4141,1178.6497 C 1160.7515,1172.883 1159.7482,1166.2283 1157.8516,1161.8372 C 1160.0092,1165.241 1162.0203,1170.2403 1162.6954,1174.4622 C 1163.8247,1181.525 1165.7296,1179.7559 1165.6954,1171.681 C 1165.6752,1166.8998 1164.2886,1161.6715 1162.4766,1158.2122 C 1164.2466,1160.0589 1166.2642,1161.8863 1166.6954,1161.8997 C 1166.87,1161.9052 1166.9873,1160.9338 1166.9766,1159.7122 C 1166.9562,1157.3769 1165.8363,1153.7508 1164.7891,1153.681 C 1164.3481,1153.3089 1163.8065,1153.149 1163.2579,1153.181 z M 1062.5199,1177.9143 C 1061.9244,1177.9143 1061.2981,1178.8282 1061.3012,1179.1955 C 1058.6463,1178.7903 1054.2527,1181.4897 1053.4574,1184.133 C 1050.7049,1185.735 1045.9288,1187.7963 1044.0824,1191.3205 C 1042.6036,1190.7626 1043.991,1190.053 1042.3637,1191.9143 C 1031.3119,1192.8259 1031.4776,1194.879 1034.5512,1199.1955 C 1037.1825,1202.8908 1037.9215,1209.0637 1036.3324,1214.0705 C 1034.8013,1218.8946 1037.9049,1216.8536 1040.6137,1211.258 C 1043.0242,1206.2785 1043.1583,1198.4492 1043.8949,1193.8518 C 1044.2592,1194.3772 1048.3325,1195.5491 1048.8324,1196.2268 C 1050.4925,1198.4769 1052.5525,1202.8561 1053.4262,1205.9768 C 1054.3,1209.0975 1055.5376,1211.6643 1056.1449,1211.6643 C 1056.7522,1211.6643 1057.2387,1208.1996 1057.2387,1203.9768 C 1057.2387,1198.3858 1057.2051,1192.4345 1056.4574,1188.508 C 1059.5254,1189.8628 1062.2454,1191.8455 1064.8637,1193.9143 C 1069.3952,1197.7117 1071.2074,1198.4836 1071.2074,1196.6643 C 1071.2074,1196.1029 1069.5865,1193.1113 1067.6137,1190.008 C 1066.0635,1187.5695 1065.0685,1185.0989 1064.1137,1183.0705 C 1064.7722,1183.7857 1065.5106,1184.5688 1066.4262,1185.508 C 1070.0986,1189.2751 1073.2802,1192.2026 1073.4887,1192.008 C 1073.6972,1191.8134 1073.479,1190.15 1073.0199,1188.3205 C 1072.0238,1184.352 1065.9678,1177.9143 1062.5199,1177.9143 z M 1097.482,1243.1154 C 1088.0416,1243.139 1084.1209,1244.9001 1090.482,1246.2717 C 1092.5031,1246.7075 1095.6131,1247.8635 1098.0132,1248.9904 C 1092.8948,1247.8789 1086.3776,1246.8967 1083.9195,1246.8967 C 1078.1921,1246.8967 1079.4245,1248.841 1087.107,1251.9592 C 1089.2365,1252.8234 1091.0131,1254.7482 1092.3257,1256.4592 C 1089.4963,1254.9156 1086.5251,1253.7667 1083.357,1253.2717 C 1081.304,1253.4116 1083.1883,1256.0022 1089.3882,1260.0842 C 1090.9591,1261.1185 1092.2983,1262.0025 1093.482,1262.7717 C 1091.9941,1263.4137 1090.3273,1264.8882 1088.9195,1264.8967 L 1084.607,1265.3029 L 1090.3257,1268.5217 C 1094.7816,1271.0345 1096.1393,1271.3513 1096.482,1269.9592 C 1096.654,1269.2604 1096.6852,1266.4733 1096.3257,1264.5529 C 1094.5429,1256.0505 1105.3757,1254.8226 1107.482,1249.3654 C 1108.8988,1244.9017 1105.9968,1243.0941 1097.482,1243.1154 z M 1058.2993,1305.9388 C 1055.1472,1305.9387 1044.8989,1309.9367 1043.393,1311.7513 C 1041.4133,1314.1367 1042.0009,1314.0212 1047.9243,1311.0013 C 1049.7273,1310.082 1053.5817,1310.576 1056.6118,1311.0325 C 1050.9149,1311.2096 1046.116,1313.037 1042.518,1316.4075 C 1036.6957,1321.8616 1040.675,1323.0056 1048.0493,1318.0013 C 1050.3886,1316.4137 1055.5757,1316.7466 1059.2368,1316.97 C 1054.6288,1317.2148 1049.4679,1318.8734 1045.7368,1322.1263 C 1042.3456,1325.0829 1044.3587,1326.5518 1050.268,1325.4075 C 1053.163,1324.8469 1057.5437,1324.483 1059.9868,1324.595 C 1062.4299,1324.707 1065.555,1324.9639 1066.9243,1325.1888 C 1068.3722,1325.4265 1069.5652,1324.8102 1069.7993,1323.6888 C 1072.5882,1320.2584 1060.7562,1311.8022 1058.2993,1305.9388 z" />
    <path
       style="fill:#333333"
       d="M 1070.6238,187.9611 L 1066.9676,190.2736 C 1064.958,191.55019 1061.7622,194.05081 1059.8426,195.8361 C 1055.4258,199.94394 1055.2698,197.54185 1059.6238,192.36735 C 1061.431,190.21972 1062.4096,188.4611 1061.7801,188.4611 C 1059.8875,188.46109 1054.2226,195.17107 1052.6863,199.24235 C 1051.3191,202.86565 1051.2782,202.81284 1051.9051,197.67985 C 1052.2902,194.52675 1052.0449,192.2736 1051.3113,192.2736 C 1049.6534,192.27361 1046.6992,197.09488 1045.6863,201.4611 C 1045.2409,203.38066 1044.3225,204.9611 1043.6551,204.9611 C 1042.8893,204.96109 1042.9053,203.76513 1043.6863,201.7111 C 1045.7702,196.22985 1044.9944,195.24469 1041.7176,199.24235 C 1039.9627,201.38332 1038.5962,204.71477 1038.5926,206.8361 L 1038.5926,210.61735 L 1036.5301,207.67985 C 1030.8,199.49889 1019.6078,195.1785 1013.1238,198.6486 C 1003.0841,204.02172 1003.2713,231.309 1013.4051,239.8361 L 1017.1863,243.0236 L 1022.1551,238.99235 C 1029.0167,233.47816 1029.0015,227.13392 1022.0926,224.92985 C 1021.0455,224.59583 1021.7355,224.53215 1023.6551,224.7736 C 1025.5745,225.01507 1027.1551,224.8497 1027.1551,224.3986 C 1027.1551,222.7971 1022.9405,218.92985 1021.1863,218.92985 C 1020.2062,218.92984 1019.7627,218.32205 1020.2176,217.5861 C 1020.764,216.70184 1022.1194,216.96133 1024.2176,218.3361 C 1027.3234,220.3711 1027.3703,220.32851 1026.5301,217.42985 C 1025.2671,213.072 1021.6289,208.34011 1018.1551,206.55485 C 1015.3398,205.10804 1015.3014,205.00963 1017.7176,204.99235 C 1021.1933,204.96752 1026.8859,211.05517 1028.4363,216.4611 C 1031.1936,226.07516 1028.3782,241.81766 1023.3426,244.92985 C 1022.176,245.65087 1022.1518,245.26496 1023.2176,243.2736 C 1024.9603,240.01714 1024.987,238.83167 1023.3113,239.86735 C 1021.4981,240.98795 1015.7488,252.67034 1015.7488,255.2111 C 1015.7488,256.88575 1016.0889,257.00091 1017.5301,255.80485 C 1019.0745,254.52313 1019.1451,254.94486 1017.9988,258.67985 C 1016.274,264.29971 1017.6719,272.39474 1020.1863,271.42985 C 1021.3917,270.96731 1022.2627,271.92682 1022.8426,274.3361 C 1023.3199,276.31914 1024.7642,280.05882 1026.0613,282.6486 C 1028.7758,288.06888 1028.9941,289.2374 1027.0301,288.0236 C 1026.2594,287.54725 1024.5196,284.77909 1023.1551,281.8986 L 1020.6551,276.67985 L 1021.1863,280.99235 C 1021.6524,284.87814 1021.5391,285.06757 1019.9988,282.9611 C 1019.0569,281.6729 1018.2801,279.66974 1018.2801,278.49235 C 1018.2801,277.31496 1017.4208,274.27952 1016.3738,271.7736 C 1014.1992,266.56912 1013.8571,253.81796 1015.7488,248.5236 C 1016.9722,245.09964 1016.9289,245.05978 1014.9676,247.49235 C 1011.6521,251.60425 1009.9042,256.57673 1004.9363,276.0236 C 999.89929,295.74131 994.7598,307.22556 988.6863,312.3361 C 983.4338,316.75578 972.8346,321.86022 958.6238,326.7736 C 942.9231,332.20213 938.01635,334.7523 930.96755,341.17985 C 925.50235,346.16343 924.7428,345.73052 929.3113,340.24235 C 931.1812,337.99602 931.1742,337.86228 929.1863,338.5861 C 922.2746,341.10265 905.0749,343.40834 879.9363,345.17985 C 849.73028,347.30845 835.80051,349.40436 824.6238,353.5861 C 801.49374,362.24016 780.047,387.44007 773.28005,413.8986 C 770.25843,425.71308 769.71153,447.6018 772.5613,442.4611 L 774.21755,439.42985 L 776.4363,442.4611 C 778.62105,445.44873 778.64048,445.4442 777.8113,442.61735 C 776.95604,439.70151 778.20857,438.85966 780.3738,440.8986 C 782.57105,442.9677 799.20733,448.31286 808.8738,450.05485 C 814.10898,450.99829 826.38272,451.75744 836.15505,451.74235 C 856.59874,451.71075 870.01015,449.36848 885.65505,443.1486 C 897.41575,438.47294 898.23698,436.87556 893.9988,427.0236 C 892.54549,423.64524 891.43027,419.26952 891.4988,417.30485 C 891.60256,414.33034 891.87109,414.70546 893.2488,419.4611 L 894.90505,425.1486 L 895.15505,420.0861 C 895.68574,409.35762 897.44415,408.43124 897.59255,418.80485 C 898.01405,448.26068 912.9963,471.8643 935.1238,477.9611 C 938.6441,478.93104 938.73675,478.84965 936.53005,477.17985 C 934.58755,475.7099 934.4405,474.99347 935.6863,473.49235 C 937.78651,470.96175 944.5605,469.61662 946.3113,471.36735 C 948.76529,473.82144 950.03285,472.87489 949.46755,469.0236 C 949.16565,466.9664 949.34345,465.52765 949.84255,465.8361 C 951.71615,466.99409 956.77945,463.22449 956.34255,460.99235 C 956.09985,459.75258 956.3581,458.81175 956.9363,458.92985 C 957.5145,459.04793 959.8552,458.45227 962.1238,457.5861 C 967.09439,455.68825 967.5159,452.32199 963.3113,448.11735 C 961.2537,446.05975 959.7398,442.08686 958.3113,434.8361 C 955.3081,419.5919 948.52725,406.76468 937.71755,395.92985 C 927.73936,385.9284 922.07605,383.42871 905.96755,381.9611 C 901.08135,381.51592 889.63561,379.04762 880.5613,376.49235 C 865.41836,372.22822 862.70423,371.86735 847.5613,371.86735 C 828.20572,371.86734 817.81544,374.62864 809.03005,382.1486 C 806.14117,384.62137 803.78005,386.06537 803.78005,385.36735 C 803.78005,382.13608 814.9805,374.8192 824.6863,371.67985 C 833.08239,368.96412 837.2597,368.36912 848.21755,368.3986 C 859.91996,368.43009 863.70809,369.07457 879.3113,373.55485 C 889.35376,376.43841 902.46875,379.20065 909.46755,379.92985 C 924.58384,381.50482 931.7062,384.98264 941.4363,395.49235 L 948.15505,402.74235 L 948.8738,396.5861 C 949.5559,390.8264 955.5728,376.62893 956.8113,377.86735 C 957.1218,378.17788 956.16445,381.23637 954.65505,384.6486 C 950.88444,393.17266 950.0168,406.24876 952.8738,411.7736 L 955.0613,415.9611 L 960.34255,406.3361 C 980.39545,369.75732 1023.409,337.39199 1038.1863,347.74235 C 1040.5745,349.41517 1041.3047,349.40824 1044.4988,347.74235 C 1049.7158,345.02145 1059.6158,345.3409 1066.0613,348.4611 C 1072.4794,351.56809 1082.0075,361.76121 1086.1238,369.8986 C 1092.9547,383.40239 1094.5668,392.04755 1100.7801,449.2736 C 1105.1051,489.10896 1112.2677,519.83122 1122.5301,542.5236 C 1129.2038,557.28099 1133.1557,562.20564 1143.3426,568.55485 C 1148.5205,571.78213 1155.8032,576.92513 1159.5301,579.9611 C 1163.2571,582.99707 1169.9796,587.16606 1174.4676,589.24235 C 1183.543,593.44086 1190.156,598.09895 1193.1238,602.3361 C 1194.3015,604.01747 1192.3751,602.98586 1188.3113,599.7736 C 1184.5808,596.82488 1179.2143,593.22743 1176.3738,591.80485 L 1171.2176,589.24235 L 1175.7801,594.11735 C 1181.1847,599.9152 1187.0613,607.73945 1187.0613,609.11735 C 1187.0613,609.65515 1184.4986,607.00679 1181.3738,603.2111 C 1163.4476,581.43636 1122.8648,556.74874 1099.4988,553.42985 L 1093.7801,552.61735 L 1098.2176,555.1486 L 1102.6863,557.67985 L 1095.0613,557.80485 C 1085.8021,557.97798 1079.3816,560.10308 1087.6863,560.24235 C 1094.5631,560.35771 1095.7542,562.37733 1089.9051,563.99235 C 1082.8952,565.92785 1077.1466,571.01896 1074.6863,577.4611 C 1070.0663,589.5585 1075.2071,619.89534 1085.9988,644.2111 C 1089.3907,651.85373 1091.313,652.92838 1101.8738,652.99235 C 1107.016,653.0235 1117.2801,657.18223 1117.2801,659.24235 C 1117.2801,659.97583 1115.1373,659.45226 1112.5301,658.05485 C 1104.6948,653.85539 1104.946,655.18275 1112.9676,660.36735 C 1120.2962,665.10409 1127.4051,672.1895 1127.4051,674.74235 C 1127.4051,675.44191 1124.7903,673.37758 1121.5613,670.1486 C 1112.2172,660.80448 1096.7,653.94838 1081.0613,652.2736 C 1074.8124,651.60438 1072.7263,651.75716 1073.3738,652.80485 C 1073.862,653.59465 1073.6969,654.24235 1072.9988,654.24235 C 1072.3008,654.24234 1071.419,653.71538 1071.0301,653.0861 C 1070.6412,652.45679 1068.6778,651.3741 1066.6863,650.67985 C 1063.2351,649.47673 1063.0638,649.58555 1063.1863,653.0861 C 1063.3086,656.58478 1063.6016,656.77085 1069.1551,656.7736 C 1084.3676,656.78118 1110.6525,672.15305 1125.0926,689.49235 C 1135.5546,702.05483 1142.3531,718.49885 1140.9363,727.7111 L 1140.2488,732.2736 L 1142.2801,728.5236 C 1145.1963,723.09055 1147.3809,714.17991 1150.2801,696.11735 C 1151.6804,687.39207 1154.504,674.25911 1156.5613,666.92985 C 1161.8506,648.08663 1163.5206,632.63532 1161.7176,619.0861 C 1160.1045,606.9648 1160.6957,604.2317 1163.1238,612.55485 C 1165.7272,621.47864 1165.1269,646.71116 1162.0301,658.3361 C 1159.9046,666.31483 1159.666,669.1969 1160.7176,673.5861 C 1162.8449,682.4656 1162.1352,703.53995 1159.3113,715.42985 C 1153.6916,739.09187 1142.4836,760.60156 1127.9363,775.6486 C 1122.9843,780.77079 1119.1135,784.9611 1119.3426,784.9611 C 1119.5718,784.96111 1124.9247,782.73662 1131.2176,780.0236 C 1170.3348,763.15926 1198.7759,736.60856 1216.4051,700.55485 C 1241.691,648.84227 1231.7174,590.06185 1189.1551,540.2111 C 1175.3609,524.05474 1161.642,512.94943 1138.8426,499.42985 C 1130.8154,494.66982 1122.8063,489.20098 1121.0613,487.2736 L 1117.9051,483.7736 L 1123.6238,487.55485 C 1130.3579,492.02211 1148.5212,501.80229 1143.9363,498.49235 C 1138.2589,494.39377 1132.4108,488.9241 1133.0301,488.30485 C 1133.3643,487.97065 1136.0877,489.67318 1139.0926,492.0861 C 1147.5526,498.8796 1147.6451,498.71131 1141.9051,487.61735 C 1134.9822,474.23751 1127.4897,451.70556 1126.5301,441.42985 C 1126.1179,437.01605 1125.4953,433.3986 1125.1551,433.3986 C 1124.8149,433.3986 1122.4931,434.65412 1119.9676,436.17985 C 1115.4278,438.92254 1115.3879,438.91477 1117.6863,436.2736 C 1123.2607,429.86808 1143.8657,421.52847 1164.2176,417.42985 C 1175.6024,415.13708 1203.4325,414.26143 1211.0926,415.9611 C 1216.5445,417.17078 1215.4647,415.96342 1209.0613,413.67985 L 1204.2176,411.92985 L 1209.9051,411.80485 C 1218.2409,411.59336 1222.4369,409.53616 1214.9988,409.30485 L 1209.2801,409.11735 L 1215.2488,407.2736 C 1222.7481,404.96632 1224.1932,402.9611 1218.3426,402.9611 C 1209.7251,402.96109 1209.2715,401.6312 1216.4988,397.55485 C 1220.727,395.17008 1228.9131,387.76248 1238.4676,377.7111 C 1270.7465,343.75359 1279.0399,336.12816 1288.6238,331.49235 C 1294.6241,328.58997 1296.9679,326.8711 1295.6551,326.36735 C 1293.6245,325.58814 1288.601,318.26069 1288.5926,316.05485 C 1288.5898,315.37229 1290.3487,316.89048 1292.4676,319.4611 C 1298.3095,326.54846 1309.6528,331.47126 1329.5301,335.49235 C 1339.0423,337.41664 1346.5311,338.51904 1346.1863,337.9611 C 1345.0548,336.1302 1347.034,336.89227 1351.7801,340.11735 C 1356.7135,343.46968 1361.508,344.62644 1358.6551,341.7736 C 1356.1461,339.26465 1356.8331,333.48782 1359.9051,331.3361 L 1362.6863,329.3986 L 1359.5926,326.0236 C 1356.4989,322.66085 1356.4938,322.66384 1359.4051,324.17985 C 1361.0103,325.01568 1362.9106,326.95849 1363.6238,328.5236 C 1364.3369,330.08871 1366.1362,332.12581 1367.6238,333.05485 C 1369.8689,334.45695 1369.7519,334.06311 1366.9051,330.67985 C 1362.7676,325.76267 1362.4646,320.2451 1366.1238,316.8361 C 1367.8086,315.26643 1368.2468,314.06314 1367.3738,313.5236 C 1366.6232,313.05974 1366.0301,312.06986 1366.0301,311.30485 C 1366.0301,310.53982 1367.1095,310.8854 1368.4363,312.0861 C 1370.0154,313.51516 1371.1394,313.81475 1371.6863,312.92985 C 1372.1458,312.18635 1373.9993,311.55485 1375.8113,311.55485 C 1379.0289,311.55485 1379.0616,311.51012 1376.8113,309.0236 C 1376.3132,308.3522 1378.3553,309.21605 1381.2488,309.8361 C 1381.2488,309.57258 1380.2517,308.5441 1379.0301,307.5861 C 1369.6582,297.49954 1362.2467,291.35116 1349.2801,283.74235 C 1334.2573,275.67094 1321.7036,272.00429 1308.9988,272.0236 C 1292.0378,272.04938 1281.4359,275.02704 1261.2176,285.49235 C 1252.7059,289.8981 1247.2093,291.79442 1239.0926,293.11735 C 1211.6428,297.59132 1189.7416,311.46846 1173.4988,334.6486 C 1169.6708,340.11158 1166.3349,344.55485 1166.0613,344.55485 C 1164.8601,344.55485 1168.5833,337.1007 1173.0301,330.5861 L 1177.8738,323.49235 L 1171.3738,325.67985 C 1157.1326,330.45933 1144.7827,332.2342 1125.1863,332.36735 C 1114.2101,332.44194 1105.8427,333.01119 1105.8426,333.67985 C 1105.8426,334.32831 1106.5316,336.78827 1107.3738,339.11735 C 1108.722,342.84555 1108.6224,343.64321 1106.4363,345.80485 C 1103.4185,348.78879 1094.9586,350.76626 1090.6238,349.5236 C 1088.8788,349.02335 1088.0196,348.53581 1088.7176,348.42985 C 1089.4155,348.32392 1086.9784,347.08927 1083.3113,345.67985 C 1077.4384,343.42272 1075.6138,341.7217 1067.9363,331.4611 C 1057.1211,317.00701 1054.5513,314.32966 1050.5926,313.3361 C 1048.8667,312.90297 1047.4676,312.0522 1047.4676,311.42985 C 1047.4675,309.96088 1048.3345,310.0075 1051.3426,311.61735 C 1054.4802,313.29655 1054.4559,312.08847 1051.1551,305.92985 C 1048.9006,301.72334 1048.6068,299.68156 1049.3113,292.61735 C 1050.3264,282.43864 1052.0591,276.57824 1055.4988,271.67985 C 1058.0262,268.08067 1058.0461,267.994 1055.6551,268.8986 C 1053.298,269.7904 1053.2873,269.72602 1055.4051,267.5861 C 1057.0439,265.93016 1059.681,265.33766 1065.4988,265.30485 C 1071.8283,265.26916 1073.9829,264.70343 1076.4051,262.4611 C 1078.0652,260.92421 1082.9517,258.82395 1087.2488,257.80485 C 1094.8301,256.00683 1094.8945,255.9448 1089.8113,255.8361 C 1086.8418,255.7726 1083.8878,254.90731 1082.9988,253.8361 C 1082.4265,253.14653 1081.7067,252.67462 1081.0926,252.55485 C 1080.781,252.4941 1080.4943,252.51619 1080.2801,252.6486 C 1078.3565,253.83737 1070.3123,244.85564 1070.3738,241.5861 C 1070.4233,238.95383 1070.7056,239.10203 1072.7801,243.0236 C 1074.0728,245.46742 1076.4808,248.62828 1078.1238,250.0236 L 1081.0926,252.55485 L 1078.7176,249.74235 C 1077.0217,247.73672 1076.5973,245.9637 1077.2176,243.49235 C 1078.4179,238.70972 1087.0522,230.35919 1090.7801,230.36735 C 1093.4182,230.37312 1093.819,231.01436 1094.0926,235.74235 C 1094.4297,241.56796 1092.6239,248.46103 1090.0926,250.99235 C 1088.8284,252.25658 1089.6826,252.96646 1094.3738,254.49235 L 1100.2488,256.3986 L 1100.2488,252.0861 C 1100.2488,247.39537 1105.2926,241.7736 1109.4988,241.7736 C 1113.2444,241.77359 1112.9138,250.8396 1108.9988,255.49235 L 1105.8738,259.24235 L 1108.7176,259.99235 C 1113.2178,261.19848 1113.4478,261.04003 1113.4676,256.67985 C 1113.4861,252.5648 1114.5372,250.11517 1118.9676,243.86735 C 1120.5421,241.64684 1121.3143,238.40939 1121.2801,233.99235 C 1121.2346,228.14125 1120.6738,226.886 1116.3738,222.3986 C 1110.0412,215.78995 1115.1798,218.25586 1123.3426,225.74235 C 1127.8212,229.84999 1128.7071,230.28674 1127.4051,227.80485 C 1126.4896,226.05978 1124.3429,222.79218 1122.6238,220.5236 C 1117.3471,213.56031 1124.4492,215.82993 1132.9676,223.8361 L 1137.8738,228.42985 L 1135.9051,224.55485 C 1133.7936,220.36327 1124.5591,211.35819 1119.6551,208.67985 C 1117.9838,207.76709 1114.3534,206.57559 1111.5613,206.05485 C 1107.5009,205.29758 1108.1936,205.18663 1115.0613,205.42985 C 1119.7837,205.59709 1122.8453,205.28603 1121.8738,204.74235 C 1117.7929,202.4586 1104.7529,199.8986 1097.1863,199.8986 C 1090.2099,199.89859 1089.2482,199.63713 1090.5613,198.05485 C 1091.8567,196.49401 1091.1109,196.064 1085.6238,195.3361 C 1079.1446,194.47661 1079.1269,194.46126 1081.0926,191.4611 C 1082.1754,189.80857 1082.7424,188.4611 1082.3426,188.4611 C 1081.0389,188.46109 1073.5589,192.55864 1070.4363,194.99235 C 1066.4274,198.11686 1065.8197,197.26909 1068.4676,192.1486 L 1070.6238,187.9611 z M 1092.4051,217.9611 C 1094.4794,217.88464 1096.1823,218.44754 1096.6551,219.86735 C 1096.9927,220.8815 1095.8601,221.46359 1093.5613,221.49235 C 1091.5836,221.51708 1088.5564,222.36978 1086.8113,223.36735 C 1082.4909,225.83714 1081.4051,225.7014 1082.9051,222.8986 C 1084.4464,220.01854 1088.9479,218.08853 1092.4051,217.9611 z M 1113.4988,223.99235 C 1116.7553,223.99235 1118.7556,228.17163 1118.2801,233.8986 L 1117.9051,238.5861 L 1116.1863,234.55485 C 1115.25,232.33673 1113.4084,229.55814 1112.0926,228.36735 C 1109.3527,225.88792 1109.9719,223.99235 1113.4988,223.99235 z M 1068.2176,659.9611 C 1056.9109,659.96113 1053.5221,661.57999 1051.9676,667.7736 C 1050.7805,672.50283 1054.4214,683.44372 1059.8738,691.55485 C 1072.5379,710.39433 1100.5176,732.60031 1118.5301,738.0861 C 1124.3662,739.86353 1132.0851,739.35768 1134.9676,737.0236 C 1139.1098,733.66939 1139.6633,725.94215 1136.4988,715.5236 C 1130.2558,694.96981 1111.7418,675.66856 1087.0301,663.9611 C 1079.6747,660.47644 1077.1861,659.9611 1068.2176,659.9611 z M 980.96755,776.30485 C 980.53485,776.32892 980.1863,777.22721 980.1863,778.49235 C 980.1863,779.93825 978.55195,786.40229 976.53005,792.86735 C 971.13415,810.12093 970.9902,811.12927 973.2488,818.8986 C 977.29431,832.81451 997.0748,846.47906 1021.5613,852.2736 C 1027.7818,853.74563 1034.5922,855.46784 1036.6863,856.0861 C 1044.0527,858.26097 1027.039,855.81872 1017.0926,853.2736 C 1011.8092,851.92165 1006.2469,850.49512 1004.7488,850.11735 C 1001.2478,849.23454 981.8757,858.40969 981.0613,861.3361 C 980.6897,862.67113 982.61435,865.70332 986.15505,869.3986 C 990.57594,874.01256 991.66745,875.98297 991.09255,878.2736 C 990.46155,880.78776 990.94205,881.33911 994.46755,882.11735 C 1009.1954,885.36851 1053.521,885.29058 1069.5301,881.99235 C 1080.5624,879.71946 1086.9592,876.45089 1089.1551,871.9611 C 1090.6753,868.85278 1090.4768,866.95618 1087.4051,855.36735 C 1080.6488,825.91399 1090.237,812.6354 1112.6238,793.61735 C 1116.0021,790.9408 1118.5645,788.7736 1118.3113,788.7736 C 1118.0581,788.77358 1112.3362,790.1567 1105.5926,791.86735 C 1074.8238,799.67247 1041.7737,798.9554 1012.2488,789.8361 C 1005.6194,787.7885 991.60845,781.70224 981.15505,776.3361 C 981.08961,776.30251 981.02936,776.30141 980.96755,776.30485 z"
       id="path7117"
       sodipodi:nodetypes="ccsssssssssscccscccsssssssssssssssssssscccsssssssssssssscccssssssscccsssssssssssssssssssssscccsscccssssssssssscccsscccccsssssssssssssssssscccssssssssssssscccssssssssssccccccssssssssssscccssssssssssccccssssscccssssssssssssssssssssssssscccsssscccscccssssssscccsssssssssscccsssscccccsccssssssccsssssssssssssccssssc" />
  </g>
</svg>
