<?xml version="1.0"?>
<svg xmlns:rdf="http://www.w3.org/1999/02/22-rdf-syntax-ns#" xmlns="http://www.w3.org/2000/svg" xmlns:cc="http://web.resource.org/cc/" xmlns:xlink="http://www.w3.org/1999/xlink" xmlns:dc="http://purl.org/dc/elements/1.1/" xmlns:svg="http://www.w3.org/2000/svg" id="Layer_1" style="enable-background:new 0 0 289.698 382.476" xml:space="preserve" viewBox="0 0 289.698 382.476" version="1.1" y="0px" x="0px">
<g clip-rule="evenodd" fill-rule="evenodd">
	<path d="m60.727 31.262c2.388 0.99 4.702 2.261 6.26 4.069 0.847 0.982 1.018 2.432 2.191 3.13 0.872 4.178 1.916 6.352 1.565 11.582-0.164 2.441-1.053 4.902-1.565 6.887-0.673 2.61-0.731 4.769-1.878 6.886-0.676 1.25-1.781 2.206-2.504 3.443-0.735 1.259-1.282 2.543-1.878 4.069-2.038 5.211-4.234 8.637-1.565 13.773h-2.191c0.391-2.687-0.75-3.842-1.252-5.635 0.613-1.37 1.068-2.896 1.252-4.695 0.369-1.196 1.625-1.505 1.252-3.443 1.561-0.734 1.972-2.619 2.504-4.382 0.815-0.958 1.967-1.58 1.878-3.443 1.856-1.004 2.498-3.375 3.13-5.948 0.411-1.671 0.372-2.52 0.626-4.382 0.234-1.719 0.684-3.633 0.626-5.947-0.168-6.747-3.41-12.468-8.452-14.712 0.001-0.418 0.001-0.835 0.001-1.252z"/>
	<path d="m40.067 50.356c-0.78 3.21-1.84 5.418-2.191 9.391-0.584 6.607 1.539 13.625 4.696 17.842 1.22 1.63 2.995 2.969 4.382 4.382 1.543 1.572 2.771 3.463 4.695 4.069-0.202 1.657 1.101 2.755 1.565 4.069 0.352 0.994-0.067 2.348 0.939 3.13-1.508 2.77-2.057 6.499-3.13 9.704-2.799 3.551-5.063 7.25-7.826 10.956-3.005 4.029-7.23 7.256-10.017 11.895-2.202 0.851-3.013 3.495-4.695 5.321-0.86 0.933-2.75 3.592-3.443 5.321-0.182 0.454 0.224 1.152 0 1.878-0.168 0.546-0.842 0.812-0.939 1.252-0.442 1.999-0.582 5.33 0.313 6.887 1.558 2.709 3.284 6.408 5.321 9.078 0.583 0.763 0.962 1.821 1.565 2.504 1.043 1.182 2.812 1.91 4.069 3.443 1.145 1.396 4.019 6.144 4.382 8.452 0.242 1.541-0.19 3.615 0 4.695-2.866 12.368-9.267 21.201-15.338 30.364-0.324 2.596-1.706 5.129-1.252 7.825 0.337 2.004 2.128 2.821 2.191 4.695-2.855-0.17-3.036-3.016-4.382-4.695 0.021-4.257 1.9-6.655 2.504-10.33 0.553-0.281 0.914-0.755 1.565-0.939-0.157-1.305 0.915-1.381 0.626-2.817 0.411 0.376 0.493 0.122 0.939 0 0.298-2.102 1.528-3.272 2.817-4.382 1.625-3.801 3.365-7.486 5.635-10.643 0.92-3.971 2.766-7.916 2.504-12.208-0.333-5.453-4.257-9.277-7.826-11.582-1.084-3.506-4-5.181-5.947-7.826-0.172-2.541-1.774-3.651-1.878-6.261 0.216-0.841-0.647-0.605-0.939-0.939-0.234-2.384 1.354-5.483 0.939-7.826 0.206-0.42 0.669-0.583 1.252-0.626 0-1.251 0.625-1.879 0.626-3.13 1.603-0.792 1.528-2.637 2.817-4.069 0.353-0.392 1.236-0.536 1.565-0.939 2.364-2.898 3.926-6.688 7.513-8.452 0.872-1.841 2.127-3.298 3.756-4.382 0.536-1.342 1.149-2.607 2.504-3.13 0.048-1.413 1.095-1.827 1.252-3.13 1.88 0.002 1.319-2.437 3.13-2.504 0.516-2.864 2.712-4.974 3.756-7.513 0.392-0.952 0.116-1.684 0.626-2.504 1.286-2.07 0.798-7.16-0.939-9.078-0.588-0.649-1.479-0.915-2.191-1.565-1.729-1.577-2.729-4.514-5.322-5.321-4.286-5.836-7.139-14.912-5.321-24.103 0.458-2.316 1.336-4.337 2.191-6.261 0.315 0.021 0.628 0.021 0.941 0.021z"/>
	<path d="m185 73.833c0.616 1.538 1.053 4.812-0.627 5.634-1.633-0.626 0.577-3.239-0.938-4.069-5.637-0.588-9.575 4.295-14.086 7.2-4.07 2.621-7.778 4.93-12.521 6.261 0.965-2.536 3.975-2.657 5.947-3.756 5.742-3.201 11.058-8.069 17.217-11.269 1.67-0.001 3.34-0.001 5.01-0.001z"/>
	<path d="m134.91 76.024c3.342 2.164 6.638 3.448 6.574 9.078-0.006 0.539-0.413 0.688-0.313 1.252 0.319 1.795 1.646 3.071 1.878 4.695-1.86-0.061-3.197-1.547-3.756-2.817-0.79-1.793-0.147-4.332-0.626-5.947-0.98-3.308-3.468-4.062-6.887-5.008-0.03-1.5 3.24 0.301 3.14-1.253z"/>
	<path d="m131.16 81.972c-0.794 1.564-3.121 0.487-4.695 0.626-3.926 0.348-6.786 2.145-7.513 5.948-1.431 1.429-3.477 2.572-5.634 3.756-1.813 0.995-4.127 3.104-6.261 1.878 0.896-1.5 2.89-1.338 4.069-1.878 1.814-0.83 4.23-2.462 5.634-4.069 1.844-2.111 2.723-5.185 5.635-6.26 2.14-0.793 5.17-1.004 8.76-0.001z"/>
	<path d="m150.25 115.15c-1.741 2.76-3.003 7-3.443 11.269-0.138 1.332 0.827 3.96-1.252 4.382-1.427-4.83 1.124-11.881 2.817-15.651 0.554-0.275 0.914-0.992 1.565-0.313-2.943-4.883-2.771-12.881-2.817-20.66 4.676 0.332 3.873 6.144 6.574 8.452 0.133-1.808 1.121-4.737 2.504-6.261 1.461 0 2.082 0.84 2.191 2.191 0.931-0.322 0.482-2.021 1.564-2.191 1.491-0.03 1.485 1.437 2.817 1.565 1.502-1.525 1.617-4.436 3.757-5.321 1.199 0.052 1.372 1.132 2.191 1.565 2.009 0.055 2.67-3.602 4.695-1.565 1.114-1.335 3.111-3.291 5.634-2.191 1.373-1.105 5.116-3.9 6.261-0.626 1.196-0.787 2.803-1.162 5.009-0.939-0.227 0.957 0.319 1.141 0.312 1.878 4.312 0.454 3.439 4.232 5.635 6.574v2.191c0.439 0.708 1.267 1.029 1.565 1.878-0.287 2.143-1.014 3.902-0.627 5.947 0.327 1.727 2.127 2.665 1.879 4.382-3.091 0.482-3.716-1.501-5.321-2.504-0.411-3.819-1.037-6.288-2.817-8.765-0.19-0.264-0.508 0.133-0.626-0.313-0.226-0.842-1.817-2.478-2.817-2.817-7.368-2.5-17.489 5.167-21.286 8.765 6.808 1.748 10.774 6.338 16.591 9.078 0.998 1.8 1.709 3.806 3.443 5.008 1.598 1.108 4.436 0.733 5.321 2.817-1.294 2.528-4.234-0.37-6.573-0.626-2.141-0.235-5.502 1.554-6.261-0.939 1.559-0.214 2.669-0.878 3.443-1.878-0.869-1.322-1.681-2.702-3.131-3.443-2.084 0.629-2.905 2.52-6.26 1.878-2.135-1.595-4.025-3.753-3.131-7.513-9.28-5.33-10.78 8.09-19.36 4.68zm23.79-0.62c0.183-0.744 0.479-1.458-0.626-1.565-0.49 0.47-0.45 1.79 0.63 1.57z"/>
	<path d="m152.44 169.62c-5.257 3.821-9.206 8.95-15.339 11.895h-4.695c-3.289-2.762-7.707-4.396-7.826-10.33-2.457 0.36-3.632 2.619-5.321 4.069-0.858 0.736-1.994 1.069-2.817 1.878-3.686 3.621-6.756 8.634-9.704 13.46-0.065 1.199-0.936 3.222-1.878 2.504-0.95-0.712-0.037-2.293 0.313-3.13 1.086-2.6 3.502-5.727 4.382-8.765 0.746-0.506 1.38-1.125 2.191-1.565 4.418-6.851 11.001-11.537 16.59-17.217 0.911-2.013 0.558-4.395 1.252-6.573 0.143-0.449 0.819-0.788 0.939-1.252 0.662-2.574 0.708-5.441 0.939-8.765 0.638-9.148 5.569-18.975 3.13-30.05-1.401-1.208-2.85-2.367-4.382-3.443-4.214-0.258-7.017-0.144-9.391 1.878 1.967 5.881-6.924 10.034-9.391 5.008-1.675 0.412-2.874 1.3-2.817 3.443 0.172 0.872 2.526-0.44 1.878 1.252-1.144 1.392-5.716 0.476-7.2 0-1.716 0.525-3.828 2.001-4.695 0 0.938-1.102 2.595-1.4 3.756-2.191 2.651-1.806 4.368-3.935 7.2-5.009 0.717-0.272 1.472-0.009 2.191-0.313 2.45-1.034 4.873-2.674 6.887-4.382-7.385 2.369-18.362 2.466-25.042-0.626-0.868 5.322 6.785 6.864 4.382 12.834-6.767 7.683-4.662 19.812-4.382 31.303 0.133 5.474 0.288 12.102-1.565 16.903-0.656 1.7-2.327 3.702-3.756 5.634-1.355 1.833-3.598 4.082-3.756 5.322-0.231 1.81 1.233 2.694 2.191 4.382 1.231 2.17 2.483 5.678 2.504 8.452 0.007 0.913-0.379 1.838-0.313 2.504 0.097 0.973 0.778 2.073 0.626 3.13-1.145 0.206-1.201-0.677-2.191-0.626-0.82-6.484-2.25-12.357-5.947-15.964-0.372-3.464 1.158-4.433 2.817-6.261 0.745-0.82 1.231-1.799 2.191-2.191 0.573-1.096 0.385-2.954 1.878-3.13 1.427-4.503 2.561-8.452 2.504-13.46-0.04-3.505 0.251-7.254 0-10.956-0.089-1.311-0.822-2.709-0.939-4.069-0.347-4.043 0.337-10.603 1.565-14.086 1.205-3.416 2.794-6.192 5.322-8.765-2.423-3.291-6.351-6.306-5.009-11.582-0.873-1.005-1.981-1.775-3.756-1.878-0.85-1.093-2.4-1.985-3.756-3.13-1.385-1.17-2.647-2.523-4.069-3.443-0.332-2.63-6.114-6.457-1.878-7.826 1.25-0.103 0.661 1.635 1.252 2.191 2.662 2.763 5.807 5.045 10.017 6.26 1.349 0.306 0.911-1.176 1.878-1.252 1.28-0.472 1.462 0.882 2.504 0.939 1.053 0.057 1.996-0.961 3.13-0.939 1.489 0.029 2.943 1.452 5.008 0.939 0.509-0.744 0.608-1.896 0.939-2.817 2.276 0.229 3.09 1.919 5.008 2.504 1.048-0.1 0.508-1.788 1.565-1.878 1.147-0.104 1.739 0.348 2.504 0.626 0.517-0.044-0.328-1.306 0-2.191 2.956 0.488 5.482 1.404 7.513 2.817 0.729-1.857-1.547-3.191-1.252-5.635 3.908-0.256 4.59 2.714 7.2 3.756 0.009-2.308-1.958-5.343-3.756-6.886v-0.939c0.745-0.739 2.729-0.059 3.756 0.626 3.646 2.431 7.065 8.26 9.704 10.956-0.292 1.223 0.73 3.019 1.565 4.069 2.141 7.636 1.798 16.245 0.626 24.729-0.491 3.551-1.887 6.835-2.504 10.33-0.53 2.999-0.347 6.803-1.252 10.33-0.359 1.399-1.148 2.664-1.565 4.069-1.153 3.882-1.612 6.421-3.13 10.017-0.771 1.827-2.265 3.538-2.191 5.008 0.111 2.206 4.082 5.538 5.634 6.573 4.265 2.843 8.952-2.401 11.895-5.321 1.669-1.655 2.758-3.857 4.382-5.634 0.554-0.606 1.563-0.922 2.191-1.565 0.652-0.668 0.988-1.701 1.565-2.191 0.663-0.564 1.935-0.99 2.816-1.565 1.311-0.854 1.724-1.631 2.817-1.565 1.301 0.079 3.611 1.822 3.443 3.756-0.23 2.82-6.75 3.58-9.06 4.98z"/>
	<path d="m142.43 106.08c-1.558-0.574-0.888-2.49-1.252-3.756-0.588-2.048-1.791-3.652-2.504-5.321-1.384-0.182-2.025-1.106-3.13-1.565v-0.939c3.228-0.996 5.677 1.388 7.513 2.817 0.16 2.868 1.81 7.388-0.63 8.768z"/>
	<path d="m159.64 113.59c-0.795 2.221 0.505 2.928 0.939 4.695-4.57 2.93-5.85-4.86-0.94-4.69z"/>
	<path d="m129.91 116.4c2.349 0.051 2.756 2.043 2.817 4.382-0.625 1.395-4.032 2.867-5.634 1.252 0.239-1.743 1.805-2.161 2.504-3.443 0-0.83-0.13-1.78 0.31-2.19z"/>
	<path d="m171.85 124.23c-4.785-0.328-5.071-5.154-10.956-4.382 1.812 1.842 3.29 6.726 6.573 8.139 2.572 0.141 4.813 0.613 6.261 1.878-0.484 2.004-2.515 0.783-3.443 0-2.924-0.693-5.534-0.521-7.199-2.191-1.055-1.058-1.082-3.34-1.878-4.695-0.479-0.816-1.206-0.912-1.565-1.878-1.289-0.246-1.606 0.48-2.817 0.313-0.184-1.749 1.56-1.571 3.13-1.565 3.351-4.263 7.552 0.229 9.704 2.191 0.94 0.85 2.49 1.17 2.2 2.2z"/>
	<path d="m133.98 122.35c0.022 2.245-1.849 2.839-3.13 4.382-0.704 0.847-1.015 1.989-1.565 2.504-2.172 2.035-5.761 3.5-9.078 3.443 0.297-1.585 2.242-1.355 3.443-1.878 1.79-0.779 3.665-1.749 4.695-3.13-4.52 0.697-9.513 0.921-13.147 2.504-0.827 0.523-1.718 1.744-2.817 2.504-0.911 0.63-2.5 1.894-3.13 0.939-0.458-1.561 1.726-1.979 2.817-2.817 1.417-1.088 2.419-2.539 4.382-3.13 1.805-0.544 4.073-0.349 5.948-0.626 4.399-0.651 8.611-1.362 10.33-5.008 0.66-0.1 0.83 0.24 1.26 0.34z"/>
	<path d="m224.13 122.66c0.956-0.226 1.141 0.32 1.878 0.313 1.139 4.223 0.272 7.994-0.626 12.521-1.474 1.52-2.053 3.523-3.13 5.321-3.049 5.087-8.277 10.755-9.078 18.156-0.118 1.095-0.133 2.527 0 3.756 0.428 3.979 3.567 7.155 4.069 11.582 0.141 1.245-0.397 2.75-0.626 4.695-0.321 2.741 0.181 4.573-1.252 6.261-0.832-0.003-1.788 0.118-2.191-0.313 0.273-1.131 1.026-1.924 1.252-3.13 0.161-0.861-0.373-1.83-0.312-2.817 0.07-1.166 0.669-1.849 0.626-2.817-0.125-2.748-1.753-5.917-2.817-8.452-0.044-0.104-0.187-0.71-0.313-0.939-0.496-0.893-0.942-2.859-1.878-3.756 0.634-1.834 0.548-2.471 0.626-4.696 0.503-0.967 1.636-2.942 0.939-4.069 1.641-3.055 3.394-5.998 4.695-9.391h0.938c0.35-2.155 1.828-3.18 3.131-4.382 0.236-1.746 1.065-2.899 2.191-3.756 0.108-2.254 1.824-4.512 2.19-6.886 0.275-1.782-0.365-3.45 0.313-4.696-0.1-0.92-0.98-1.09-0.63-2.48z"/>
	<path d="m157.14 142.7c1.388 3.766-3.286 5.485-5.635 8.139-1.098 1.24-1.007 2.683-2.504 3.13-0.502 1.48-1.041 2.924-2.191 3.756-1.501-1.614 0.944-3.547 1.565-5.008 0.266-0.624-0.022-1.322 0.313-1.878 0.254-0.421 1.181-0.739 1.565-1.252 1.624-2.169 3.972-5.033 5.947-6.886h0.93z"/>
	<path d="m158.7 146.14h0.939c1.56 2.914 3.159 7.981 4.695 11.582 0.395 0.925 0.542 2.338 1.565 2.817 1.09 7.674 5.698 11.831 12.208 14.086 3.123 3.785 8.438 6.975 8.765 12.521 0.14 1.217 1.146 1.566 1.252 2.817-3.319 1.225-2.665-2.661-3.13-3.756-2.843-6.692-10.12-9.877-15.965-13.773-3.739-2.493-6.225-8.276-7.825-13.46-1.131-3.66-1.479-7.73-2.817-11.582-0.64-0.64 0.13-0.62 0.3-1.26z"/>
	<path d="m179.68 190.28c2.302-0.474 5.167 3.292 5.322 4.695 0.218 1.982-1.918 3.63-0.939 5.635-1.742 0.281-2.128-0.794-3.13-1.252-0.36-2.446 0.465-3.708 0.626-5.634-0.41-1.38-2.18-1.4-1.88-3.46z"/>
	<path d="m161.52 193.1c-0.247 1.687-2.51 1.609-3.756 2.191-2.435 1.136-4.577 2.689-7.513 4.069-1.224 0.576-2.623 1.609-3.756 1.878-8.54 2.031-16.05-1.688-22.851-3.756 1.065-2.376 4.247-1.552 6.261-1.252 4.737 0.706 9.798 1.899 15.651 1.252 6.17-0.68 10.66-4.66 15.97-4.38z"/>
	<path d="m157.14 211.25c-2.724 0.729-5.064-2.941-7.826-2.191-0.97-1.895-3.641-2.077-5.634-2.817-0.909-0.337-1.867-1.084-2.817-1.252-5.692-1.005-14.656 1.43-18.468 3.13-1.87 0.835-3.193 2.475-5.008 2.191 0.879-2.864 5.11-4.344 8.452-5.321 5.721-1.673 14.845-2.839 21.286-0.939 1.12 0.331 2.21 1.286 3.443 1.878 3.21 1.54 5.3 2.13 6.58 5.32z"/>
	<path d="m170.29 223.77h0.626c1.846-0.256 2.68 1.703 3.443 3.131 2.567 4.797 4.058 11.598 5.321 18.468 0.631 3.428 0.924 6.105 1.253 10.33 0.452 5.819 2.147 12.171 2.19 17.843 0.008 0.943-0.368 1.896-0.312 2.817 0.084 1.393 0.788 2.808 0.938 4.382 0.137 1.425-0.121 3.064 0 4.695 0.249 3.347 1.225 10.214 0.626 14.399-0.151 1.062-0.32 3.056-1.878 3.443-2.075-0.443-0.358-3.702-0.312-6.261 0.116-6.496-1.103-13.788-1.565-20.973-0.068-1.068-0.227-2.308-0.313-3.443-0.272-3.582-0.648-7.713-1.252-11.895-0.438-3.037-0.466-6.213-0.938-9.078-0.367-2.224-1.183-4.385-1.565-6.573-1.027-5.87-2.216-13.188-4.695-19.095-0.094-0.846-1.316-0.562-1.565-1.252-0.01-0.33-0.01-0.65-0.01-0.96z"/>
	<path d="m123.96 307.35c0.237 2.614-5.11 1.627-6.26 0.938-0.41-3.88 5.16-2.49 6.26-0.94z"/>
	<path d="m174.36 11.541c-0.707 2.239-2.427 4.147-3.756 5.947-2.671 3.616-5.357 6.747-7.826 10.956-1.695 2.891-3.268 5.4-4.382 9.078-3.158 1.654-6.111-1.355-7.826-3.13-3.151-1.961-7.36-2.865-10.956-4.382-1.708 0.034-3.085 1.479-4.695 1.565-2.671 0.142-5.5-2.152-8.139-1.878-1.549 0.161-3.677 1.227-5.008 1.878-1.886 0.923-3.584 2.164-5.635 3.13-5.53 2.605-11.064 6.241-15.651 10.33-0.083 2.072-1.427 3.452-1.878 5.947-2.195 12.132-0.888 30.218-1.565 42.572-0.064 1.167-0.069 2.715-0.313 3.756-0.353 1.504-1.147 4.349-3.756 4.382-0.359-1.694 0.683-2.942 0.939-4.695 0.536-3.668-0.249-7.832 0.939-11.895-0.505-0.956-0.717-2.205-1.252-3.13 1.374-3.173-0.433-6.45 1.252-9.391-0.382-9.208-0.11-20.854 4.382-27.859-0.124-1.48 0.101-2.612 0.313-3.756 0.436-0.42 0.857-0.785 1.252-1.252 0.775-0.917 1.158-1.595 1.878-2.817 1.488-2.526 4.462-5.219 5.635-8.452 2.143-1.488 3.247-3.869 5.008-5.948 2.465-2.909 6.073-5.618 8.139-9.391 3.298-1.263 4.414-4.564 7.826-5.947 1.171-0.475 2.56-0.159 4.069-0.626 2.587-0.8 5.07-2.713 8.452-3.13 7.024-0.868 12.857 0.857 19.094 2.504 1.914 0.505 4.062 1.007 5.947 1.565 3.21 0.949 5.85 2.048 7.52 4.071zm-29.12-0.313c2.076 0.729 4.26-1.454 2.504-2.504-0.2 1.465-1.85 1.482-2.5 2.504zm-1.25 3.443c-0.872 1.945-2.13 3.504-3.756 4.695 0.643 0.087 0.625 0.836 0.939 1.252 1.008 0.069 1.325-0.554 2.504-0.313-0.441-2.423 2.658-1.307 4.382-1.565-0.851-2.034 0.754-3.896 0-5.635-1.82 0.048-2.15 1.597-4.06 1.566z"/>
	<path d="m239.46 288.88c-1.036 2.303-2.043 4.635-4.695 5.321-1.389 0.032-0.974-1.739-1.878-2.191-3.476 2.159-2.609 8.66-7.826 9.078 1.003-5.988 4.57-9.411 6.574-14.399-2.752 2.466-4.239 6.195-7.513 8.139-2.608 3.097-4.941 7.748-7.513 11.582-1.65 2.461-2.857 5.583-6.261 4.383 0.255-0.936 0.619-1.597 1.252-2.505 0.121-0.173 0.553-0.19 0.626-0.312 0.941-1.554 1.288-2.706 2.505-4.069 0.868-0.975 1.611-2.42 2.504-3.757 1.062-1.59 3.026-3.073 2.504-5.321-2.201 0.302-2.56 2.436-3.756 3.757-3.959 4.37-9.232 7.464-13.46 11.582-0.847 1.66-1.569 3.436-2.817 4.695-0.547 0.552-1.201 0.437-1.878 0.938-1.189 0.883-2.074 2.613-3.131 3.443-1.498 1.179-3.176 1.726-4.382 2.817-0.564 0.511-1 1.348-1.565 1.878-0.568 0.534-1.391 0.967-1.878 1.565-0.623 0.765-0.834 1.984-1.565 2.817-1.107 1.261-2.703 1.901-3.756 3.13-2.092 2.44-4.036 5.558-5.948 8.452-1.003 1.52-1.993 3.404-3.13 4.695-0.865 0.982-2.189 1.532-3.13 2.504-3.593 3.71-4.882 9.212-9.704 11.896-0.4 2.459-1.91 3.563-3.443 5.008-0.698 0.658-0.973 2.259-2.191 1.878-0.585-1.143 0.312-2.019 1.252-2.504 0.241-2.785 2.667-3.386 2.817-6.261 1.397-0.689 1.978-2.196 2.505-3.756 2.606-2.297 3.976-5.832 5.947-8.765-2.302 0.277-3.297 2.447-4.695 4.382-1.275 1.765-2.785 2.656-4.383 4.383-0.541 0.585-0.722 1.539-1.252 2.191-1.025 1.259-2.707 2.008-3.756 3.13-1.046 1.117-1.249 3.041-3.131 3.13-0.515 1.676-2.17 2.213-2.504 4.069-1.279 0.913-2.951 1.432-3.13 3.443-0.654 0.133-0.829-0.214-1.252-0.312 0.163 2.98-2.599 3.035-2.817 5.634-1.272 0.814-2.616 1.559-2.817 3.443-1.086 0.043-0.501-1.585-1.565-1.564-0.342 1.489 1.14 1.155 0.939 2.504-1.362 1.142-1.706 3.302-4.069 3.443-1.163-2.787 1.937-3.863 2.191-6.261 0.963-0.402 1.688-1.444 1.878-1.878 0.351-0.803 0.283-0.801 0.626-2.191 0.224-0.908 1.398-1.272 1.878-2.191 0.607-1.161 0.565-2.671 1.252-3.756 0.176-0.277 1.001-0.604 1.252-0.939 0.771-1.034 1.452-1.972 2.191-3.443-1.258-1.041-1.708-2.7-2.504-4.069-0.812-1.396-1.911-2.617-2.191-4.382-3.397-4.637-6.784-9.285-8.765-15.339-2.903 0.422-5.393-0.939-6.574-3.13-1.71 1.349-3.565-0.867-4.069 1.252-1.583 0.019-2.435-0.695-3.443-1.252-1.254 0.729-1.368 2.598-2.817 3.13-1.861-0.017-1.598-2.158-3.13-2.504-0.852 2.006 2.249 2.755 1.878 5.321-7.302-1.775-10.957-7.198-14.086-13.146-4.255-2.527-6.164-7.401-10.33-10.017-0.191-2.313-1.297-3.711-0.939-6.574-1.425 0.663-6.009 1.385-6.887-0.312 0.818-2.104 3.325-2.519 4.069-4.695 0.37-1.622-1.257-1.247-0.939-2.817-3.662 2.599-7.003 5.518-9.704 9.077-1.042 0.314-2.15 0.562-3.13 0.939-1.809 1.112-3.113 2.729-5.321 3.443-1.365 1.452-1.792 3.842-4.382 4.069-0.418-1.671 1.044-1.46 0.626-3.13 0.726 0.1 1.202-0.051 1.565-0.313 0.796-1.917 2.365-3.061 4.069-4.069 1.314-2.65 3.549-4.381 5.008-6.887-3.817 2.652-6.792 6.146-11.895 7.513 0.44-1.959 3.018-1.781 3.756-3.443-2.147 0.483-6.456 3.114-9.391 2.817 0.681-3.91 5.289-3.894 7.826-5.947 1.917-1.995 4.141-3.291 6.261-5.321 0.607-0.582 0.986-1.748 1.565-2.191 0.725-0.556 2.321-0.892 3.13-1.565 1.213-1.01 1.862-2.667 3.13-4.069 1.082-1.196 2.73-2.012 3.756-3.13 0.758-0.826 1.447-1.988 2.191-2.817 2.04-2.273 4.205-4.432 6.261-7.199 0.6-0.809 0.954-1.906 1.565-2.817 0.533-0.795 1.441-1.437 1.878-2.191 1.493-2.575 2.389-5.533 4.069-8.139 0.256-0.396 1.006-0.566 1.252-0.939 0.895-1.353 0.783-2.907 1.565-4.382 0.223-0.421 1.316-0.834 1.565-1.252 0.595-1.001 0.191-1.811 0.939-2.505 0.323-1.471-1.091-1.205-0.626-2.816 0.34 0.077 0.212 0.622 0.626 0.626-0.586-6.737-0.259-13.992-0.626-20.66-0.039-0.693-0.557-1.394-0.626-2.191-0.197-2.271 0.103-5.677 0.313-8.451 0.287-3.78 0.94-9.082 4.069-9.078 0.385 1.188-0.709 2.001-0.939 3.131-1.105 5.432 0.009 13.213 0 18.155-0.001 0.628 0.018 0.979-0.626 0.938 0.312 0.419 0.846 0.615 0.939 1.253 0.199 12.91 0.514 25.739-0.939 37.25 5.893 5.48 11.289 11.457 14.086 20.033 0.304-6.725 0.059-12.901 0.313-19.095 0.108-2.636-0.14-4.81 0.313-7.199 0.363-1.912 0.095-4.284 0.313-6.573 0.24-2.518 1.613-5.007 0.626-8.139 1.556-1.014 0.685-2.918 0.939-4.383 0.153-0.881 0.735-1.602 0.939-2.504 0.178-0.787-0.123-1.727 0-2.505 0.184-1.159 0.889-2.435 1.252-3.756 0.985-3.585 1.973-6.173 4.069-8.452-10.649-0.014-9.39-13.851-14.712-20.033-0.759-0.882-1.398-1.286-2.191-2.191 1.227-2.164 2.812 0.075 3.756 0.939 2.163 1.98 3.646 4.619 5.009 7.825 0.646 1.521 1.463 3.074 1.878 4.383 0.718 2.267 0.969 4.401 2.817 5.635 0.497 0.331 3.645 1.618 4.695 1.564 4.126-0.21 4.63-5.055 7.826-6.887-0.18-2.933-1.354-4.611-2.191-7.513 2.154-0.589 2.135 0.996 3.443 1.253 1.18 3.543 1.857 8.594 4.069 11.582 1.54 2.078 5.403 3.449 8.765 2.816 2.794-0.525 2.745-3.117 5.322-4.382 1.09-2.109 2.379-4.238 3.756-6.261 1.184-1.738 2.339-4.466 5.321-4.382-0.389 1.56-1.575 2.592-2.504 3.756-0.913 1.145-2.002 2.098-2.504 3.756 4.212-0.237 7.357-2.488 10.643-4.069 5.021-2.416 9.247-5.439 15.651-6.886 0.638-0.094 0.834-0.627 1.252-0.939 5.858-1.446 11.64-2.969 17.843-4.069 0.693 0.173 0.445-0.598 0.938-0.626 4.703-0.657 9.188-1.256 13.773-2.191 1.91-0.39 3.714-1.433 5.635-1.878 1.2-0.278 2.579-0.038 3.756-0.313 1.271-0.297 3.181-0.98 4.695-1.565 3.227-1.245 5.236-2.908 7.513-5.008 1.713-1.58 1.91-1.495 3.13-3.756 0.687-1.271 0.971-1.147 1.565-2.817 0.824-2.312 1.705-6.074 0.939-9.704-1.126-5.34-4.613-10.267-6.261-15.338-0.87-2.677-0.417-7.268 0.313-11.582 2.187 1.224 1.118 4.943 1.564 7.513 0.476 2.732 1.316 4.69 3.443 5.947 10.832 0.189 12.419-8.867 14.712-17.216 1.969-2.277 4.708-3.918 7.2-5.634 2.503-1.724 4.826-3.536 7.199-5.322 1.683-2.484 4.347-6.007 6.261-9.391 1.172-2.072 2.007-3.983 3.13-6.574 0.797-1.838 1.1-3.015 1.879-5.321 0.582-1.724 2.09-5.777 1.564-8.765-0.286-1.63-2.401-5.275-3.443-6.887-1.931-2.988-4.886-6.139-8.139-8.139-3.951 2.651-10.138 6.784-14.712 10.017-0.801 0.566-1.766 0.968-2.504 1.565-0.747 0.603-1.188 1.641-1.878 2.191-0.994 0.793-2.876 1.661-4.383 2.817-1.341 1.029-2.926 2.75-4.069 2.817-1.11 0.066-2.826-0.968-4.069-1.565-1.267-0.609-2.409-1.171-3.443-1.878-0.121-1.13-0.415-2.089-0.938-2.817 1.75-3.68 2.911-9.12 4.382-14.399 1.78-6.389 3.603-10.716 1.878-17.842-0.375-1.549-1.13-3.14-1.564-4.696-0.137-0.489 0.089-1.007 0-1.252-0.144-0.395-0.815-0.806-0.939-1.252-0.999-3.604-0.795-7.045 0.626-9.704-0.959-1.301-0.771-1.892-1.565-3.443-2.992-1.599-3.977-5.206-4.695-9.078-1.14-0.529-3.247-0.092-3.756-1.252 0.014-1.989 1.256-3.906 1.564-5.634 0.149-0.831-0.646-1.763 0.313-2.191-2.624-0.605-4.871 2.532-7.825 0.939-0.141-2.436 1.81-2.782 1.564-5.322-2.669-1.523-7.715 1.196-11.269 0.626-1.761-0.282-2.845-1.023-3.757-2.504 0.52-1.776 2.565-2.026 3.443-3.443-6.798 1.729-13.081 2.379-19.094 4.695-1.363 0.525-2.613 1.682-4.069 2.191-0.466 0.163-1.088-0.129-1.565 0-4.207 1.135-7.337 3.824-12.521 3.756-0.911 0.236-1.552 0.743-2.19 1.252-4.537-0.208-8.799 1.358-13.147 0.313-0.473-5.144 2.95-10.469 5.947-14.086v-1.565c4.079-3.747 5.704-9.947 9.704-13.773 1.239-0.404 0.639 1.03 1.878 0.626 2.069-0.399 3.819-1.405 5.635-2.504 1.528-0.925 3.101-2.521 4.695-3.13 0.626-0.239 1.268-0.016 1.878-0.313 1.949-0.95 3.891-2.198 5.321-3.756 4.615-1.527 9.313-2.704 14.399-1.878 0.908 0.147 1.849 0.713 2.817 0.939 1.031 0.241 2.245 0.039 3.13 0.313 1.247 0.387 2.231 1.488 3.443 1.878 3.177 1.023 6.823 0.835 8.452 3.443 2.047 0.199 3.599 1.905 5.321 2.817 0.541 0.287 1.33 0.3 1.878 0.626 0.963 0.574 1.812 1.771 2.817 2.504 1.009 0.736 2.258 1.167 3.13 1.878 0.935 0.762 1.64 1.58 2.505 2.191 2.571 1.818 4.867 3.112 6.886 5.948 1.204 1.691 3.714 3.219 5.322 5.008 2.481 2.762 4.858 6.493 6.886 10.017 1.847 3.207 4.242 7.063 5.009 11.582 0.378 2.228 0.624 5.022 0.939 7.513 0.253 2.001-0.047 3.976 0 5.947 0.018 0.761 0.584 1.401 0.626 2.191 0.005 0.093-0.622 0.9-0.626 0.939-0.074 0.725 0.307 2.835 0 4.069-0.204 0.818-0.938 1.917-1.252 2.817-0.986 2.822-1.754 6.364-2.817 9.391-0.693 1.973-2.077 4.528-3.131 7.2-0.67 1.699-0.865 3.797-1.564 5.321-0.262 0.57-0.951 0.973-1.253 1.565-1.219 2.401-2.422 5.083-3.756 7.513 2.751-1.595 5.221-3.199 8.139-5.321 2.694-1.96 7.046-6.922 10.956-4.695 0.9 0.513 2.462 2.251 3.756 3.443 1.198 1.104 2.239 2.574 3.131 3.756 3.36 4.458 6.713 9.036 4.382 16.277-0.293 0.91-1.17 1.591-1.565 2.504-1.871 4.331-3.483 8.734-5.947 12.834-3.661 6.093-8.686 11.489-14.399 15.651-2.062 1.503-5.351 3.165-6.573 5.634-0.884 1.784-0.592 3.939-1.252 5.948-0.346 1.052-1.237 2.257-1.878 3.443-1.702 3.147-2.897 5.361-6.574 7.199-1.326 0.664-4.239 1.896-6.886 0.939 1.791 4.384 5.622 10.544 5.008 16.59-0.351 3.459-2.562 5.641-3.443 8.765-1.76 1.266-3.312 2.74-4.382 4.695 3.478 3.016 4.682 7.946 4.695 15.338 0.01 5.557-0.908 11.578-0.626 16.277 9.195 1.211 12.665 4.907 16.903 12.208 0.648 1.117 1.033 2.332 1.878 3.757 0.425 0.717 1.268 1.845 1.878 3.13 0.838 1.764 1.506 3.702 2.505 5.947 0.862 1.94 1.636 2.696 2.19 5.009 4.024 5.889 8.692 11.133 13.461 16.277-0.264 0.363-0.413 0.839-0.313 1.565 0.343 1.117 2.442 0.479 2.191 2.19-3.132 0.592-4.91-2.785-7.513-3.756-0.418-2.19-2.685-2.805-4.069-4.069-1.901-1.736-3.075-4.239-5.321-5.635-2.923 0.704-3.998 3.708-5.635 5.635-0.865 1.02-2.288 1.674-3.13 2.817-1.426 1.936-2.199 4.242-3.131 6.573-2.135 2.48-4.95 5.015-6.261 8.452-0.598 1.568-0.147 3.434-1.564 4.695-8.795-1.226-1.312-11.582-0.626-16.903-3.71 4.429-3.549 12.729-8.765 15.651-0.882-0.685-0.931-2.2-1.879-2.817 0.74-1.45 1.33-3.06 1.56-5.01zm-47.58-277.96c-0.329 2.697-1.642 4.409-2.19 6.886-2.816 1.463-5.653 2.903-6.574 6.261 2.1 0.516 3.733-1.103 5.635-1.878 1.985-0.81 4.182-1.422 6.261-2.191-0.002-1.146-1.837-0.459-1.565-1.878 0.706-1.902 2.481-2.735 4.069-3.756-0.094-1.159-1.378-1.126-0.939-2.817 0.325-1.241 1.515-1.616 2.191-2.504-2.74-0.859-3.55 3.197-6.9 1.877zm-10.64 21.912c1.798-0.19 3.013-2.614 5.009-1.565-0.47 1.826-2.225 2.367-2.505 4.382 1.32-0.245 2.288-0.843 2.817-1.878 1.752-0.857 3.969-1.248 5.321-2.504-1.368 0.218-3.222 1.225-3.443-0.626 0.622-0.63 1.481-1.023 1.879-1.878-0.367-0.467-1.301-0.369-1.253-1.252 0.2-2.201 2.956-1.844 3.443-3.756-3.318 0.229-5.141 1.954-7.199 3.443-0.738-0.097-0.582-1.087-1.565-0.939-0.069 0.786-1.586 1.725-0.938 2.191 0.402-0.475 2.032-1.086 2.191 0-0.78 1.927-2.31 3.109-3.75 4.382zm42.26 175.92c-12.167 2.488-26.202 4.994-36.938 8.139-6.121 1.794-12.375 4.385-16.903 7.2-4.757 6.094-9.026 13.259-13.146 19.721-0.809 1.268-2.521 3.269-2.817 4.382-0.121 0.452-0.418 0.045-0.626 0.313-2.107 2.722-4.884 5.89-5.635 9.391-2.382 2.208-4.821 4.36-6.261 7.513 1.739-0.766 4.393-0.616 6.574-0.939 0.616-1.44 1.671-2.537 2.504-3.756 4.484-6.568 7.992-11.98 12.521-18.782 1.363-2.046 3.496-6.771 5.635-6.886 2.36-0.127 3.854 3.152 4.383 5.008 1.505 5.279 2.086 11.162 2.816 16.591 0.818 6.075 1.302 10.46 1.565 16.277 0.154 3.405-0.01 6.749 0.313 10.017 0.104 1.052 0.603 2.143 0.626 3.13 0.131 5.493-0.581 10.459-0.626 15.025-0.02 1.958 1.122 4.276-0.626 5.009-1.59-0.228-0.894-2.46-0.939-3.443-0.33-7.031 0.341-13.328 0-20.347-2.183 0.465-1.527 3.192-1.565 5.008-0.1 4.784 0.709 8.979 0.626 12.834-0.026 1.238-0.107 3.173-0.938 3.757-0.821-4.491-1.058-12.21-0.626-17.843-1.276 1.046-2.555 2.308-3.131 4.069-0.592 1.812-0.04 4.217-0.312 6.574-0.088 0.755-0.581 1.477-0.626 2.19-0.183 2.864 0.918 7.571-1.879 7.513 0.675-4.126 0.856-8.743 0.939-13.46-3.368 1.754-2.168 5.706-2.504 10.33-0.246 3.382-1.005 6.773-0.939 9.703 1.579 2.195 2.683 4.78 4.069 7.2 1.276 2.227 3.775 4.595 2.817 7.825-2.043-0.874-3.227-3.219-4.383-5.008-1.299-2.012-2.2-4.307-3.442-6.261-2.49-3.915-5.657-7.993-6.261-12.521-2.415 2.009-5.498 1.995-9.391 1.253 1.81 5.076 5.343 8.43 8.452 12.208-0.038-2.607-0.872-6.702 0-8.766 0.861 2.779 0.877 7.038 0.626 10.018 3.49 4.961 6.938 9.965 12.521 12.834 3.495-4.522 7.579-8.039 11.582-11.896 1.912-1.842 3.569-4.081 5.321-5.634 3.622-3.213 6.725-6.562 10.017-10.018 1.313-1.378 2.554-2.894 3.756-4.382 1.242-1.538 2.939-2.949 3.131-4.383-1.987 1.979-4.754 3.177-6.261 5.635-0.699 0.953-2.089 0.481-3.443 1.252-0.486 0.277-0.778 1.232-1.252 1.565-0.544 0.383-1.603 0.851-2.191 0.938-1.511 0.227-4.481-0.084-5.634-1.564 0.046-1.832 1.72-2.036 2.504-3.131 2.912-0.55 5.566-2.954 8.765-3.756 0.569-0.143 1.324 0.189 1.878 0 2.692-0.922 5.227-3.531 7.826-2.504 1.708-2.28 3.441-4.743 5.321-7.2 0.794-1.038 1.895-2.021 2.19-3.13 0.118-0.44 0.448-0.054 0.627-0.313 2.868-4.183 5.165-8.616 8.139-12.834 0.979-1.39 2.147-2.646 3.13-4.069 2.382-3.449 4.051-6.61 6.573-10.017 2.718-3.669 4.618-7.061 6.887-11.269 1.114-2.067 2.806-4.4 3.13-5.948 0.311-1.478-0.1-4.103 0-6.26 0.153-3.278 0.265-7.035 0.313-11.582 0.082-7.719 0.213-13.955-2.817-18.156-4.82 2.44-9.7 4.36-15.96 5.64zm-110.18 87.33c-1.82-4.616-5.527-8.056-7.826-11.895-0.333-0.014-0.795 0.147-0.313 0.312 5.474 12.683 11.197 25.114 17.529 36.938 0.703-1.802 1.771-3.238 2.817-4.695-1.417-4.157 1.396-9.064-0.313-12.521-0.083 1.17-0.678 1.827-2.191 1.565-1.083-1.406-0.107-4.163 0-5.321 0.318-3.43-0.19-7.562 0-11.895 0.244-5.538 0.245-11.873 0.626-17.53 0.318-4.712 1.576-7.972 1.878-11.582 0.083-0.994-0.121-2.066 0-3.13 0.494-4.334 1.467-15.32 4.695-15.651 1.981-0.203 4.179 3.665 5.008 5.321 2.375 4.746 4.564 10.289 6.261 15.339 2.746-1.188 1.184-3.187 0.626-5.009-1.203-3.932-1.807-7.485-3.13-10.643-2.083-4.966-4.666-10.847-8.139-13.773-1.016 1.175-2.077 2.306-4.069 2.504-2.3 4.377-3.746 9.121-5.008 14.399-0.599 2.502-1.019 5.283-1.252 7.826-1.269 13.793-1.252 28.567-1.252 42.884 0 1.882 0.512 4.141-0.626 5.948-4.28-0.71-4.02-6.04-5.34-9.39zm131.47-57.6c4.203 0.301 5.117 5.503 4.069 10.018 2.659 1.128 7.526 1.85 5.321 5.947 1.769 0.812 2.292 3.194 1.565 5.635 2.823 0.545 4.944 2.647 4.069 5.947 1.278 0.912 2.951 1.431 3.13 3.443 1.769-0.633 2.834-1.966 4.069-3.131-4.66-4.817-7.187-13.866-10.329-20.033-0.59-1.158-0.976-2.645-1.565-3.443-0.626-0.849-1.831-1.322-2.504-2.191-1.833-2.367-4.104-4.707-8.139-4.069-0.23 0.95 0.53 0.92 0.31 1.87zm-114.57 30.06c1.3-0.266 2.762-0.368 3.13-1.565 0.562-1.46 0.313-3.844 0.313-5.947 0-1.972 0.497-4.913-0.626-5.635-0.314 0.002-0.372-0.253-0.626-0.312 0.06 5.25-2.34 8.07-2.18 13.45zm28.48-9.4c-0.479 1.852 0.346 4.036 0 6.573 1.654 0.016 2.329 1.011 3.757 1.252-0.684-3.281-0.139-7.791-0.313-11.582-0.068-0.243-0.262-0.363-0.626-0.312-0.4 1.54-2.34 2.23-2.82 4.07zm5.64-4.06c-1.335 3.151-0.299 8.675-0.626 12.834 1.699 0.597 2.792 1.799 4.382 2.504-0.655-2.713 0.098-5.555-0.312-8.139-0.07-0.441-0.784-1.333-0.939-1.878-0.291-1.026-0.051-2.017-0.312-2.817-0.14-0.426-0.776-0.574-0.939-0.938-0.245-0.55 0.531-1.847-0.626-1.565-0.2 0.02-0.41 0.02-0.62 0.02zm-29.11 11.58c1.076 0.137 1.754-0.124 2.504-0.313-0.059-2.835-0.144-5.673-2.504-6.887 0.65 2.36 0.02 4.64 0 7.2zm18.15-1.88c1.144 0.212 2.276 0.437 3.757 0.312-0.338-1.227 0.725-3.854-0.626-4.069-1.27 1.03-2.23 2.36-3.13 3.76zm20.04 9.08c0.138-3.379-0.74-5.168-0.626-7.825-1.658 0.51-1.35-0.946-1.879-1.565-0.307 0.96-0.835-0.359-1.252-0.312-0.7 4.06-0.61 9.13 3.76 9.69zm-36.32-3.45c-0.351 1.423-1.627 1.921-2.817 2.505-0.372 2.081-2.81 3.258-4.382 5.321-0.831 1.09-1.071 2.681-1.878 3.756-0.388 0.517-1.219 0.699-1.565 1.252-0.913 1.46-1.212 3.616-1.252 5.635-0.035 1.709-0.08 4.224 1.252 5.009 6.482-9.378 14.257-17.464 22.538-25.042-3.3-0.73-8.51 0.47-11.9 1.56zm27.24 2.19c-0.004 0.414-0.549 0.286-0.626 0.626-5.712 4.601-11.807 8.865-16.903 14.086-5.074 5.198-10.271 10.494-14.086 16.903 2.381 3.99-1.594 7.119-2.817 10.33 3.988 8.378 10.028 17.106 15.651 24.416 2.831 3.68 4.696 7.947 9.391 8.765 2.153-2.541 4.3-5.091 6.573-7.513-8.415-8.905-16.598-18.043-22.851-29.111-1.416-0.775-2.516-1.866-2.817-3.756 8.614-8.29 18.879-14.929 28.799-21.912 2.051-0.244 2.881-1.709 5.008-1.878 0.149-1.833 1.96-2.005 1.878-4.069-3.03-1.67-4.29-5.1-7.19-6.9zm84.52 7.52c0.485-0.37 1.77-1.542 0.939-2.191-0.24 0.57-1.43 2.91-0.94 2.19zm-149.32 0.94c1.183 0.035 1.683-0.613 1.878-1.565-0.4-0.018-0.434-0.401-0.939-0.313 0 0.92-0.813 1.05-0.938 1.87zm-12.834 14.4c1.332 1.682 2.167 3.56 5.008 2.191 0.012-1.786-0.263-3.284-0.939-4.382 0.538-1.027 1.67-1.461 3.443-1.253 1.332 0.338 0.989 2.351 2.817 2.191-0.073-1.638 0.701-2.429 1.252-3.443 1.289 0.246 1.606-0.48 2.817-0.312 0.618-1.156 1.357-2.19 1.565-3.757-2.438-0.588-2.047-4.004-3.756-5.321-3.187 5.58-8.231 9.3-12.216 14.08zm153.07-7.2c0.245-1.603 2.515-4.5 1.564-4.695-0.79 1.09-2.45 2.97-1.56 4.7zm-114.57 11.58c1.041 0.385 0.766-2.116 0.313-2.191-0.43 0.4-0.31 1.35-0.31 2.19zm36.94 2.5c-0.444 1.729 0.268 3.96-0.938 5.009 1.139 1.052 1.716 2.666 2.817 3.756-0.416-4.486 1.216-8.589 0.312-12.521-0.59 1.19-1.76 2.07-2.19 3.75zm-36 12.52c1.397-0.586 1.844-2.121 2.817-3.131-0.361-2.544-0.502-6.216 0.313-8.139-1.086-0.896-1.128-2.837-2.504-3.443 0.12 5.5-0.27 9.55-0.63 14.71zm34.43-8.76c0.266-0.262 0.857-2.446-0.313-2.191-0.29 0.8-0.51 1.77 0.31 2.19zm-30.67 4.07c0.531-1.034 1.256-1.874 1.565-3.131-0.549-0.494-0.649-1.438-1.565-1.564 0.57 1.97-1.22 4.08-0.01 4.69zm12.52-3.45c1.063 0.589 3.794 0.571 3.443-1.252-1.53 0.03-3.12 0.01-3.44 1.25zm-6.89 38.19c1.457 2.587 2.719 4.971 4.069 7.2 1.767 2.915 2.829 5.979 5.321 7.825 0.788-1.299 2.109-2.064 2.504-3.756-5.727-4.599-10.277-12.144-15.025-16.591 1.06 2.15 2.09 3.45 3.14 5.32zm5.01 26.3c0.599-0.55 1.124-1.172 1.252-2.191-1.66-0.18-2.26 1.32-1.25 2.19z"/>
	<path d="m274.21 112.02c0.506-0.088 0.539 0.296 0.938 0.313 1.441 4.281 1.751 10.088-0.312 13.773-0.468 0.835-1.581 1.732-2.191 2.504-0.695 0.881-1.016 2.428-2.191 2.191-1.178-0.806-0.121-2.96 0-4.695 0.136-1.941-0.158-3.518-0.626-5.009-1.132 0.106-1.644 1.21-2.817 2.191-1.717 1.437-6.438 3.883-6.573 6.887-0.067 1.506 1.501 3.455 2.191 5.008 0.704 1.587 1.472 3.067 1.878 5.008-3.906 5.484-8.562 10.22-13.146 15.025-3.421 0.082-4.988-1.691-5.635-4.382 2.34-4.546 6.962-6.812 9.078-11.582-0.71-2.943-2.177-5.127-2.817-8.139 0.366-1.237 1.567-1.163 2.504-1.878 0.803-0.613 1.395-1.664 2.191-2.191 0.844-0.558 1.962-0.719 2.817-1.252 0.944-0.59 1.564-1.504 2.504-2.191 0.784-0.574 1.754-0.701 2.504-1.252 0.586-0.431 0.92-1.33 1.565-1.878 2.92-2.47 6.06-4.71 8.15-8.46z"/>
	<path d="m40.067 278.24c1.902 0.644 3.725-1.487 5.947-1.565-1.037 2.511-1.619 5.477-3.443 7.199 3.966 0.046 6.653-2.654 10.643-1.564 0.916-0.545 1.997-0.925 2.504-1.878-1.519 0.236-3.624 1.266-5.008 0.626-0.451-2.955 2.242-2.767 3.13-4.383-2.309 0.326-3.444-0.521-4.695-1.252-0.428-1.367 1.212-0.666 0.939-1.878-1.247-0.414-1.888-1.151-2.504-2.817-0.813-0.23-1.838-0.249-2.191-0.939 1.373-2.279 3.837-3.467 5.635-5.321-1.705 0.05-3.904 0.099-6.574-0.312-0.231-1.38 1.013-1.283 1.252-2.191-1.301-0.265-2.323-0.808-4.069-0.626 0.099-1.78 1.848-1.909 2.817-2.817-2.09-1.333 1.423-2.461 2.504-3.443-2.557-2.232-6.198 2.188-7.826 0.939 0.191-1.374 1.555-1.575 1.565-3.131 4.817-1.131 6.917-4.978 10.33-7.513 0.447-2.475 1.74-4.103 2.504-6.261 2.628 0.92 2.337 4.759 4.382 6.261 0.372 3.032 1.379 6.272 3.13 8.765 0.388 0.553 0.965 0.663 1.252 1.252 0.814 1.67 0.993 4.136 1.878 6.261 0.359 0.861 1.174 1.602 1.565 2.505 1.938 4.474 4.43 10.372 5.634 14.712 0.788 2.838 0.976 5.487 0.626 8.765-1.761 2.621-3.529 5.236-5.322 7.825-7.342 4.39-14.542 10.804-25.042 12.208-6.835 0.915-13.946 0.332-17.529-3.443-0.434-0.456-0.726-1.498-1.252-2.19-0.9-1.185-1.829-1.415-2.504-2.817-0.768-1.595-1.867-3.616-2.504-5.009-0.664-1.451-0.425-3.403-2.191-4.382-2.513-8.652-7.167-15.162-9.704-23.79-0.137-0.386-0.401-0.643-0.939-0.626-0.133-3.846-3.346-7.827-4.382-12.521-0.502-2.274 0.17-4.663-0.626-6.887 0.538-1.236 0.901-2.646 0.939-4.382 1.648-1.312 1.92-3.24 3.13-4.383 1.453-1.372 4.016-2.396 5.948-4.069 0.954-0.826 1.188-1.309 2.504-2.19 0.925-0.62 2.166-1.556 3.443-2.191 0.838-0.418 1.955-0.497 2.817-0.939 1.525-0.783 2.31-1.179 4.382-1.878 1.54-0.52 3.987-1.48 6.573-1.878 4.702-0.724 10.012 0.542 15.964-0.313 1.854-0.267 4.658-1.644 6.574-2.504 2.194-0.985 5.439-1.896 7.2-3.757 1.085 0.251 1.203-0.466 2.191-0.312 2.895-1.592 6.184-2.789 9.391-4.069 14.727-8.229 31.068-14.843 46.641-22.225-1.345-0.915-3.1 0.438-5.009 0 0.537-2.402 3.166-3.258 5.635-4.382 2.96-1.348 5.967-2.571 11.269-2.191 2.336 0.167 4.795 1.032 7.199 1.252 3.981 0.365 8.136-0.591 12.208 0 7.97 1.156 15.645 3.499 22.851 2.817 1.424-0.135 2.235-1.415 3.443-0.313-0.39 1.508-2.573 1.951-4.069 2.191-7.58 1.214-14.624-0.754-23.477 0.313-5.667 0.684-11.175 2.425-16.59 1.252-10.582 5.904-22.144 10.828-32.555 16.903 3.229 1.153 5.56 3.205 6.261 6.887-3.517-0.448-4.068-3.861-6.887-5.008-0.263-0.363-0.413-0.84-0.313-1.565-6.611 3.942-13.831 7.703-20.66 11.895-2.042 1.254-4.267 2.678-6.574 4.069-5.166 3.118-11.52 6.294-15.338 11.27-0.444 1.226-0.601 2.738-2.504 2.504-0.15-1.774 0.998-4.802 1.565-6.887 2.199-1.453 4.552-2.752 5.009-5.947 0.771-0.041 1.508-0.048 1.878 0.312 0.742-1.031 1.539-2.009 2.191-3.13 1.045-0.314 1.027 0.435 0.939 1.252 1.245-0.528 1.17-2.378 2.504-2.817 1.052-0.321 0.487 0.974 0.626 1.565 0.915-0.65 0.964-2.167 1.878-2.817 0.818-0.087 1.566-0.105 1.252 0.939 0.89-0.571 0.694-2.228 1.878-2.504-1.551-0.785-4.29 0.141-5.322 0 0.378 0.456 1.369 0.301 0.939 1.564-1.017-0.026-1.926-0.161-2.504-0.626 0.366 1.595-2.812 1.017-2.817 3.131-1.475-0.091-2.216-0.914-4.069-0.627-0.585 0.113 0.881 0.753 0.313 1.879-1.002-0.354-2.077-0.637-3.443-0.626-0.723 0.249 1.005 0.628 0.626 1.564-1.333 0.186-2.07-0.225-3.13-0.312-2.239 0.405-4.056 1.329-6.26 1.252-0.757-0.026-2.788-0.883-4.383-0.939-2.383-0.083-4.995 0.492-7.512 0.626-5.599 0.298-10.724 1.424-15.025 3.757-4.225 2.291-7.581 5.412-10.956 8.765-2 1.986-4.446 3.829-5.008 7.199-0.155 0.931 0.296 1.871 0.313 2.817 0.021 1.162-1.133 3.103 0.626 3.757 0.481-0.979 0.499-2.424 0.626-3.757 2.172-3.922 5.47-7.8 9.391-10.956 1.611-1.297 2.927-1.836 5.008-3.13 1.292-0.804 3.948-2.573 5.947-3.13 0.874-0.244 1.934-0.079 2.817-0.313 0.527-0.14 1.039-0.811 1.565-0.939 1.281-0.312 3.125-0.515 4.383-0.626 1.788-0.158 4.039-0.294 5.947 0 3.124 0.482 5.178 2.219 7.2 4.383-0.059 3.264 0.276 6.483-0.939 9.077-1.367 2.919-4.88 5.986-8.452 8.452-5.051 3.487-11.79 5.541-19.407 6.573-4.664 0.632-8.711 0.673-12.834 0 0.39 1.28 1.184 2.155 1.878 3.131 4.062 0.979 10.821 2.184 15.651 0.938 1.703-0.438 2.544-1.792 4.069-1.564 1.633-1.412 4.412-1.89 6.573-2.817 1.175-0.504 2.29-1.699 3.443-1.252 0.31 1.77-1.294 1.627-1.565 2.816-3.688 0.799-5.905 3.068-8.452 5.009 3.328 0.561 7.803-1.932 10.643-1.878-0.819 1.894-1.128 4.298-2.817 5.321 0.301 0.686 1.823-0.986 2.504 0 0.098 1.768-1.338 2-1.878 3.13 2.741 0.292 4.699-1.703 6.887-0.938-0.792 2.756-3.868 3.227-5.635 5.008 2.527 0.541 4.717-1.958 8.139-1.564-0.375 2.547-3.664 2.179-3.756 5.008-0.88-0.29-0.806 0.41-1.561 0.28zm56.032-73.25c2.523-0.502 4.396-1.656 6.26-2.817-2.582 0.45-4.556 1.5-6.261 2.82zm-18.156 12.21c0.449-0.386 0.593-1.076 0.626-1.878h-0.939c0.469 0.95-0.945 2.06 0.313 1.88zm-4.382 0.94c0.632-0.448 1.97 0.97 1.878-1.252-0.712-0.227-1.599-0.278-2.191-0.626-0.534 0.5-0.287 1.61 0.313 1.88zm-49.771 20.34c-0.051-0.886 1.93 0.261 1.878-0.626-0.93-0.37-2.397-0.01-1.878 0.63zm-6.261 5.64c3.375-0.485 7.108-0.613 8.765-2.817-3.753 0.11-8.69-0.97-8.765 2.82zm5.009 5.32c0.914 1.39 3.036-0.182 5.008 0.313v-1.878c-1.556-0.37-4.37 0.05-5.008 1.57zm28.172 35.06c-2.852 1.009-4.244 3.478-6.574 5.009 2.873 0.16 4.409-1.017 7.513-0.626 0.134 0.596 0.674 0.786 0.626 1.565-0.478 1.609-2.138 2.035-2.817 3.443 0.648 0.186 2.057-0.388 2.191 0.312-0.579 2.249 1.59 1.749 2.191 2.817 0.044 0.591-0.958 1.419-0.313 2.191 1.025-1.696 3.831-2.899 3.13-5.321-0.648-0.187-2.057 0.387-2.191-0.313 0.018-1.443-0.139-3.061 0.313-4.069-1.401-0.061-2.121-0.801-2.817-1.565-0.353-2.439 1.871-2.302 2.191-4.069-0.571-0.963-1.754 0.629-2.191-0.312-0.018-0.191-0.047-0.371-0.313-0.313-0.313 0.41-0.516 0.94-0.939 1.25z"/>
</g>
<metadata><rdf:RDF><cc:Work><dc:format>image/svg+xml</dc:format><dc:type rdf:resource="http://purl.org/dc/dcmitype/StillImage"/><cc:license rdf:resource="http://creativecommons.org/licenses/publicdomain/"/><dc:publisher><cc:Agent rdf:about="http://openclipart.org/"><dc:title>Openclipart</dc:title></cc:Agent></dc:publisher><dc:title>Charles Gates Dawes</dc:title><dc:date>2009-06-13T21:45:57</dc:date><dc:description>The Art of Caricaturing by Mitchell Smith, 1941 Frederick J. Drake &amp; Co. - stated as Public Domain by Archive.org</dc:description><dc:source>http://openclipart.org/detail/26602/charles-gates-dawes-by-johnny_automatic</dc:source><dc:creator><cc:Agent><dc:title>johnny_automatic</dc:title></cc:Agent></dc:creator><dc:subject><rdf:Bag><rdf:li>business</rdf:li><rdf:li>caricature</rdf:li><rdf:li>cartoon</rdf:li><rdf:li>clip art</rdf:li><rdf:li>clipart</rdf:li><rdf:li>externalsource</rdf:li><rdf:li>famous-people</rdf:li><rdf:li>history</rdf:li><rdf:li>image</rdf:li><rdf:li>man</rdf:li><rdf:li>media</rdf:li><rdf:li>person</rdf:li><rdf:li>politics</rdf:li><rdf:li>public domain</rdf:li><rdf:li>svg</rdf:li><rdf:li>usa</rdf:li></rdf:Bag></dc:subject></cc:Work><cc:License rdf:about="http://creativecommons.org/licenses/publicdomain/"><cc:permits rdf:resource="http://creativecommons.org/ns#Reproduction"/><cc:permits rdf:resource="http://creativecommons.org/ns#Distribution"/><cc:permits rdf:resource="http://creativecommons.org/ns#DerivativeWorks"/></cc:License></rdf:RDF></metadata></svg>
