<?xml version="1.0" encoding="UTF-8" standalone="no"?>
<!-- Created with Inkscape (http://www.inkscape.org/) -->

<svg
   xmlns:dc="http://purl.org/dc/elements/1.1/"
   xmlns:cc="http://creativecommons.org/ns#"
   xmlns:rdf="http://www.w3.org/1999/02/22-rdf-syntax-ns#"
   xmlns:svg="http://www.w3.org/2000/svg"
   xmlns="http://www.w3.org/2000/svg"
   xmlns:xlink="http://www.w3.org/1999/xlink"
   xmlns:sodipodi="http://sodipodi.sourceforge.net/DTD/sodipodi-0.dtd"
   xmlns:inkscape="http://www.inkscape.org/namespaces/inkscape"
   id="svg3808"
   version="1.1"
   inkscape:version="0.48.5 r10040"
   width="800"
   height="995"
   sodipodi:docname="Kermit Head.svg">
  <metadata
     id="metadata3814">
    <rdf:RDF>
      <cc:Work
         rdf:about="">
        <dc:format>image/svg+xml</dc:format>
        <dc:type
           rdf:resource="http://purl.org/dc/dcmitype/StillImage" />
        <dc:title></dc:title>
      </cc:Work>
    </rdf:RDF>
  </metadata>
  <defs
     id="defs3812" />
  <sodipodi:namedview
     pagecolor="#ffffff"
     bordercolor="#666666"
     borderopacity="1"
     objecttolerance="10"
     gridtolerance="10"
     guidetolerance="10"
     inkscape:pageopacity="0"
     inkscape:pageshadow="2"
     inkscape:window-width="1366"
     inkscape:window-height="706"
     id="namedview3810"
     showgrid="false"
     inkscape:zoom="0.47437186"
     inkscape:cx="572.24841"
     inkscape:cy="512.72152"
     inkscape:window-x="-8"
     inkscape:window-y="-8"
     inkscape:window-maximized="1"
     inkscape:current-layer="svg3808" />
  <image
     width="800"
     height="995"
     xlink:href="file:///G:/SHAMEKA%20HOUSTON/The%20Muppets/Kermit/Kermit%20Head.gif"
     id="image3816"
     x="-1602.1187"
     y="-101.18644" />
  <g
     id="g3963">
    <path
       inkscape:connector-curvature="0"
       id="path3880"
       d="m 293.75292,987.85809 c -3.4942,-7.1248 -8.0013,-23.42098 -12.3869,-44.78697 -2.536,-12.35469 -5.4894,-26.73807 -6.5631,-31.96307 -5.7416,-27.93914 -8.8627,-58.12541 -9.5642,-92.5 -0.5718,-28.01945 -0.1104,-35.9805 3.0695,-52.96303 0.82,-4.37967 1.3838,-8.07024 1.2528,-8.20127 -0.2807,-0.28063 -16.6271,10.04627 -21.6292,13.6643 -11.6807,8.44856 -33.6811,25.26477 -40.9791,31.32265 -25.2756,20.98076 -78.5361,69.78533 -98.0608,89.85671 -6.875,7.06753 -13.287504,12.84343 -14.250004,12.83534 -9.2367,-0.0776 16.160604,-73.57085 51.149904,-148.0147 4.5239,-9.625 10.1096,-21.17923 12.4127,-25.67606 10.1252,-19.76964 18.6874,-36.67468 18.6874,-36.8961 0,-0.45183 -19.8383,10.39293 -22.672,12.39382 -1.5554,1.09828 -9.803,6.50062 -18.328,12.00522 -35.2756,22.77749 -71.535504,49.96332 -105.360204,78.9939 -11.1074,9.53309 -14.63977,11.72366 -14.63977,9.07873 0,-2.13357 11.88996,-25.92316 18.04178,-36.09821 15.27029,-25.25701 42.00959,-63.7654 58.53659,-84.3013 7.3619,-9.14763 8.638404,-10.58217 26.693604,-30 21.2637,-22.86857 56.0329,-54.26486 75.1382,-67.84925 1.8228,-1.29606 1.4978,-2.15429 -7.1029,-18.75448 -9.1508,-17.66182 -23.4416,-42.63685 -30.451,-53.21698 -2.1209,-3.2014 -3.8563,-6.1597 -3.8563,-6.57402 0,-0.41432 -3.8526,-6.345 -8.5614,-13.17929 -4.7089,-6.83429 -10.8964,-16.01276 -13.75,-20.3966 -2.8537,-4.38384 -9.3516,-14.28384 -14.4398,-22 -21.634804,-32.80869 -45.248804,-71.32366 -45.248804,-73.80173 0,-0.26306 -2.5323,-5.8219 -5.6274,-12.35297 -5.8924,-12.4337 -11.6567,-28.78558 -15.4823,-43.91981 -3.33916,-13.20951 -3.33375,-38.25923 0.012,-54.45487 5.9744,-28.92211 18.6771,-57.00023 39.812,-88 13.852604,-20.31848 21.203004,-29.70908 32.592004,-41.63808 l 6.815,-7.13807 -1.7977,-5.86193 c -1.3881,-4.52622 -1.7992,-9.27982 -1.8044,-20.86192 -0.01,-15.387212 0.4848,-18.664702 5.1733,-34.482952 9.6115,-32.428422 36.2892,-57.601983 68.4628,-64.6028129 9.794,-2.131142 28.5901,-3.001674 34.0657,-1.577737 2.3536,0.612079 7.4115,1.860569 11.2398,2.774422 9.0065,2.1499919 17.2435,5.8940319 26.3801,11.9907939 12.9828,8.663385 11.2453,8.193363 16.8923,4.569677 12.2294,-7.847541 33.7389,-14.907218 52.2409,-17.1460299 13.6178,-1.647813 32.4716,-1.259129 45.1769,0.931356 17.4825,3.0141129 27.3138,6.7736379 41.3331,15.8058939 6.533,4.209101 7.1783,4.419516 10,3.260973 15.0018,-6.159596 19.9389,-7.301849 33.7243,-7.802479 15.9154,-0.577982 21.928,0.317577 36.6575,5.459963 28.0708,9.800128 50.1839,33.798891 59.726,64.81893 2.5455,8.2752 2.7839,10.460682 2.9607,27.137382 l 0.1923,18.13738 6.6449,8.36262 c 3.6548,4.59944 8.498,10.52683 10.7627,13.17197 2.2648,2.64515 5.0923,6.24515 6.2834,8 1.1912,1.75486 4.9425,7.27895 8.3364,12.27577 7.0542,10.3859 25.2929,45.5338 30.5717,58.91488 13.6008,34.47614 19.6007,64.71618 18.2537,92 -1.612,32.65107 -11.283,57.71216 -38.6177,100.07262 -6.5888,10.21066 -11.9797,18.73177 -11.9797,18.93579 0,0.20402 -2.7272,4.74387 -6.0604,10.08855 -3.3333,5.34468 -7.9037,13.13432 -10.1565,17.31032 -7.2894,13.51224 -21.4616,38.44901 -27.2703,47.98374 -3.1139,5.11135 -5.5157,9.42669 -5.3372,9.58963 0.1784,0.16295 7.9744,2.20298 17.3244,4.5334 15.3123,3.81645 36.8406,11.12037 59,20.01687 27.9003,11.20132 78.4605,38.1194 100.573,53.54461 2.5151,1.7545 6.042,3.94969 7.8375,4.87819 8.1608,4.22008 36.6625,27.82457 40.0466,33.16574 0.8014,1.26483 1.1132,2.64364 0.6928,3.06402 -0.4204,0.42039 -5.8011,-0.28055 -11.9571,-1.55762 -20.2269,-4.19611 -36.8864,-7.1484 -41.0742,-7.27892 -2.2652,-0.0706 -4.5928,-0.4969 -5.1724,-0.94733 -0.5797,-0.45043 -7.6724,-1.514 -15.7616,-2.36349 -23.8026,-2.49962 -76.0583,-1.93697 -89.2677,0.96118 -1.7439,0.38261 0.4615,3.02595 13.5406,16.22987 8.593,8.67506 20.295,21.39783 26.0044,28.27283 5.7093,6.875 10.9062,12.95 11.5485,13.5 0.6424,0.55 5.6693,7.3 11.171,15 27.7994,38.90716 43.5141,67.28367 45.836,82.76735 0.6485,4.32449 0.5344,4.73265 -1.3235,4.73265 -1.1183,0 -8.0319,-3.07059 -15.3636,-6.82354 -26.8914,-13.76528 -54.9393,-22.58721 -97.4664,-30.65628 -9.9748,-1.89263 -21.2248,-3.71822 -25,-4.05687 -3.7751,-0.33865 -7.7639,-1.018 -8.8639,-1.50968 -2.2439,-1.00297 -38.3712,-5.95363 -43.4464,-5.95363 -2.7196,0 -3.1468,0.29346 -2.5474,1.75 0.396,0.9625 2.0132,5.23397 3.5936,9.49216 1.5804,4.25819 3.3118,8.53319 3.8475,9.5 2.313,4.17471 10.3151,34.43592 15.45,58.42682 3.3868,15.82368 6.8541,42.33938 8.0852,61.83102 0.6732,10.65709 -1.0322,51.64274 -2.4883,59.80441 -2.839,15.91252 -4.6029,16.86256 -11.0389,5.94559 -6.3246,-10.72808 -25.7458,-41.86492 -27.9122,-44.75 -1.0324,-1.375 -6.2652,-8.8 -11.6282,-16.5 -28.4701,-40.8758 -49.1899,-65.53547 -90.7451,-108 l -15.6573,-16 -1.8395,3 c -1.0117,1.65 -4.2467,7.725 -7.189,13.5 -2.9423,5.775 -10.9759,20.85 -17.8526,33.5 -27.6662,50.89335 -46.4829,92.8499 -66.7116,148.75004 -7.2461,20.0239 -8.5094,21.718 -11.5588,15.5 z"
       style="fill:#000000" />
    <path
       id="path3874"
       d="m 299.44121,965.25 c 0.36509,-2.0625 1.739,-6 3.05313,-8.75 1.31414,-2.75 4.92982,-12.82407 8.03486,-22.38682 6.34761,-19.54911 12.95093,-36.432 23.58523,-60.301 10.03379,-22.52112 36.11256,-71.31772 46.39576,-86.81218 12.32031,-18.56393 17.76011,-26.16649 19.08703,-26.67568 2.53638,-0.9733 12.44327,6.51224 25.23787,19.06945 14.03455,13.77417 13.7462,13.47004 26.17478,27.60623 19.31954,21.97392 40.12254,48.29007 59.68298,75.5 C 520.99584,896.83217 532,913.31982 532,914.42473 c 0,0.79211 13.26553,23.60051 16.46283,28.30576 l 2.42425,3.5676 0.71182,-2.8361 c 1.05232,-4.19281 -0.37242,-49.87009 -2.04187,-65.46199 -3.10023,-28.95481 -9.36052,-62.89094 -16.14136,-87.5 -1.97013,-7.15 -3.96631,-15.12999 -4.43596,-17.73332 -0.46965,-2.60332 -2.24149,-9.10706 -3.93742,-14.45276 -1.69592,-5.34569 -3.35674,-11.4282 -3.6907,-13.51668 L 520.74438,741 l 12.87781,0.0258 c 51.97245,0.10412 125.30044,16.8932 168.62781,38.60879 4.8125,2.41201 8.75,4.14101 8.75,3.8422 0,-4.43053 -28.87311,-49.46177 -45.41752,-70.83431 -3.34536,-4.32164 -6.53248,-8.61861 -7.08248,-9.54882 -1.03113,-1.74395 -7.51699,-10.20528 -8.50362,-11.09366 -0.30541,-0.275 -4.13996,-4.775 -8.52121,-10 -4.38126,-5.225 -15.7305,-17.4188 -25.22055,-27.09734 C 606.76458,645.22412 599,636.57906 599,635.6914 c 0,-4.19017 21.82949,-7.60056 53.5,-8.35823 30.86414,-0.73837 59.70484,1.19279 85,5.69158 5.5,0.97818 10.10489,1.68038 10.2331,1.56045 0.1282,-0.11994 -2.49569,-2.21317 -5.83089,-4.65163 -3.33519,-2.43846 -6.93164,-5.22512 -7.9921,-6.19258 C 722.40316,613.24331 677.0059,587.05163 647,573.59872 c -12.96755,-5.8139 -48.62611,-19.22069 -57.31526,-21.54921 -4.24964,-1.13882 -11.87969,-3.38191 -16.95568,-4.98464 -11.71056,-3.69759 -25.7289,-7.42087 -26.11643,-6.93656 -0.16358,0.20443 -4.48418,6.67169 -9.60134,14.37169 -5.11716,7.7 -10.68923,15.8 -12.38238,18 -30.20307,39.24444 -66.08894,63.26441 -111.99977,74.96629 -20.91416,5.33066 -36.43155,7.02428 -63.62914,6.94469 -58.93942,-0.17247 -96.18556,-10.59621 -124.41444,-34.81874 -5.39439,-4.6288 -10.21278,-10.01067 -17.9077,-20.00188 l -2.82213,-3.66431 -3.67787,2.23479 c -7.95085,4.83121 -35.67714,29.31133 -54.73506,48.32672 -21.1743,21.12705 -37.4262,39.50867 -51.733131,58.51244 -4.761755,6.325 -14.653969,19.375 -21.982697,29 -7.328728,9.625 -17.234396,23.25856 -22.012596,30.29679 l -8.687637,12.7968 10.241077,-9.2968 C 66.477433,753.98958 72.212204,749.23909 86,739.02579 c 17.32207,-12.83131 46.85311,-32.36998 55.39014,-36.64786 3.91042,-1.9595 7.55986,-3.92434 8.10986,-4.36631 3.98099,-3.19904 38.27097,-19.00002 41.25,-19.00819 2.29663,-0.006 1.29564,3.60118 -5.25,18.92065 -3.575,8.36696 -6.5,15.42565 -6.5,15.68599 0,0.26033 -1.35,3.3608 -3,6.88993 -1.65,3.52913 -3,6.89147 -3,7.47187 0,0.5804 -0.43405,1.83666 -0.96456,2.7917 -5.20996,9.3791 -44.06959,96.60399 -52.00735,116.73643 -9.43758,23.93645 -12.61534,31.64563 -15.25155,37 -0.54159,1.1 1.19667,-0.475 3.8628,-3.5 10.51241,-11.92744 30.78859,-33.14368 43.49397,-45.5105 42.81477,-41.67385 73.83818,-65.19544 114.34798,-86.6973 11.69304,-6.20646 14.20391,-6.59848 13.02039,-2.03288 -1.05566,4.07237 -0.66017,72.06074 0.53657,92.24068 2.0623,34.77545 7.71508,79.77661 14.58028,116.07192 1.44896,7.66044 2.97746,13.92808 3.39668,13.92808 0.41921,0 1.06092,-1.6875 1.426,-3.75 z"
       style="fill:#c7a936;fill-opacity:1" />
    <path
       id="path3870"
       d="M 361.0625 16.125 C 346.38202 16.264477 331.20954 18.403504 317.65625 22.5 C 306.81651 25.776321 292 32.204542 292 33.625 C 292 33.946841 294.41884 37.635006 297.375 41.84375 C 307.02735 55.58597 308.31499 58.831158 308.8125 70.90625 C 309.51586 87.977439 306.91316 95.233571 294.4375 111 C 278.63158 130.97514 255.93492 146.52386 230.3125 154.9375 C 215.64347 159.75439 201.74398 161.50098 184 160.71875 C 163.05426 159.79538 148.62454 155.31941 139.53125 146.9375 L 134.90625 142.65625 L 131.9375 145.90625 C 94.841452 186.52123 64.957525 240.83921 59.5 277.59375 C 55.823244 302.35543 59.760437 325.14637 72.6875 354 C 75.271714 359.76805 86.03975 381.17081 88.78125 386 C 103.73818 412.34685 117.02523 432.54039 145.375 472 C 150.70949 479.425 157.18795 488.52372 159.78125 492.21875 C 162.37455 495.91378 165.0625 498.95128 165.75 498.96875 C 166.4375 498.98625 167 499.36882 167 499.8125 C 167 500.25618 170.62289 506.66868 175.0625 514.0625 C 182.51708 526.47752 199.49378 559.52902 208.15625 578.5 C 210.16537 582.9 212.96753 588.975 214.375 592 C 221.20917 606.68827 241.42018 621.87953 266 630.8125 C 280.61829 636.12518 300.29249 640.46934 318.5 642.375 C 326.7467 643.23813 378.65645 642.20613 384.5 641.0625 C 408.25739 636.41298 416.95709 634.33851 427.5 630.84375 C 439.41967 626.89262 466.64025 614.2195 472.65625 609.8125 C 494.01797 594.16405 507.25106 581.2401 517.59375 565.96875 C 524.38396 555.94277 531.56094 543.85475 559.3125 495.71875 L 571.875 473.90625 L 567.1875 477.8125 C 561.95295 482.15058 543.25997 494.79223 538.3125 497.34375 C 536.55231 498.25152 534.41481 499 533.5625 499 C 531.47155 499 531.5837 496.73575 533.75 495.375 C 537.34499 493.11683 551.81185 480.51275 560.375 472.15625 C 578.08138 454.87716 594.27355 435.39541 606.25 417 C 619.24031 397.04731 634.86811 363.32196 640.3125 343.5 C 645.49297 324.63891 644.24494 299.22626 636.90625 274.5 C 633.83075 264.13769 628.83968 249.64379 627.96875 248.5 C 627.54995 247.95 625.5598 243.45 623.53125 238.5 C 614.49243 216.44377 596.99855 183.64329 586 168.125 C 583.525 164.63293 580.825 160.54915 580 159.0625 C 577.62373 154.78046 569.62182 145 568.5 145 C 567.93952 145 566.85719 146.4625 566.09375 148.25 C 558.05355 167.07515 548.39927 177.57037 535.28125 181.6875 C 528.65771 183.76631 505.61691 184.54004 494.53125 183.0625 C 466.46668 179.32194 449.59231 171.80241 427.90625 153.34375 C 410.02368 138.12251 398.62356 121.71098 392.96875 103.09375 C 387.12152 83.843014 394.79677 62.962533 415.15625 42.8125 L 424.9375 33.125 L 420.71875 30.59375 C 412.90614 25.940079 406.35367 23.077941 397.78125 20.59375 C 387.78456 17.696824 376.11613 16.230479 364 16.125 C 363.02638 16.116524 362.0412 16.115702 361.0625 16.125 z M 100.8125 233.125 C 102.67873 232.98367 102.16554 235.24261 98.53125 244.5 C 96.624175 249.35776 94.331218 256.60791 93.4375 260.625 C 91.91731 267.45797 91.935685 268.27344 93.5625 273.21875 C 103.20579 302.53318 139.67163 355.92354 168.5 382.9375 C 181.12866 394.77134 194.55416 405.4889 208.0625 414.5 C 219.7394 422.2894 243.69255 435 246.6875 435 C 247.7391 435 249.04 435.4005 249.5625 435.90625 C 250.085 436.412 256.575 438.87758 264 441.375 C 284.68778 448.33338 299.73654 449.20876 326.65625 445 C 340.28285 442.86955 373.82182 434.88393 388 430.40625 C 395.975 427.88762 405.10661 425.20102 408.28125 424.40625 C 419.05162 421.70989 454.40092 406.88166 478.5 394.96875 C 511.49766 378.65701 536.7183 363.51152 566 342.4375 C 581.95521 330.95454 590.01768 324.10733 596.0625 316.84375 L 601.25 310.59375 L 600.78125 304 C 600.29648 297.22465 594.72864 282.17739 590.84375 277.125 C 588.3935 273.9384 588.44979 271 590.96875 271 C 593.0446 271 602.34083 284.18919 605.53125 291.65625 C 609.76635 301.56837 608.07041 325.14438 602 340.78125 C 598.71035 349.25512 591.38115 361 589.375 361 C 587.64302 361 587.63958 361.30936 589.90625 352.15625 C 592.15692 343.06774 593.43777 332 592.25 332 C 591.78676 332 587.82582 335.0375 583.4375 338.75 C 563.77493 355.38448 529.89486 378.64525 507 391.21875 C 488.48983 401.38424 477.99422 407 477.5625 407 C 477.28392 407 471.98832 409.50242 465.78125 412.5625 C 451.62651 419.54076 423.53373 431.36172 406.5 437.5 C 399.35 440.07657 391.475 442.97882 389 443.96875 C 376.10129 449.12783 344.35723 457.09242 327.125 459.46875 C 310.94602 461.69982 291.37306 462.17565 279.5 460.625 C 274 459.90669 266.125 458.29473 262 457.0625 C 252.69082 454.28164 233.62416 446.83544 233.1875 445.8125 C 233.00957 445.39567 229.40957 443.18439 225.1875 440.875 C 177.17347 414.6123 128.35046 362.22454 97.6875 304.0625 C 92.189371 293.63355 91.039322 292.01759 90.5625 294.0625 C 89.649155 297.97949 88.008933 314.07831 88 319.25 C 87.9942 322.6013 87.591614 324 86.625 324 C 84.000118 324 81.177419 309.65397 80.3125 291.90625 C 79.630118 277.90408 80.950196 270.2253 86.0625 258 C 90.208393 248.08572 98.610078 233.5504 100.40625 233.1875 C 100.55151 233.15815 100.68808 233.13442 100.8125 233.125 z M 567.6875 405 C 570.18686 405 568.96096 408.84647 564.5 414.90625 C 562.025 418.2683 560 421.40949 560 421.90625 C 560 423.031 545.39795 436.16651 538 441.6875 C 527.90824 449.21886 511.19419 459 508.4375 459 C 507.59299 459 507 458.04059 507 456.65625 C 507 454.84865 508.42403 453.41356 513.09375 450.53125 C 523.43905 444.14576 536.79528 432.93252 558.71875 412.25 C 562.9455 408.2625 566.9738 405 567.6875 405 z M 545.9375 438.125 C 546.84908 437.97244 547.01743 438.87521 546.5625 440.75 C 545.30977 445.91253 539.50795 454.34427 532 461.9375 C 524.68723 469.33334 508.56437 481 505.65625 481 C 504.85699 481 501.78586 482.13037 498.84375 483.5 C 492.84839 486.29099 490.98969 486.58197 491.03125 484.75 C 491.04685 484.0625 493.55966 481.98083 496.625 480.125 C 499.69034 478.26918 503.61219 475.48759 505.34375 473.9375 C 507.07531 472.38742 512.1 468.23102 516.5 464.6875 C 520.9 461.14397 528.964 453.68806 534.40625 448.125 C 540.80876 441.58037 544.4182 438.37927 545.9375 438.125 z M 222 505.15625 C 223.23452 505.12291 225.78022 506.51211 230.5 509.59375 C 246.27475 519.8934 274.35562 532.02812 293.875 536.96875 C 305.2271 539.84213 326.53123 544 329.84375 544 C 335.40823 544 339 545.18293 339 547 C 339 548.31083 337.87209 548.89567 334.375 549.375 C 329.44802 550.05031 307.20382 550.00119 303 549.3125 C 286.56758 546.62036 266.04355 539.81609 253.5 532.90625 C 238.69465 524.75046 221 510.48125 221 506.6875 C 221 505.70301 221.25929 505.17626 222 505.15625 z "
       style="fill:#808000;fill-opacity:1" />
    <path
       id="path3864"
       d="m 231,513.62244 c 0,-0.20765 -0.7875,-0.99515 -1.75,-1.75 -1.58606,-1.24387 -1.62143,-1.2085 -0.37756,0.37756 1.30637,1.66575 2.12756,2.19548 2.12756,1.37244 z"
       style="fill:#000000" />
    <path
       id="path3850"
       d="M 477.15625 24.53125 C 457.44402 24.644381 437.71315 31.609803 422.71875 44.4375 C 400.88202 63.118804 393.41131 84.220825 400.9375 105.84375 C 405.41729 118.7143 412.11439 129.07701 423.03125 140 C 442.0659 159.04533 465.24426 171.21251 490.6875 175.46875 C 506.51252 178.11602 510.17146 178.29763 519.5 176.96875 C 530.75293 175.36573 536.38729 173.29091 542.84375 168.4375 C 557.59857 157.34611 565.92746 135.90618 564.71875 112 C 563.28925 83.726719 547.56985 55.334003 524.5 39.3125 C 519.39499 35.767184 505.77591 29.273842 500 27.625 C 492.56853 25.503547 484.86973 24.486981 477.15625 24.53125 z M 428.21875 85.09375 C 431.44493 85.105903 435.70558 85.89609 442.15625 87.53125 L 452.1875 90.09375 L 456.34375 88.125 C 462.81022 85.078146 468.05088 84.634036 474.8125 86.53125 C 484.45241 89.236071 491.91499 98.221882 491.96875 107.15625 C 491.98795 110.35358 492.82395 111.59327 498.71875 117.15625 C 512.10733 129.79119 512 129.63388 512 135.125 C 512 141.92405 509.03236 145 502.46875 145 C 498.20791 145 497.32581 144.55257 491.65625 139.25 C 481.19264 129.46372 481.9998 129.88626 477.46875 131.5 C 471.80513 133.5171 462.32981 133.34057 457.5 131.125 C 450.30628 127.82503 444 119.426 444 113.15625 C 444 111.55169 443.4375 109.77517 442.75 109.21875 C 441.69793 108.36726 433.35513 106.21334 424.21875 104.40625 C 420.23914 103.61912 418 100.44394 418 95.59375 C 418 89.762858 418.67742 88.219243 422.0625 86.46875 C 423.81851 85.560682 425.7095 85.084298 428.21875 85.09375 z "
       style="fill:#ffffff" />
    <path
       id="path3836"
       d="M 225.875 11.21875 C 217.11089 11.149423 207.52071 11.941363 202 13.4375 C 177.9163 19.964293 159.95532 34.574054 146.125 58.84375 C 140.16083 69.309783 137.39005 77.399189 135.46875 90 C 133.54232 102.63443 133.65662 110.66266 135.90625 121.5625 C 140.45649 143.60907 149.61608 151.36344 175.3125 155 C 183.69906 156.18687 203.26499 155.37719 212.75 153.4375 C 228.91515 150.13171 247.28429 142.38304 261.5 132.875 C 270.71295 126.713 288.24899 109.48006 294.15625 100.78125 C 302.62791 88.306175 305.06724 74.853275 301 63.28125 C 292.9893 40.489367 264.87468 17.102522 239.71875 12.3125 C 236.09805 11.62307 231.13347 11.260346 225.875 11.21875 z M 263.5 73.03125 C 266.84052 72.980273 268.91295 73.876354 270.5625 75.65625 C 272.47178 77.716395 273 79.372891 273 83.1875 C 273 89.980324 270.65901 92.097614 260.5 94.4375 C 248.50358 97.200589 246 98.396168 246 101.46875 C 246 104.53628 241.99843 112.78902 239.34375 115.1875 C 232.59959 121.28081 220.25333 122.71808 211.125 118.46875 L 205.71875 115.96875 L 201.125 118.65625 C 198.58641 120.1404 194.73877 122.6377 192.59375 124.1875 C 187.46248 127.8949 182.29311 127.96607 178.0625 124.40625 C 175.42641 122.18813 175 121.1412 175 117.09375 C 175 113.23026 175.50094 111.91532 177.75 109.8125 C 181.33255 106.46289 193.2971 98.349445 195.875 97.53125 C 197.22885 97.101553 198.37811 95.192018 199.40625 91.6875 C 202.89296 79.802801 210.57606 73.978438 222.71875 74 C 228.0824 74.0095 230.40068 74.549452 233.8125 76.5 L 238.125 78.96875 L 248.75 75.96875 C 255.54787 74.059945 260.15948 73.082227 263.5 73.03125 z "
       style="fill:#ffffff" />
  </g>
</svg>
